<svg xmlns="http://www.w3.org/2000/svg" width="178.66" height="178.66" viewBox="0 0 178.66 178.66"><defs><style>.a{fill:#6024c6;}.b{fill:#fff;}</style></defs><title>Foodics-homepage-features-icon-2</title><circle class="a" cx="89.33" cy="89.33" r="89.33"></circle><path class="b" d="M153.9,48H46.1a6.6,6.6,0,0,0-6.6,6.59V75.9a6.61,6.61,0,0,0,6.6,6.6h17V152l13.33-6,11.77,5.13,11.8-4.61,13.08,4.59,11.22-4.76,14.24,5.48V82.5H153.9a6.62,6.62,0,0,0,6.6-6.6V54.64A6.59,6.59,0,0,0,153.9,48Zm-19.09,3.77V78.72H66.91V51.81ZM46.1,78.72a2.83,2.83,0,0,1-2.83-2.82V54.63a2.83,2.83,0,0,1,2.83-2.82h17V78.72Zm88.71,67.58-10.54-4.06L113,147l-13-4.56L88.31,147l-11.87-5.17-9.53,4.3V82.5h67.9Zm21.92-70.4a2.83,2.83,0,0,1-2.83,2.82H138.58V51.81H153.9a2.83,2.83,0,0,1,2.83,2.82Z" transform="translate(-10.67 -10.67)"></path><path class="b" d="M75.89,117.38h49a1.89,1.89,0,1,0,0-3.77h-49a1.89,1.89,0,0,0,0,3.77Z" transform="translate(-10.67 -10.67)"></path><path class="b" d="M75.89,104.87h49a1.89,1.89,0,1,0,0-3.77h-49a1.89,1.89,0,1,0,0,3.77Z" transform="translate(-10.67 -10.67)"></path><path class="b" d="M75.89,93.68h49a1.89,1.89,0,1,0,0-3.77h-49a1.89,1.89,0,1,0,0,3.77Z" transform="translate(-10.67 -10.67)"></path><path class="b" d="M124.87,127.33h-49a1.89,1.89,0,0,0,0,3.78h49a1.89,1.89,0,0,0,0-3.78Z" transform="translate(-10.67 -10.67)"></path></svg>