<svg xmlns="http://www.w3.org/2000/svg" width="178.66" height="178.66" viewBox="0 0 178.66 178.66"><defs><style>.a{fill:#6024c6;}.b{fill:#fff;}</style></defs><title>Foodics-homepage-features-icon-4</title><circle class="a" cx="89.33" cy="89.33" r="89.33"></circle><path class="b" d="M153.45,99.38a7.57,7.57,0,0,0-5.53.07,14.6,14.6,0,0,0-4.17,2.19,7.44,7.44,0,0,0-4.57.25,12.56,12.56,0,0,0-2.58,1.18,7.47,7.47,0,0,0-4.58.25,12.69,12.69,0,0,0-2.49,1.13,7.38,7.38,0,0,0-4,.3,13.52,13.52,0,0,0-5.18,3.17c-3.48,3.38-8.16,9.49-11.56,14.15a23.75,23.75,0,0,1-8.66,1.69H100c-2.79,0-6.05-1.38-9.15-2.86-8.82-4.18-18.26-1.09-22.3.64v-7.12a1.35,1.35,0,0,0-1.36-1.35h-20a7.63,7.63,0,0,0-7.62,7.62v33.64A1.35,1.35,0,0,0,41,155.68H67.24a1.35,1.35,0,0,0,1.34-1.35V147a61.32,61.32,0,0,1,12.16,1.45,51,51,0,0,0,11.6,1.34,40.74,40.74,0,0,0,11.41-1.45c.09,0,9.12-3.59,18.71-6.28,10.14-2.85,14.07-8.54,14.28-8.86l17.71-30.64a2.24,2.24,0,0,0-1-3.16ZM42.34,153V120.69a4.94,4.94,0,0,1,4.92-4.92H65.88V153ZM140,104.46a5.15,5.15,0,0,1,2.8-.28l-7,6c-4,4.93-7.86,10.39-9.81,13.18a8.64,8.64,0,0,0-2-1.79c.72-1,1.59-2.17,2.56-3.46A107.23,107.23,0,0,1,135.88,107,10.94,10.94,0,0,1,140,104.46Zm-11.29,4a10.94,10.94,0,0,1,4.13-2.55h0a5.46,5.46,0,0,1,2.65-.31l-7.23,6c-2.48,3.07-4.91,6.35-6.68,8.8a13.22,13.22,0,0,0-2.22-.59l1.77-2.36A88.73,88.73,0,0,1,128.72,108.44Zm-14.29,10.67a91,91,0,0,1,7.85-9.24,10.94,10.94,0,0,1,4.13-2.55,5.47,5.47,0,0,1,2-.3l-8.11,7c-1.54,2-3,4-4.31,5.7a15.15,15.15,0,0,0-2.5.59C113.82,119.9,114.12,119.51,114.43,119.11Zm20,12.63c0,.06-3.61,5.14-12.72,7.69-9.74,2.73-18.89,6.33-18.89,6.34a44.73,44.73,0,0,1-21.49,0,62.89,62.89,0,0,0-12.6-1.52l-.16-19.76c2.68-1.27,12.46-5.28,21.13-1.17h0c3.39,1.61,7,3.09,10.3,3.11a26.42,26.42,0,0,0,10.12-2h0l1.39-.55c3.44-1.38,5.93-2.37,9.7-.8a6.46,6.46,0,0,1,2.92,2.29,2.14,2.14,0,0,1,.34.77v0a1.3,1.3,0,0,1,0,.62c-.25.69-1.22,1.32-2.72,1.77a54.53,54.53,0,0,1-8.13,1.46c-6.2.82-13.22,1.74-18.28,5.79a1.34,1.34,0,0,0-.21,1.9h0a1.34,1.34,0,0,0,1.9.21h0c4.47-3.57,11.1-4.45,17-5.22a56.59,56.59,0,0,0,8.55-1.55c2.41-.72,3.92-1.88,4.48-3.45a3.82,3.82,0,0,0,.23-1.46c1.73-2.51,11-15.73,16.83-21.41a12.32,12.32,0,0,1,4.65-2.86,6,6,0,0,1,3.08-.34Z" transform="translate(-10.67 -10.67)"></path><path class="b" d="M58.58,120.06a5.83,5.83,0,1,0,5.83,5.83A5.83,5.83,0,0,0,58.58,120.06Zm0,8.95a3.12,3.12,0,1,1,0-6.24h0a3.12,3.12,0,1,1,0,6.24Z" transform="translate(-10.67 -10.67)"></path><path class="b" d="M97.48,86.69a4.4,4.4,0,1,0-4.39-4.39A4.4,4.4,0,0,0,97.48,86.69Zm0-6.08h0a1.69,1.69,0,1,1-1.69,1.69A1.68,1.68,0,0,1,97.48,80.61Z" transform="translate(-10.67 -10.67)"></path><path class="b" d="M61,77.9a4.4,4.4,0,1,0,4.39,4.4A4.4,4.4,0,0,0,61,77.9ZM61,84A1.69,1.69,0,1,1,62.7,82.3,1.69,1.69,0,0,1,61,84Z" transform="translate(-10.67 -10.67)"></path><path class="b" d="M152.87,44.32h-20a1.35,1.35,0,0,0-1.35,1.35h0V53a60.67,60.67,0,0,1-12.16-1.45c-12.92-3-22.51,0-23,.12-.09,0-9.11,3.58-18.72,6.27-.67.19-1.32.4-1.94.61H40.85a1.35,1.35,0,0,0-1.35,1.35h0v44.75a1.35,1.35,0,0,0,.83,1.24,1.31,1.31,0,0,0,.52.11h76.79a1.36,1.36,0,0,0,1.35-1.35V81.19a33.11,33.11,0,0,0,12.56-2.73v7.12a1.36,1.36,0,0,0,1.35,1.35h26.25a1.36,1.36,0,0,0,1.35-1.35V51.94A7.63,7.63,0,0,0,152.87,44.32Zm-36.59,59H42.21v-42h61.38A38.84,38.84,0,0,1,93.44,65.2H53.54a1.36,1.36,0,0,0-1.36,1.35h0a5.52,5.52,0,0,1-5.53,5.53,1.36,1.36,0,0,0-1.35,1.36V91.16a1.35,1.35,0,0,0,1.35,1.35A5.54,5.54,0,0,1,52.18,98a1.36,1.36,0,0,0,1.36,1.36H105A1.36,1.36,0,0,0,106.31,98a5.54,5.54,0,0,1,5.53-5.53,1.34,1.34,0,0,0,1.35-1.35V80.5a23.12,23.12,0,0,0,3.1.55ZM75,77.58a9.84,9.84,0,0,0,2.86,1.81,11.65,11.65,0,0,0,7.41.69A6.38,6.38,0,1,1,72.86,82.3,6.33,6.33,0,0,1,75,77.58Zm-1.87-5.33h0a4.09,4.09,0,0,0,.22,3.18,9.08,9.08,0,1,0,14.51,3.86l1.75-.68a25.74,25.74,0,0,1,10.53-2.36c2.79,0,6.05,1.38,9.15,2.85.41.19.82.36,1.23.53V89.92a8.25,8.25,0,0,0-6.77,6.77H54.78A8.24,8.24,0,0,0,48,89.92V74.68a8.25,8.25,0,0,0,6.77-6.77H81.13c-1.32.29-2.52.58-3.56.89C75.16,69.52,73.65,70.68,73.09,72.25ZM119,78.46h0a20.52,20.52,0,0,1-2.71-.15,18.78,18.78,0,0,1-5.87-1.66c-3.39-1.6-7-3.09-10.3-3.11a27.94,27.94,0,0,0-11.54,2.55c-3.45,1.38-5.94,2.37-9.71.8a6.51,6.51,0,0,1-2.92-2.29,1.69,1.69,0,0,1-.3-1.44c.25-.69,1.21-1.32,2.71-1.77,1.82-.55,4.25-1,7.06-1.61,7.9-1.62,17.67-3.61,22.58-8.5l.43-.44a1.36,1.36,0,0,0-.09-1.91h0l-.19-.13-.06,0-.15-.08-.13,0-.14,0H85c6.89-2.22,12.26-4.33,12.26-4.33a44.66,44.66,0,0,1,21.49,0,57.19,57.19,0,0,0,8.83,1.32l3.77-.82.17,20.79A31.4,31.4,0,0,1,119,78.46Zm38.8,5.77H134.26V47h18.61a4.93,4.93,0,0,1,4.92,4.92Z" transform="translate(-10.67 -10.67)"></path><path class="b" d="M141.55,68.29a5.83,5.83,0,1,0,5.83,5.83A5.83,5.83,0,0,0,141.55,68.29Zm0,8.95h0a3.12,3.12,0,1,1,3.12-3.12A3.12,3.12,0,0,1,141.55,77.24Z" transform="translate(-10.67 -10.67)"></path></svg>