<svg xmlns="http://www.w3.org/2000/svg" width="178.66" height="178.66" viewBox="0 0 178.66 178.66"><defs><style>.a{fill:#6024c6;}.b{fill:#fff;}</style></defs><title>Foodics-homepage-features-icon-1</title><circle class="a" cx="89.33" cy="89.33" r="89.33"></circle><rect class="b" x="37.45" y="104.19" width="12.84" height="3.96"></rect><rect class="b" x="54.02" y="104.19" width="12.84" height="3.96"></rect><path class="b" d="M155.63,100.28h-5.06a4.88,4.88,0,0,0-4.88,4.87v1.36H140.5a1.12,1.12,0,0,1-1-.65,8.93,8.93,0,0,0-4.37-4.12,15.4,15.4,0,0,0-6.71-1.46h-8.33V81.9a8,8,0,0,0-8-8h-.43L67.14,49.1a7,7,0,0,0-9.44,2.68L45.2,74.22a8,8,0,0,0-5.7,7.68v37.28a8,8,0,0,0,8,8H87.19l5.39,10.09a15.27,15.27,0,0,0,13.47,8.08h39.64v1.53a4.88,4.88,0,0,0,4.88,4.87h5.06a4.87,4.87,0,0,0,4.87-4.87V105.15A4.87,4.87,0,0,0,155.63,100.28ZM113,88.68l-2.2,3.94-8.21-4.57h9.27Zm3.11,1.45v3.13h-1.74Zm-1.88-10.88A3.53,3.53,0,0,1,115.6,84l0,0H111.8l-11.23-6.26H111.7Zm-9.47,4.84H95.5L84.27,77.83h9.27ZM77.16,73.87,55.91,62l2.19-3.95L86.43,73.87Zm-7,0H49.31L54.24,65Zm-22.59,4h29.7l11.23,6.26H57.1l-6.76-3.77-1.67,3,1.4.78H44.65A3.47,3.47,0,0,1,45,81.62l2.09-3.76A3.25,3.25,0,0,1,47.53,77.83ZM43.46,88.51a6.9,6.9,0,0,0,1.23.89l7,3.86H43.46Zm5.85-.46h7.86l1.21.67.37-.67h3.68l-1.24,2.24,5.34,3H58.67Zm14.9,0H95.57l9.36,5.21H72.25l.31-.56Zm51.91,9.17v12.91a9.87,9.87,0,0,0-4.42-2.65,9.58,9.58,0,0,0-5.52.5l6-10.76ZM65.48,52.09l39.11,21.78H93.46L59.77,55.1l.92-1.65A3.52,3.52,0,0,1,65.48,52.09Zm-22,67.09v-22H58.74l34,19,1.67-3-28.65-16h42.47l-6.6,11.85,1,.59a4.57,4.57,0,0,0-1.06,1.59,4.85,4.85,0,0,0,.57,4.56l5.15,7.44H47.53A4.07,4.07,0,0,1,43.46,119.18Zm62.59,22.24a11.31,11.31,0,0,1-10-6l-4.39-8.22h18.43l6.06,8.75a2,2,0,0,0,3.25-2.25l-14-20.16a.92.92,0,0,1-.14-.86.58.58,0,0,1,.44-.36,2,2,0,0,0,.32-.1c2.32-.93,3.58-1.18,4.67-.91,1.28.31,2.69,1.48,4.59,3.78l.15.17,2.51,2.41a2,2,0,0,0,1.3.56l5.74.21a6.55,6.55,0,0,1,6.2,6.2,2,2,0,0,0,4-.07v-.07a10.52,10.52,0,0,0-10-10l-5-.19-.13-.12v-10h8.33c3.91,0,6.73,1.66,7.5,3.29a5.08,5.08,0,0,0,4.59,2.94h5.19v30.95Zm50.49,5.49a.91.91,0,0,1-.91.91h-5.06a.92.92,0,0,1-.92-.91V105.15a.92.92,0,0,1,.92-.91h5.06a.91.91,0,0,1,.91.91Z" transform="translate(-10.67 -10.67)"></path></svg>