<svg xmlns="http://www.w3.org/2000/svg" width="178.66" height="178.66" viewBox="0 0 178.66 178.66"><defs><style>.a{fill:#6024c6;}.b{fill:#fff;}</style></defs><title>Foodics-homepage-features-icon-3</title><circle class="a" cx="89.33" cy="89.33" r="89.33"></circle><path class="b" d="M160.14,107.55a1.27,1.27,0,0,0-.9-.38l-11.65,0L133.83,84.25a11.8,11.8,0,0,0-5.48-4.78l-6.78-3.35V68.4a1.27,1.27,0,0,0-1.27-1.27H40.77A1.27,1.27,0,0,0,39.5,68.4h0v41.42a1.26,1.26,0,0,0,1.27,1.26H97.92v5.72a6.26,6.26,0,0,0,6.17,6.24H105a6.11,6.11,0,0,0,3.71-1.22v3.26a6.25,6.25,0,0,0,6.24,6.24h.85a6.25,6.25,0,0,0,5.73-3.76l1.81,1.82a11.89,11.89,0,0,0,8.37,3.48h0l27.42,0a1.27,1.27,0,0,0,1.27-1.26l.09-23.14A1.3,1.3,0,0,0,160.14,107.55Zm-61,1H42V69.66h77v33.13l-4-4a6,6,0,0,1,1-.08h0a1.27,1.27,0,0,0,1.27-1.27h0V80.69a1.28,1.28,0,0,0-1.27-1.45,6.76,6.76,0,0,1-7-6.42,1.85,1.85,0,0,1,0-.23,1.27,1.27,0,0,0-1.27-1.26H53.48a1.26,1.26,0,0,0-1.26,1.26,7.07,7.07,0,0,1-7.06,7,1.3,1.3,0,0,0-1.28,1.3V81c0,.12,0,.31,0,.54,0,.46,0,1.11,0,1.89,0,1.51,0,3.54,0,5.71s0,4.2,0,5.71c0,.78,0,1.43,0,1.89,0,.23,0,.42,0,.54A1.29,1.29,0,0,0,45,98.68h.12a7.07,7.07,0,0,1,7.05,6.94,1.27,1.27,0,0,0,1.27,1.25h47.45l1.67,1.67Zm7.59-22.27a3.48,3.48,0,0,0-2.13-.71h0a3.54,3.54,0,0,0-3.16,2h0a7.83,7.83,0,0,0-5.31,1.19l0,0-.29.2,0,0-.31.24-.27.23,0,0,0,0c0-.13,0-.26,0-.4a14.42,14.42,0,0,0-1.3-6,11.67,11.67,0,0,0-.65-1.27,14.66,14.66,0,0,0-7.29-6.32c-.4-.16-.8-.3-1.21-.42a12.29,12.29,0,0,0-1.23-.31A14.62,14.62,0,1,0,92.8,97a7.83,7.83,0,0,0,2.09,3.78l3,3,.5.5H54.65a9.64,9.64,0,0,0-8.25-8.1c0-3,0-11.23,0-14.22a9.63,9.63,0,0,0,8.26-8.15h51.92a9.32,9.32,0,0,0,8.23,7.83v6.65c0,2.67,0,5.56,0,7.89a10.2,10.2,0,0,0-1.89.45l-5.46-5.46A3.53,3.53,0,0,0,106.77,86.28Zm-1.12,2.83h0a.9.9,0,0,1,0,.28l-.23-.19h0a7.45,7.45,0,0,0-1.35-.88,1,1,0,0,1,1.63.8Zm-13,0a12.08,12.08,0,1,1-9.28-11.76,13.44,13.44,0,0,1,1.37.41A12,12,0,0,1,89,80.46a11.45,11.45,0,0,1,1.23,1.38A12.09,12.09,0,0,1,92.61,89.11Zm16.1,27.74a3.62,3.62,0,0,1-1.08,2.58h0a3.7,3.7,0,0,1-2.62,1.09h-.89a3.73,3.73,0,0,1-3.67-3.71v-5.71h4.68l3.58,3.6Zm7.09,12H115a3.71,3.71,0,0,1-3.71-3.71v-7.86l8.22,8.27h0A3.72,3.72,0,0,1,115.8,128.8Zm42.09,1.51-26.16,0v0a9.34,9.34,0,0,1-6.58-2.73l-3.1-3.11-1.26-1.27-.25-.25-.17-.17-.85-.85-8.26-8.3L110,112.38l-1.26-1.27v0l-1.27-1.26-1.26-1.27-1.66-1.67-1.26-1.27L102,104.35l-1.54-1.54-1.27-1.28-1.27-1.27L96.69,99a5.31,5.31,0,0,1,0-7.5l.19-.18,0,0,.18-.16h0l.32-.23.09-.07.3-.18.14-.08a1.11,1.11,0,0,1,.19-.09l.27-.13.16-.06.22-.08.1,0,.39-.1.1,0,.42-.07h.09l.22,0h.59a4.52,4.52,0,0,1,.53.06,5.17,5.17,0,0,1,1.68.54l0,0,.39.23,0,0a3.91,3.91,0,0,1,.41.3h0l.11.1.06,0,0,0,.2.19,1.07,1.07,1.11,1.11,4.2,4.2.64.64.26.26.93.93,4.86,4.85,1.77,1.78.31.31.18.14.06,0,.14.07a.15.15,0,0,0,.07,0,.66.66,0,0,0,.2.06h0l.19,0h.3l.17,0,0,0a.93.93,0,0,0,.2-.1l0,0h0l.13-.1s0,0,0,0l0,0a.86.86,0,0,0,.14-.18l0,0,.09-.17a.25.25,0,0,0,0-.07l0-.14.09.09V79l5.7,2.81.06,0a9.21,9.21,0,0,1,4.34,3.77L145.79,109a1.29,1.29,0,0,0,1.08.62l11.09,0Z" transform="translate(-10.67 -10.67)"></path><path class="b" d="M56.42,85.56A3.55,3.55,0,1,0,60,89.11,3.55,3.55,0,0,0,56.42,85.56Zm0,4.56h0a1,1,0,0,1-1-1,1,1,0,1,1,2,0A1,1,0,0,1,56.43,90.12Z" transform="translate(-10.67 -10.67)"></path></svg>