<svg xmlns="http://www.w3.org/2000/svg" width="56.144" height="53.993" viewBox="0 0 56.144 53.993"><g id="Group_8051" data-name="Group 8051" transform="translate(0 0)"><g id="Group_7457" data-name="Group 7457" transform="translate(18.275 20.36)"><path id="Path_3244" data-name="Path 3244" d="M181.1,219.542a7.5,7.5,0,0,1-.922.92c-.365.312-.817.676-1.342,1.081-.576.445-1.065.855-1.455,1.217a6.25,6.25,0,0,0-.861.949,3.371,3.371,0,0,0-.56,1.437l-.042.27h7.263v-1.063h-5.729l.672-.741a8.1,8.1,0,0,1,.677-.639c.286-.249.636-.54,1.036-.867.66-.53,1.223-1.01,1.676-1.427a8.3,8.3,0,0,0,.984-1.04,3.327,3.327,0,0,0,.49-.931,3.391,3.391,0,0,0,.162-1.069,2.953,2.953,0,0,0-.222-1.152,2.543,2.543,0,0,0-.638-.9,3.089,3.089,0,0,0-1.062-.616,4.477,4.477,0,0,0-1.5-.232,3.992,3.992,0,0,0-1.413.24,3.246,3.246,0,0,0-1.086.668,3.309,3.309,0,0,0-.74,1.051,3.867,3.867,0,0,0-.223.639l-.075.293h1.347l.043-.181a2.806,2.806,0,0,1,.135-.424,2.558,2.558,0,0,1,.473-.764,1.959,1.959,0,0,1,.694-.489,2.108,2.108,0,0,1,.813-.16,2.16,2.16,0,0,1,1.541.532,1.935,1.935,0,0,1,.572,1.469,2.982,2.982,0,0,1-.167,1.01A3.185,3.185,0,0,1,181.1,219.542Z" transform="translate(-175.599 -214.463)" fill="gray"></path><path id="Path_3245" data-name="Path 3245" d="M182.014,224.458h-7.849l.09-.583a3.634,3.634,0,0,1,.6-1.549,6.5,6.5,0,0,1,.9-.993c.395-.367.891-.782,1.474-1.233.523-.4.971-.764,1.332-1.072a7.217,7.217,0,0,0,.889-.885h0a2.913,2.913,0,0,0,.5-.845,2.707,2.707,0,0,0,.151-.918,1.677,1.677,0,0,0-.488-1.273,1.9,1.9,0,0,0-1.355-.458,1.839,1.839,0,0,0-.709.14,1.69,1.69,0,0,0-.6.423,2.293,2.293,0,0,0-.422.684,2.547,2.547,0,0,0-.122.383l-.092.389h-1.91l.162-.631a4.12,4.12,0,0,1,.239-.684,3.576,3.576,0,0,1,.8-1.136,3.512,3.512,0,0,1,1.176-.724,4.257,4.257,0,0,1,1.509-.258,4.745,4.745,0,0,1,1.588.247,3.354,3.354,0,0,1,1.154.671,2.813,2.813,0,0,1,.7,1,3.221,3.221,0,0,1,.243,1.257,3.665,3.665,0,0,1-.176,1.155,3.6,3.6,0,0,1-.529,1.007,8.561,8.561,0,0,1-1.018,1.078c-.456.421-1.025.906-1.689,1.439-.4.324-.744.613-1.029.86a7.906,7.906,0,0,0-.653.617l-.262.288h5.389Zm-7.217-.541h6.676v-.522H175.4l1.083-1.193a8.329,8.329,0,0,1,.7-.662c.288-.25.639-.543,1.043-.872.656-.527,1.215-1,1.663-1.416a8.066,8.066,0,0,0,.951-1,3.052,3.052,0,0,0,.449-.854,3.127,3.127,0,0,0,.149-.984,2.683,2.683,0,0,0-.2-1.047,2.282,2.282,0,0,0-.571-.81,2.822,2.822,0,0,0-.97-.56,4.211,4.211,0,0,0-1.407-.216,3.723,3.723,0,0,0-1.318.223,2.975,2.975,0,0,0-1,.612,3.039,3.039,0,0,0-.679.965,3.582,3.582,0,0,0-.2.549h.784a3.068,3.068,0,0,1,.142-.437,2.83,2.83,0,0,1,.524-.844,2.228,2.228,0,0,1,.789-.556,2.38,2.38,0,0,1,.916-.181,2.421,2.421,0,0,1,1.728.606,2.2,2.2,0,0,1,.657,1.666,3.249,3.249,0,0,1-.183,1.1,3.45,3.45,0,0,1-.589,1.005h0a7.786,7.786,0,0,1-.956.954c-.368.315-.823.681-1.353,1.09-.569.44-1.053.845-1.436,1.2a5.978,5.978,0,0,0-.823.906A3.088,3.088,0,0,0,174.8,223.917Z" transform="translate(-174.165 -213.235)" fill="gray"></path></g><g id="Group_7458" data-name="Group 7458" transform="translate(27.076 20.399)"><path id="Path_3246" data-name="Path 3246" d="M230.507,225.591v-2.556h1.51v-1h-1.51v-7.085h-1.04l-5.044,7.023v1.065h4.786v2.556Zm-4.986-3.558,3.688-5.264v5.264Z" transform="translate(-224.151 -214.676)" fill="gray"></path><path id="Path_3247" data-name="Path 3247" d="M229.548,224.632h-1.84v-2.556h-4.786v-1.423l5.176-7.206h1.45v7.085h1.51v1.544h-1.51Zm-1.3-.541h.757v-2.556h1.51v-.461h-1.51v-7.085h-.631l-4.912,6.839v.707h4.786Zm0-3.017h-4.479l4.479-6.393Zm-3.438-.541h2.9V216.4Z" transform="translate(-222.922 -213.447)" fill="gray"></path></g><g id="Group_7459" data-name="Group 7459" transform="translate(36.048 20.276)"><path id="Path_3248" data-name="Path 3248" d="M277.9,214.266l-3.25,10.766h.705l3.265-10.766Z" transform="translate(-274.286 -213.996)" fill="gray"></path><path id="Path_3249" data-name="Path 3249" d="M273.9,224.074h-1.27l3.413-11.308h1.286Zm-.541-.541h.14l3.1-10.225h-.153Z" transform="translate(-272.631 -212.766)" fill="gray"></path></g><g id="Group_7460" data-name="Group 7460" transform="translate(41.998 20.276)"><path id="Path_3250" data-name="Path 3250" d="M310.152,225.033l4.037-9.863.017-.043v-.861h-7.112v1.1h5.8l-4.176,9.665Z" transform="translate(-306.823 -213.996)" fill="gray"></path><path id="Path_3251" data-name="Path 3251" d="M309.1,224.074H307.08l4.176-9.664h-5.663v-1.643h7.654v1.184l-.038.092Zm-1.2-.541h.836l3.965-9.688v-.537h-6.571v.56h5.946Z" transform="translate(-305.593 -212.766)" fill="gray"></path></g><g id="Group_7461" data-name="Group 7461" transform="translate(7.86 0)"><path id="Path_3252" data-name="Path 3252" d="M140.8,152.676l.587-.832a13.628,13.628,0,0,1,.883-1.089l.107-.122.16-.026a24.329,24.329,0,1,0-23.806-38.087l-.206.29-.33-.132a2.258,2.258,0,0,0-.855-.092l-.883.025.5-.73a26.267,26.267,0,0,1,12.975-9.976,25.957,25.957,0,0,1,8.622-1.469c.553,0,1.114.018,1.668.052a26.182,26.182,0,0,1,23.054,17.447h0a26.156,26.156,0,0,1-21.464,34.617Zm2.044-1.206-.019.022a25.274,25.274,0,0,0,19.6-33.258h0a25.233,25.233,0,0,0-22.259-16.846c-.535-.033-1.078-.051-1.612-.051a25.17,25.17,0,0,0-16.671,6.317,25.369,25.369,0,0,0-3.717,4.077l.02,0a25.2,25.2,0,0,1,21.98-10.329,25.237,25.237,0,0,1,2.681,50.063Z" transform="translate(-116.462 -100.435)" fill="gray"></path></g><g id="Group_7462" data-name="Group 7462" transform="translate(0 13.078)"><path id="Path_3253" data-name="Path 3253" d="M96.326,213.807a13.441,13.441,0,0,1-6.507-1.727A27.074,27.074,0,0,1,84.49,208.3a4.022,4.022,0,0,1-.606-.525c-.237-.232-.632-.636-1.173-1.246a44.7,44.7,0,0,1-3.489-4.509,36.488,36.488,0,0,1-6.154-14.981,13.4,13.4,0,0,1,2.746-10.363c1.338-1.835,3.579-3.779,5.882-3.779h.083c1.409.028,2.915,1.364,4.738,4.205a31.058,31.058,0,0,1,2.343,4.331c.71,2.1-1.162,3.682-1.778,4.2a3.709,3.709,0,0,1-2.47.9,2.814,2.814,0,0,0-1,.18,2.888,2.888,0,0,0-1.415,2.053,4.92,4.92,0,0,0,.052,2.716c.282.743,1.323,2.767,4.68,8.19a24.034,24.034,0,0,0,2.011,2.247,5.11,5.11,0,0,0,3.093,1.053,2.582,2.582,0,0,0,1.848-.624,2.805,2.805,0,0,0,.526-.871,3.708,3.708,0,0,1,1.722-1.986,5.622,5.622,0,0,1,2.669-.828,2.889,2.889,0,0,1,1.892.667h0a31.066,31.066,0,0,1,3.209,3.734c2,2.717,2.714,4.6,2.237,5.927-.789,2.2-3.441,3.622-5.658,4.224A15.727,15.727,0,0,1,96.326,213.807ZM84.99,207.543l.04.023.037.034a26.168,26.168,0,0,0,5.18,3.685,12.561,12.561,0,0,0,6.078,1.619,14.839,14.839,0,0,0,3.913-.564c2-.542,4.373-1.788,5.045-3.658.356-.989-.356-2.7-2.114-5.086a31.556,31.556,0,0,0-3.058-3.574,2.008,2.008,0,0,0-1.317-.46,4.776,4.776,0,0,0-2.233.716,2.827,2.827,0,0,0-1.335,1.567,3.607,3.607,0,0,1-.7,1.13,3.447,3.447,0,0,1-2.5.9,5.919,5.919,0,0,1-3.693-1.281,24.9,24.9,0,0,1-2.127-2.37l-.035-.049A82.79,82.79,0,0,1,81.4,191.8c-.657-1.732-.158-5.053,1.85-5.918a3.607,3.607,0,0,1,1.306-.252,2.827,2.827,0,0,0,1.94-.688c.867-.733,1.966-1.865,1.506-3.225a31.511,31.511,0,0,0-2.247-4.132c-1.6-2.494-2.945-3.77-4-3.791-1.989-.036-4,1.734-5.218,3.407a12.557,12.557,0,0,0-2.581,9.709,35.583,35.583,0,0,0,6.007,14.6,43.787,43.787,0,0,0,3.417,4.417c.524.59.9.978,1.13,1.2a4.489,4.489,0,0,0,.44.4l-.289-.273a39.015,39.015,0,0,1-4.9-6.066,35.359,35.359,0,0,1-5.792-14.273,12.54,12.54,0,0,1,2.578-9.7c1.2-1.651,3.179-3.4,5.136-3.4h.066c1.3.026,2.881,2.068,3.978,3.776a31.946,31.946,0,0,1,2.248,4.133c.343,1.015-.147,2.063-1.5,3.207a2.812,2.812,0,0,1-1.929.683,3.616,3.616,0,0,0-1.312.254c-2.018.868-2.519,4.2-1.86,5.941a75.816,75.816,0,0,0,4.791,8.4h0a24.679,24.679,0,0,0,2.149,2.4,5.937,5.937,0,0,0,3.7,1.286h0a3.4,3.4,0,0,0,2.508-.9,3.62,3.62,0,0,0,.705-1.134,2.812,2.812,0,0,1,1.327-1.559,4.759,4.759,0,0,1,2.224-.713,1.991,1.991,0,0,1,1.305.456,31.811,31.811,0,0,1,3.059,3.577c1.2,1.634,2.548,3.84,2.108,5.064h0c-.67,1.863-3.039,3.105-5.033,3.646a14.812,14.812,0,0,1-3.908.563,12.542,12.542,0,0,1-6.07-1.617,26.12,26.12,0,0,1-5.239-3.74l-.007-.006Zm0-1.268.64.591a25.212,25.212,0,0,0,5.055,3.609,11.663,11.663,0,0,0,5.641,1.508,13.933,13.933,0,0,0,3.672-.532c1.693-.459,3.867-1.542,4.42-3.08.17-.474-.247-1.865-1.985-4.223a32.1,32.1,0,0,0-2.912-3.42,1.08,1.08,0,0,0-.726-.246,3.932,3.932,0,0,0-1.788.6,1.946,1.946,0,0,0-.94,1.139,4.487,4.487,0,0,1-.881,1.394,4.272,4.272,0,0,1-3.155,1.176h0a6.9,6.9,0,0,1-4.3-1.514,25.332,25.332,0,0,1-2.245-2.5l-.072-.1a82.9,82.9,0,0,1-4.867-8.555,6.754,6.754,0,0,1-.094-3.892,4.558,4.558,0,0,1,2.441-3.2,4.489,4.489,0,0,1,1.617-.326,1.945,1.945,0,0,0,1.4-.471c1.541-1.3,1.305-2,1.228-2.226a32.234,32.234,0,0,0-2.153-3.936c-1.583-2.465-2.733-3.352-3.237-3.362h-.049c-1.621,0-3.383,1.625-4.407,3.03a11.7,11.7,0,0,0-2.413,9.042,34.461,34.461,0,0,0,5.648,13.895,40.818,40.818,0,0,0,4.456,5.605Z" transform="translate(-72.918 -172.892)" fill="gray"></path></g></g></svg>