<svg xmlns="http://www.w3.org/2000/svg" width="112" height="86" viewBox="0 0 112 86"><g id="Group_7893" data-name="Group 7893" transform="translate(-333.2 -1168.96)"><g id="Of_ine_Mode" data-name="Of&#xFB02;ine Mode" transform="translate(358.759 1188.293)"><path id="Path_281" data-name="Path 281" d="M398.866,700.715a1.441,1.441,0,1,0-2.037,2.037l11.915,11.915a42.94,42.94,0,0,0-10.75,6.921,1.44,1.44,0,1,0,1.908,2.157,40.036,40.036,0,0,1,11.024-6.9l8.06,8.06a30.044,30.044,0,0,0-11.592,5.941,1.44,1.44,0,1,0,1.846,2.21,27.207,27.207,0,0,1,12.13-5.767L431.8,737.724a17.153,17.153,0,0,0-15.087,2.373,1.441,1.441,0,0,0,1.672,2.347,14.269,14.269,0,0,1,16.511,0,1.434,1.434,0,0,0,1.637.013l17.858,17.858a1.441,1.441,0,0,0,2.037-2.037Z" transform="translate(-396.406 -700.293)" fill="gray"></path><path id="Path_282" data-name="Path 282" d="M424.472,718.97a1.437,1.437,0,0,0,.664,1.926,27.328,27.328,0,0,1,5.667,3.7,1.44,1.44,0,1,0,1.862-2.2,30,30,0,0,0-6.268-4.094,1.441,1.441,0,0,0-1.925.663" transform="translate(-383.196 -691.838)" fill="gray"></path><path id="Path_283" data-name="Path 283" d="M446.148,720.746a1.441,1.441,0,0,0,.955-2.521,43.5,43.5,0,0,0-32.127-10.692,1.441,1.441,0,0,0-1.319,1.553,1.461,1.461,0,0,0,1.55,1.32,40.6,40.6,0,0,1,29.988,9.981,1.435,1.435,0,0,0,.953.359" transform="translate(-388.246 -696.932)" fill="gray"></path><path id="Path_284" data-name="Path 284" d="M417.406,734.039h-.025a1.428,1.428,0,0,0-1.427,1.441,1.447,1.447,0,1,0,1.453-1.441" transform="translate(-387.158 -684.324)" fill="gray"></path></g><rect id="Rectangle_3020" data-name="Rectangle 3020" width="112" height="86" transform="translate(333.2 1168.96)" fill="none"></rect></g></svg>