<svg xmlns="http://www.w3.org/2000/svg" width="112" height="86" viewBox="0 0 112 86"><g id="Group_7891" data-name="Group 7891" transform="translate(-718.2 -1168.96)"><g id="Smooth_Integration" data-name="Smooth Integration" transform="translate(736.058 1179.108)"><path id="Path_291" data-name="Path 291" d="M765.192,726.053c-.853.907-1.509.868-2.275-.145-.737-.972-1.467-1.947-2.248-2.986-.275,1.576-.47,3.057-.8,4.508a33.16,33.16,0,0,1-8.695,16.084,1.877,1.877,0,0,1-1.183.57,1.185,1.185,0,0,1-.913-.675,1.764,1.764,0,0,1,.271-1.326c1.121-1.454,2.416-2.778,3.481-4.269a29.968,29.968,0,0,0,5.124-12.7c.031-.191.027-.386.055-.815-.471.617-.819,1.07-1.162,1.523-.657.871-1.351,1.09-1.959.619s-.589-1.145.094-2.058c.955-1.276,1.917-2.547,2.861-3.832a7.6,7.6,0,0,0,.6-1,1.435,1.435,0,0,1,2.518-.2q1.909,2.568,3.83,5.128a3.877,3.877,0,0,0,.4.4Z" transform="translate(-689.857 -682.399)" fill="gray"></path><path id="Path_292" data-name="Path 292" d="M729.02,707.878a8.592,8.592,0,0,1,1,.585c.981.776,1.956,1.563,2.9,2.379a.726.726,0,0,0,.959.087,13.363,13.363,0,0,1,2.238-.921.9.9,0,0,0,.723-.919c.127-1.245.259-2.49.421-3.729.131-.984.476-1.276,1.445-1.279q3.129-.011,6.259,0a1.338,1.338,0,0,1,1.5,1.419c.116,1.295.258,2.587.433,3.875a.859.859,0,0,0,.436.547c.819.387,1.65.751,2.5,1.059a1,1,0,0,0,.818-.106c1.034-.787,2.027-1.628,3.039-2.445a1.284,1.284,0,0,1,2,.112q2.13,2.139,4.258,4.279a1.288,1.288,0,0,1,.128,2.051c-.8,1.026-1.594,2.057-2.414,3.064a.78.78,0,0,0-.124.981,22.074,22.074,0,0,1,1.008,2.363.731.731,0,0,0,.732.551c1.2.111,2.388.273,3.583.4,1.282.135,1.584.449,1.584,1.706,0,2.014,0,4.026,0,6.038,0,.971-.3,1.324-1.273,1.454-1.313.172-2.634.287-3.944.482a1.016,1.016,0,0,0-.644.516c-.379.768-.657,1.584-1.034,2.351a.778.778,0,0,0,.1.983c.843,1.024,1.648,2.074,2.462,3.12a1.249,1.249,0,0,1-.1,1.942q-2.179,2.194-4.374,4.372a1.26,1.26,0,0,1-1.945.1c-.99-.765-1.986-1.523-2.955-2.314a.778.778,0,0,0-.987-.093,11.816,11.816,0,0,1-2.023.868,1.2,1.2,0,0,0-.947,1.24c-.081,1.076-.227,2.147-.349,3.218s-.486,1.414-1.565,1.416c-2.061,0-4.122.006-6.184,0-.93,0-1.292-.3-1.416-1.227-.175-1.311-.321-2.628-.457-3.945a.729.729,0,0,0-.575-.713,23.13,23.13,0,0,1-2.441-1.009.655.655,0,0,0-.837.1c-.993.84-2.005,1.656-3.02,2.469a1.232,1.232,0,0,1-1.886-.075q-2.25-2.227-4.477-4.48a1.191,1.191,0,0,1-.1-1.772c.822-1.07,1.653-2.133,2.506-3.179a.772.772,0,0,0,.091-.98,19.588,19.588,0,0,1-.977-2.373.719.719,0,0,0-.712-.573c-1.221-.115-2.44-.262-3.656-.4-1.233-.141-1.526-.471-1.526-1.69,0-2.012,0-4.026,0-6.038,0-.953.327-1.342,1.274-1.466,1.338-.174,2.683-.3,4.017-.485a.863.863,0,0,0,.554-.43,26.141,26.141,0,0,0,1.056-2.5,1.117,1.117,0,0,0-.122-.891c-.782-1.068-1.625-2.09-2.439-3.138a1.245,1.245,0,0,1,.1-1.942c1.453-1.463,2.905-2.926,4.38-4.367a5.942,5.942,0,0,1,.987-.641m25.4,34.987,3.263-3.265c-.815-1.039-1.665-2.149-2.546-3.234a1.476,1.476,0,0,1-.165-1.755c.608-1.3,1.127-2.65,1.65-3.992a1.242,1.242,0,0,1,1.03-.919q.473-.062.949-.119l3.459-.411v-4.63c-.292-.04-.555-.079-.819-.112-1.17-.138-2.338-.28-3.508-.41a1.294,1.294,0,0,1-1.127-.994,35,35,0,0,0-1.534-3.723,1.69,1.69,0,0,1,.19-2.133c.868-1.019,1.666-2.1,2.388-3.017-1.123-1.124-2.171-2.174-3.25-3.256-.949.773-1.99,1.591-2.995,2.451a1.534,1.534,0,0,1-1.88.181c-1.277-.6-2.631-1.05-3.911-1.651a2.282,2.282,0,0,1-.909-1.009,3.56,3.56,0,0,1-.165-1.156c-.13-1.083-.261-2.165-.39-3.241h-4.62c-.05.34-.1.653-.138.966-.119,1.047-.247,2.095-.349,3.144a1.5,1.5,0,0,1-1.248,1.4,24.829,24.829,0,0,0-3.518,1.439c-1.009.5-1.233.545-2.105-.163-1-.816-2.008-1.635-2.932-2.387-1.1,1.1-2.151,2.155-3.243,3.247.807,1.027,1.657,2.135,2.537,3.217a1.485,1.485,0,0,1,.161,1.758c-.607,1.305-1.133,2.65-1.653,3.992a1.238,1.238,0,0,1-1.027.918c-.365.049-.731.091-1.1.135l-3.328.4v4.638c1.4.162,2.786.339,4.172.477a1.479,1.479,0,0,1,1.357,1.211,30.531,30.531,0,0,0,1.469,3.584c.463.956.508,1.193-.168,2.053-.831,1.057-1.662,2.113-2.571,3.271.569.538,1.118,1.021,1.625,1.547.526.544,1.009,1.125,1.526,1.709,1.214-.99,2.254-1.846,3.3-2.688.716-.576,1.123-.524,1.939-.1a21.767,21.767,0,0,0,3.212,1.4c1.364.443,1.5.517,1.64,1.943.121,1.214.274,2.425.418,3.687,1.463,0,2.858.018,4.253-.025.164-.006.426-.339.457-.548.181-1.213.312-2.432.449-3.651a1.266,1.266,0,0,1,.937-1.1c1.3-.5,2.6-1,3.864-1.578.953-.432,1.248-.427,2.055.225.969.788,1.965,1.542,2.892,2.266" transform="translate(-703.976 -689.317)" fill="gray"></path><path id="Path_293" data-name="Path 293" d="M715.542,723.656c.566-.756,1.133-1.514,1.7-2.267.544-.717,1.257-.9,1.825-.469.591.445.625,1.131.066,1.877-1.321,1.768-2.64,3.539-3.976,5.295a1.238,1.238,0,0,1-2.145-.026c-1.335-1.79-2.693-3.561-3.954-5.4a1.831,1.831,0,0,1-.074-1.475c.1-.262.729-.446,1.112-.436a1.457,1.457,0,0,1,.856.6c.648.794,1.246,1.628,1.964,2.583.15-.909.268-1.666.4-2.42a33.743,33.743,0,0,1,9.141-17.856,1.251,1.251,0,0,1,1.824-.161,1.2,1.2,0,0,1-.1,1.821,30.621,30.621,0,0,0-8.705,17.379c-.043.289-.062.582-.093.874Z" transform="translate(-708.868 -689.745)" fill="gray"></path><path id="Path_294" data-name="Path 294" d="M738.31,743.408q-1.045-.787-2.087-1.575c-.71-.544-.882-1.262-.443-1.828a1.209,1.209,0,0,1,1.822-.084q2.654,1.976,5.3,3.973c.9.682.885,1.47-.03,2.164q-2.61,1.976-5.236,3.93a1.3,1.3,0,0,1-1.843-.053c-.451-.57-.29-1.282.426-1.827.854-.654,1.718-1.3,2.727-2.056-1.025-.165-1.9-.289-2.761-.445a33.445,33.445,0,0,1-17.672-9.019c-.688-.663-.771-1.308-.253-1.856.5-.526,1.217-.482,1.872.155a30.631,30.631,0,0,0,14.269,7.964c1.267.311,2.56.508,3.842.757l.071-.2" transform="translate(-704.584 -674.983)" fill="gray"></path><path id="Path_295" data-name="Path 295" d="M738.837,700.905c.7.528,1.408,1.05,2.1,1.585a1.212,1.212,0,0,1,.407,1.725,1.182,1.182,0,0,1-1.806.168c-1.538-1.139-3.06-2.3-4.595-3.44-.312-.231-.659-.418-.984-.638a1.163,1.163,0,0,1-.043-1.976q2.822-1.993,5.653-3.973a1.2,1.2,0,0,1,1.76.168,1.179,1.179,0,0,1-.317,1.681c-.9.676-1.817,1.326-2.852,2.077.86.141,1.588.25,2.31.381a33.52,33.52,0,0,1,17.665,9.038c.666.645.734,1.335.2,1.862a1.223,1.223,0,0,1-1.819-.156,30.652,30.652,0,0,0-14.262-7.983c-1.114-.276-2.248-.467-3.373-.7Z" transform="translate(-697.263 -694.058)" fill="gray"></path><path id="Path_296" data-name="Path 296" d="M726.759,700.8a2.856,2.856,0,0,1-.642.812c-1.258.846-2.555,1.631-3.847,2.425a1.154,1.154,0,0,1-1.629-.279,1.131,1.131,0,0,1,.326-1.669c1.305-.863,2.625-1.709,3.976-2.5.846-.495,1.786.038,1.817,1.209" transform="translate(-703.409 -691.529)" fill="gray"></path><path id="Path_297" data-name="Path 297" d="M756.2,717.377c-.193-.2-.679-.477-.834-.884-.544-1.436-.984-2.914-1.439-4.383a1.142,1.142,0,0,1,.681-1.5,1.1,1.1,0,0,1,1.5.669c.538,1.519,1.037,3.055,1.479,4.6.224.784-.346,1.473-1.386,1.5" transform="translate(-687.578 -686.269)" fill="gray"></path><path id="Path_298" data-name="Path 298" d="M755.791,710.223c-.29.32-.536.821-.885.909a1.49,1.49,0,0,1-1.288-.315c-1-1.295-1.9-2.664-2.787-4.038a1.063,1.063,0,0,1,.295-1.5.981.981,0,0,1,1.458.053c1.049,1.405,2.008,2.88,2.989,4.337a1.182,1.182,0,0,1,.087.427c.043.043.087.087.131.13" transform="translate(-689.104 -688.89)" fill="gray"></path><path id="Path_299" data-name="Path 299" d="M719.14,734.427c-.265.314-.476.794-.809.9a1.4,1.4,0,0,1-1.246-.192c-1.028-1.45-1.989-2.955-2.876-4.5-.3-.519.047-1.05.58-1.339a1.167,1.167,0,0,1,1.582.495c.508.8.98,1.634,1.483,2.443.273.435.6.835.871,1.27a8.4,8.4,0,0,1,.414.919" transform="translate(-706.392 -677.449)" fill="gray"></path><path id="Path_300" data-name="Path 300" d="M713.212,723.173a1.063,1.063,0,0,1,1.034.837c.442,1.523.881,3.049,1.291,4.581a1.146,1.146,0,0,1-.778,1.394,1.09,1.09,0,0,1-1.432-.682c-.489-1.584-.943-3.184-1.333-4.794-.175-.72.387-1.314,1.218-1.336" transform="translate(-707.404 -680.281)" fill="gray"></path><path id="Path_301" data-name="Path 301" d="M750.189,737.844a2.142,2.142,0,0,1-.5.719q-1.969,1.339-4.007,2.578a1.14,1.14,0,0,1-1.647-.405,1.171,1.171,0,0,1,.426-1.6c1.308-.854,2.619-1.706,3.958-2.51a1.193,1.193,0,0,1,1.774,1.22" transform="translate(-692.305 -673.999)" fill="gray"></path><path id="Path_302" data-name="Path 302" d="M731.716,697.171a1.349,1.349,0,0,1,1.19,1.052,1.041,1.041,0,0,1-.691,1.3q-2.38.734-4.8,1.339a1.045,1.045,0,0,1-1.279-.734.994.994,0,0,1,.479-1.383c1.677-.589,3.394-1.061,5.1-1.578" transform="translate(-700.742 -692.585)" fill="gray"></path><path id="Path_303" data-name="Path 303" d="M739.13,743.2c-.642-.131-1.08-.4-1.211-1.011a1.055,1.055,0,0,1,.715-1.352q2.344-.718,4.721-1.324a1.053,1.053,0,0,1,1.326.763,1.007,1.007,0,0,1-.521,1.372c-1.657.572-3.35,1.043-5.029,1.553" transform="translate(-695.139 -672.568)" fill="gray"></path><path id="Path_304" data-name="Path 304" d="M745.506,722.322a8.4,8.4,0,1,1-8.387-8.434,8.6,8.6,0,0,1,8.387,8.434m-8.434,6.009a6.043,6.043,0,1,0-6.01-6.056,5.837,5.837,0,0,0,6.01,6.056" transform="translate(-699.482 -684.675)" fill="gray"></path></g><rect id="Rectangle_3022" data-name="Rectangle 3022" width="112" height="86" transform="translate(718.2 1168.96)" fill="none"></rect></g></svg>