<svg xmlns="http://www.w3.org/2000/svg" width="112" height="86" viewBox="0 0 112 86"><g id="Group_7894" data-name="Group 7894" transform="translate(-142.2 -1168.96)"><g id="Secure_Cloud" data-name="Secure Cloud" transform="translate(160.544 1187.366)"><path id="Path_277" data-name="Path 277" d="M292.821,748.8H273.094a5.156,5.156,0,0,1-5.152-5.149V730.469a5.157,5.157,0,0,1,5.152-5.15h19.727a5.2,5.2,0,0,1,5.237,5.15v13.182a5.2,5.2,0,0,1-5.237,5.149m-19.727-20.513a2.212,2.212,0,0,0-2.183,2.182v13.182a2.212,2.212,0,0,0,2.183,2.182h19.727a2.23,2.23,0,0,0,2.269-2.182V730.469a2.23,2.23,0,0,0-2.269-2.182Z" transform="translate(-244.551 -687.523)" fill="gray"></path><path id="Path_278" data-name="Path 278" d="M278.612,737.844a1.482,1.482,0,0,1-1.484-1.482v-3.927a1.483,1.483,0,1,1,2.967,0v3.927a1.483,1.483,0,0,1-1.483,1.482" transform="translate(-240.204 -684.859)" fill="gray"></path><path id="Path_279" data-name="Path 279" d="M291.335,733a1.484,1.484,0,0,1-1.483-1.483v-7.332a5.814,5.814,0,0,0-5.762-5.85h-4.277a5.884,5.884,0,0,0-5.762,5.85v7.332a1.484,1.484,0,0,1-2.968,0v-7.332a8.891,8.891,0,0,1,8.73-8.817h4.277a8.783,8.783,0,0,1,8.729,8.817v7.332A1.484,1.484,0,0,1,291.335,733" transform="translate(-243.065 -692.233)" fill="gray"></path><path id="Path_280" data-name="Path 280" d="M313.864,747.061h-3.055a1.484,1.484,0,0,1,0-2.968h3.055a12.07,12.07,0,0,0,1.092-24.1,1.482,1.482,0,0,1-1.348-1.364A14.164,14.164,0,0,0,299.549,705.6a14.438,14.438,0,0,0-5.847,1.262,1.48,1.48,0,0,1-1.566-.214,17.3,17.3,0,0,0-11.092-4.017,17.038,17.038,0,0,0-17.108,16.71,1.485,1.485,0,0,1-.987,1.36,12.063,12.063,0,0,0,4.128,23.391h3.142a1.484,1.484,0,0,1,0,2.968h-3.142a15.036,15.036,0,0,1-6.061-28.786,19.984,19.984,0,0,1,20.028-18.612,20.273,20.273,0,0,1,12.282,4.14,17.572,17.572,0,0,1,6.223-1.171A17.154,17.154,0,0,1,316.43,717.2a15.036,15.036,0,0,1-2.566,29.863" transform="translate(-252.064 -699.663)" fill="gray"></path></g><rect id="Rectangle_3021" data-name="Rectangle 3021" width="112" height="86" transform="translate(142.2 1168.96)" fill="none"></rect></g></svg>