<svg xmlns="http://www.w3.org/2000/svg" width="112" height="86" viewBox="0 0 112 86"><g id="Group_7892" data-name="Group 7892" transform="translate(-523.2 -1168.96)"><g id="Analytics_Reporting" data-name="Analytics &amp; Reporting" transform="translate(541.106 1195.289)"><path id="Path_285" data-name="Path 285" d="M603.459,751.284H559.032a6.963,6.963,0,0,1-7.17-7.118q-.029-13.526-.009-27.053c0-1.6,0-3.2,0-4.8a7.026,7.026,0,0,1,7.227-7.267q15.515-.013,31.029-.006,10.269,0,20.536,0a7.007,7.007,0,0,1,7.331,7.241c.012,3.679,0,7.359,0,11.039,0,.236-.024.471-.04.769h-2.609V722.8q0-5.385,0-10.767c-.006-2.789-1.575-4.356-4.388-4.358q-22.617-.007-45.234,0c-2.261,0-4.523-.012-6.784,0-2.845.016-4.439,1.592-4.442,4.434q-.013,16.151,0,32.3c0,2.683,1.631,4.228,4.427,4.229q21.576.007,43.152,0c1.559,0,1.383-.2,1.391,1.4,0,.383,0,.766,0,1.236" transform="translate(-551.851 -705.042)" fill="gray"></path><path id="Path_286" data-name="Path 286" d="M605.9,737.693l5.184,5.252c.233.236.485.455.7.706a1.306,1.306,0,0,1,0,1.87,1.333,1.333,0,0,1-1.937-.1q-2.172-2.11-4.3-4.266c-.488-.491-.936-1.019-1.442-1.578a10.779,10.779,0,0,1-9.537,2.2,11.013,11.013,0,0,1-6.448-4.523,10.947,10.947,0,0,1,15.5-15.006,10.966,10.966,0,0,1,4.443,7.3,10.665,10.665,0,0,1-2.164,8.144m-8.754,1.808a8.425,8.425,0,1,0-8.407-8.406,8.263,8.263,0,0,0,8.407,8.406" transform="translate(-535.635 -697.942)" fill="gray"></path><path id="Path_287" data-name="Path 287" d="M575.139,731.164c1.921-2,3.754-3.914,5.594-5.822,1.009-1.049,1.494-1.053,2.6-.1,1.589,1.375,3.192,2.734,4.87,4.169.227-.373.4-.644.56-.922q4.6-7.88,9.2-15.763c.075-.13.15-.261.23-.389.508-.809,1.211-1.053,1.9-.661a1.3,1.3,0,0,1,.39,1.952c-1.03,1.8-2.083,3.6-3.131,5.392q-3.715,6.36-7.432,12.718c-.75,1.282-1.447,1.385-2.6.4l-5.152-4.411c-.253.242-.492.454-.713.684q-2.572,2.669-5.138,5.348c-1.177,1.223-1.833,1.182-2.792-.187-1.433-2.043-2.861-4.091-4.381-6.265-.237.355-.421.605-.582.871q-2.954,4.866-5.9,9.736a6.383,6.383,0,0,1-.385.613,1.3,1.3,0,0,1-2.257-1.286,3.286,3.286,0,0,1,.358-.626q3.648-6.033,7.3-12.061c.835-1.376,1.862-1.366,2.77-.032,1.407,2.068,2.851,4.11,4.281,6.161.1.143.227.265.42.488" transform="translate(-548.045 -701.989)" fill="gray"></path><path id="Path_288" data-name="Path 288" d="M578.748,740.015q6.285,0,12.568,0a1.326,1.326,0,0,1,1.482,1.245,1.377,1.377,0,0,1-1.391,1.371c-.268.025-.542.01-.813.01q-5.109,0-10.216,0l-13.653,0c-.181,0-.362.009-.542-.007a1.3,1.3,0,0,1-1.358-1.369c.021-.791.519-1.243,1.447-1.248,3.256-.01,6.51-.006,9.766-.006q1.355,0,2.712,0Z" transform="translate(-545.714 -688.495)" fill="gray"></path></g><rect id="Rectangle_3019" data-name="Rectangle 3019" width="112" height="86" transform="translate(523.2 1168.96)" fill="none"></rect></g></svg>