<svg xmlns="http://www.w3.org/2000/svg" width="112" height="86" viewBox="0 0 112 86"><g id="Group_7890" data-name="Group 7890" transform="translate(-903.2 -1168.96)"><g id="Advanced_Authorization" data-name="Advanced Authorization" transform="translate(934.169 1185.96)"><path id="Path_289" data-name="Path 289" d="M877.194,725.273q0-7.825,0-15.65c0-1.137.258-1.376,1.4-1.4a34.686,34.686,0,0,0,22.861-8.783,1.046,1.046,0,0,1,1.631-.01,34.342,34.342,0,0,0,20.47,8.674c.9.077,1.809.083,2.714.124a1.086,1.086,0,0,1,1.13,1.183c-.029,3.182-.062,6.363-.071,9.543q-.024,10.377-.028,20.753a15,15,0,0,1-3.469,9.25,37.137,37.137,0,0,1-7.3,6.9,108.249,108.249,0,0,1-13.583,8.487,1.251,1.251,0,0,1-1.311.032A101.062,101.062,0,0,1,885.4,753.933a24.146,24.146,0,0,1-7.055-8.487,14.151,14.151,0,0,1-1.215-5.919q0-7.129,0-14.254Zm48.258-15.035c-1.76-.2-3.436-.329-5.085-.6a36.247,36.247,0,0,1-17.593-7.926c-.377-.312-.6-.349-.995-.015a35.423,35.423,0,0,1-11.243,6.342,36.739,36.739,0,0,1-10.818,2.071c-.542.024-.648.228-.648.716q0,14.525-.015,29.048a11.686,11.686,0,0,0,1.84,6.336,27.143,27.143,0,0,0,6.019,6.479A95.8,95.8,0,0,0,901.9,762.3a.938.938,0,0,0,.773-.012,99.416,99.416,0,0,0,12.842-8.052,35.023,35.023,0,0,0,7.173-6.936,12.91,12.91,0,0,0,2.7-7.932c-.024-9.129.035-18.26.063-27.389,0-.572,0-1.143,0-1.744" transform="translate(-877.132 -699.044)" fill="gray"></path><path id="Path_290" data-name="Path 290" d="M882.852,727.967l.832.194c.04-.166.074-.324.111-.473a3.862,3.862,0,0,1,.868-1.724,3.386,3.386,0,0,1,1.609-.958,3.729,3.729,0,0,1,1.037-.155,3.055,3.055,0,0,1,1.261.271,3.973,3.973,0,0,1,1.174.838c1.22,1.224,2.428,2.471,3.648,3.714.074.074.127.121.184.177l.589.561.591-.561c.086-.081.187-.172.3-.292q7.5-7.643,14.991-15.294a4.249,4.249,0,0,1,1.249-.909,3.453,3.453,0,0,1,1.442-.306l.093,0a3.572,3.572,0,0,1,3.321,2.958,4.732,4.732,0,0,1,.047.644,3.531,3.531,0,0,1-.278,1.407,4.047,4.047,0,0,1-.859,1.249q-9.148,9.33-18.292,18.658a3.449,3.449,0,0,1-5.186.019q-3.385-3.436-6.759-6.893a3.622,3.622,0,0,1-1.076-2.117l-.015-.113-.1-.227-.788.333h.856v-1h-.856l.832.194-.832-.194H882v1.177l.119.281.788-.333-.849.111a5.341,5.341,0,0,0,1.55,3.091q3.379,3.447,6.762,6.9a5.153,5.153,0,0,0,7.625-.024q9.148-9.325,18.291-18.655a5.77,5.77,0,0,0,1.214-1.778,5.277,5.277,0,0,0,.414-2.077,6.259,6.259,0,0,0-.065-.885,5.277,5.277,0,0,0-4.974-4.425l-.133,0a5.151,5.151,0,0,0-2.155.461,5.934,5.934,0,0,0-1.759,1.268q-7.487,7.652-14.99,15.291c-.063.068-.152.147-.259.248l.589.622.589-.622c-.078-.071-.124-.114-.144-.134h0c-1.216-1.238-2.426-2.487-3.658-3.723a5.657,5.657,0,0,0-1.684-1.19,4.756,4.756,0,0,0-1.962-.421,5.461,5.461,0,0,0-1.51.221,5.081,5.081,0,0,0-2.4,1.447,5.571,5.571,0,0,0-1.268,2.472c-.043.174-.08.339-.115.494l-.022.1v.1Z" transform="translate(-874.831 -693.225)" fill="gray"></path></g><rect id="Rectangle_3018" data-name="Rectangle 3018" width="112" height="86" transform="translate(903.2 1168.96)" fill="none"></rect></g></svg>