<svg xmlns="http://www.w3.org/2000/svg" width="225" height="122" viewBox="0 0 225 122"><g id="Group_8123" data-name="Group 8123" transform="translate(-986.4 -746.828)"><g id="Group_8079" data-name="Group 8079" transform="translate(917.079 675.323)"><g id="Group_8077" data-name="Group 8077" transform="translate(150.108 107.417)"><g id="Group_8068" data-name="Group 8068" transform="translate(0 0)"><path id="Path_3489" data-name="Path 3489" d="M206.366,182.019H203.6a2.4,2.4,0,0,0-.413-.122,15.57,15.57,0,0,1-5.749-1.947,3.272,3.272,0,0,0-1.487-.417q-16.795-.035-33.59-.018c-1.36,0-2.72.014-4.08-.005a3.135,3.135,0,0,1-3.023-1.788,5.14,5.14,0,0,1-.4-2.109q-.032-26.553-.019-53.106c0-.327-.029-.654-.046-1.039-.466,0-.851.008-1.236,0a3.3,3.3,0,0,1-3.437-3.515q-.008-1.712,0-3.424a6.878,6.878,0,0,1,7.134-7.107q23.717-.009,47.434.007a7.8,7.8,0,0,1,1.942.231,6.833,6.833,0,0,1,5.146,6.907q.01,13.55,0,27.1c0,1.141-.012,2.283.012,3.424,0,.205.107.534.25.591a4.681,4.681,0,0,1,2.733,2.821,1.072,1.072,0,0,0,.269-.019,4.72,4.72,0,0,1,6.5,4.821c-.061,3.083.011,6.168-.023,9.251a22.064,22.064,0,0,1-1.9,8.979c-2.321,5.106-5.981,8.72-11.559,10.122C207.5,181.795,206.929,181.9,206.366,182.019ZM193.143,176.6c-1.161-1.47-2.233-2.815-3.292-4.171q-4.057-5.195-8.106-10.4a5.89,5.89,0,0,1-1.323-5.167,5.4,5.4,0,0,1,3.782-4.246,4.837,4.837,0,0,1,5.177,1.654q1.369,1.463,2.736,2.928c.138.147.3.277.54.5,0-.3,0-.467,0-.63q-.006-9.362-.01-18.723c0-1.36-.034-2.722.025-4.079a4.6,4.6,0,0,1,5.429-4.326,4.487,4.487,0,0,1,3.9,4.48c.056,2.549.022,5.1.026,7.649,0,.258,0,.516,0,.825,2.914-.709,5.058.107,6.285,2.834.6.025.543-.374.543-.74q0-15.3-.005-30.6a3.961,3.961,0,1,0-7.921-.066c-.025,1.092-.005,2.186-.007,3.278,0,2.581-1.269,3.858-3.835,3.86q-6.157,0-12.315,0a5.155,5.155,0,0,1-.8-.041,1.426,1.426,0,0,1-.042-2.811,5.243,5.243,0,0,1,.942-.058q6.012-.005,12.023,0c1.109,0,1.109,0,1.11-1.144,0-1,.009-1.991,0-2.987a6.928,6.928,0,0,1,.98-3.679,3.612,3.612,0,0,0,.175-.413h-1.669q-20.111,0-40.223,0a3.974,3.974,0,0,0-4.244,4.232c0,1,0,1.991,0,2.987s0,1,1.024,1l16.322,0a6.892,6.892,0,0,1,.873.031,1.434,1.434,0,0,1-.028,2.859,7.615,7.615,0,0,1-.8.022H157.748v.947q0,26.518,0,53.037c0,1.148,0,1.149,1.116,1.149h34.279Zm2.419-29.554h.019c0,3.836.006,7.673-.006,11.509a8.633,8.633,0,0,1-.145,1.807,1.806,1.806,0,0,1-2.852,1.232,6.585,6.585,0,0,1-1.347-1.1c-1.382-1.433-2.716-2.912-4.1-4.345a2.054,2.054,0,0,0-3.573.543,3.015,3.015,0,0,0,.421,3.465c3.356,4.31,6.688,8.638,10.089,12.911a21.085,21.085,0,0,0,3,3.053,11.914,11.914,0,0,0,16.328-.578,16.305,16.305,0,0,0,4.744-8.995c.879-4.595.334-9.249.441-13.877a.393.393,0,0,0-.008-.072,1.721,1.721,0,0,0-1.815-1.539,1.626,1.626,0,0,0-1.688,1.568c-.076.795-.051,1.6-.056,2.4-.009,1.349-.478,2.03-1.427,2.049-.967.019-1.485-.7-1.49-2.072-.006-1.675.023-3.352-.039-5.025a1.76,1.76,0,1,0-3.514.195c-.018,1.772.005,3.545-.014,5.317a1.489,1.489,0,0,1-1.462,1.583,1.474,1.474,0,0,1-1.443-1.587c-.012-1.845,0-3.69,0-5.536,0-.874.032-1.751-.02-2.622a1.75,1.75,0,0,0-2.237-1.731c-.858.192-1.324.854-1.334,2-.018,2.015-.005,4.03-.007,6.046,0,.68.018,1.361-.015,2.039a1.424,1.424,0,0,1-1.331,1.39,1.452,1.452,0,0,1-1.514-1.195,4.554,4.554,0,0,1-.052-.869q0-9.834,0-19.667a8.874,8.874,0,0,0-.033-1.018,1.581,1.581,0,0,0-1.091-1.411,1.751,1.751,0,0,0-2.42,1.825C195.552,138.841,195.563,142.944,195.563,147.048Z" transform="translate(-150.108 -107.417)" fill="#78c4dd"></path></g><g id="Group_8069" data-name="Group 8069" transform="translate(13.27 19.248)"><path id="Path_3490" data-name="Path 3490" d="M224.006,206.325c.873,0,1.746-.012,2.619,0a2.818,2.818,0,0,1,2.981,2.893q.054,2.763,0,5.527a2.766,2.766,0,0,1-2.864,2.85c-1.842.036-3.686.032-5.528,0a2.8,2.8,0,0,1-2.908-2.953q-.02-2.691,0-5.382a2.824,2.824,0,0,1,2.937-2.936C222.162,206.31,223.084,206.325,224.006,206.325Zm-2.753,8.32h5.383v-5.363h-5.383Z" transform="translate(-218.293 -206.319)" fill="#78c4dd"></path></g><g id="Group_8070" data-name="Group 8070" transform="translate(13.285 35.984)"><path id="Path_3491" data-name="Path 3491" d="M230.954,292.321q5.458,0,10.915,0a1.5,1.5,0,0,1,1.673,1.353,1.477,1.477,0,0,1-1.265,1.533,5.349,5.349,0,0,1-.8.025H220.449c-.17,0-.34.005-.509,0a1.507,1.507,0,0,1-1.568-1.475,1.472,1.472,0,0,1,1.594-1.433Q225.46,292.312,230.954,292.321Z" transform="translate(-218.372 -292.319)" fill="#78c4dd"></path></g><g id="Group_8071" data-name="Group 8071" transform="translate(13.28 61.043)"><path id="Path_3492" data-name="Path 3492" d="M227.586,421.083c2.5,0,5,.007,7.5,0a1.528,1.528,0,0,1,1.551.864,1.448,1.448,0,0,1-1.412,2.048c-1.432.024-2.865.006-4.3.006-3.642,0-7.284.006-10.927,0a1.461,1.461,0,0,1-1.495-2.087,1.517,1.517,0,0,1,1.5-.826C222.535,421.089,225.06,421.084,227.586,421.083Z" transform="translate(-218.345 -421.079)" fill="#78c4dd"></path></g><g id="Group_8072" data-name="Group 8072" transform="translate(13.283 44.319)"><path id="Path_3493" data-name="Path 3493" d="M225.805,338.064c-1.917,0-3.834.006-5.75,0-1.019,0-1.667-.558-1.691-1.409a1.515,1.515,0,0,1,1.694-1.5q5.787-.014,11.574,0a1.464,1.464,0,1,1,0,2.906C229.688,338.071,227.747,338.064,225.805,338.064Z" transform="translate(-218.364 -335.147)" fill="#78c4dd"></path></g><g id="Group_8073" data-name="Group 8073" transform="translate(27.819 19.25)"><path id="Path_3494" data-name="Path 3494" d="M300.34,209.246c-1.866,0-3.733,0-5.6,0-1.079,0-1.7-.548-1.685-1.463a1.466,1.466,0,0,1,1.653-1.444q5.6-.016,11.2,0a1.521,1.521,0,0,1,1.707,1.485c-.014.87-.683,1.421-1.748,1.423C304.025,209.25,302.183,209.247,300.34,209.246Z" transform="translate(-293.056 -206.33)" fill="#78c4dd"></path></g><g id="Group_8074" data-name="Group 8074" transform="translate(13.268 52.688)"><path id="Path_3495" data-name="Path 3495" d="M225.038,378.16c1.673,0,3.346-.008,5.019,0,1.072.007,1.732.567,1.737,1.44s-.663,1.464-1.72,1.467c-3.37.009-6.74,0-10.111,0a1.509,1.509,0,0,1-1.531-.892,1.193,1.193,0,0,1,.236-1.474,2.423,2.423,0,0,1,1.352-.523C221.691,378.123,223.365,378.16,225.038,378.16Z" transform="translate(-218.285 -378.149)" fill="#78c4dd"></path></g><g id="Group_8075" data-name="Group 8075" transform="translate(27.797 27.62)"><path id="Path_3496" data-name="Path 3496" d="M299,252.252c-1.5,0-3,.005-4.506,0a1.417,1.417,0,0,1-1.459-.986,1.274,1.274,0,0,1,.4-1.513,1.934,1.934,0,0,1,1.054-.386q4.506-.046,9.012-.011a1.448,1.448,0,1,1,.007,2.89C302,252.272,300.5,252.252,299,252.252Z" transform="translate(-292.941 -249.34)" fill="#78c4dd"></path></g><g id="Group_8076" data-name="Group 8076" transform="translate(26.101 11.158)"><path id="Path_3497" data-name="Path 3497" d="M287.13,166.227a1.428,1.428,0,0,1-1.464,1.4,1.439,1.439,0,1,1,1.464-1.4Z" transform="translate(-284.224 -164.75)" fill="#78c4dd"></path></g></g><g id="Group_8078" data-name="Group 8078" transform="translate(178.856 135.308)"><path id="Path_3498" data-name="Path 3498" d="M299.189,300.327a1.362,1.362,0,0,1-.958-2.331l47.41-46.869a1.362,1.362,0,1,1,1.915,1.938l-47.41,46.869A1.358,1.358,0,0,1,299.189,300.327Z" transform="translate(-297.827 -250.734)" fill="#78c4dd"></path></g></g><rect id="Rectangle_3220" data-name="Rectangle 3220" width="225" height="122" transform="translate(986.4 746.828)" fill="none"></rect></g></svg>