<svg xmlns="http://www.w3.org/2000/svg" xmlns:xlink="http://www.w3.org/1999/xlink" width="97" height="97" viewBox="0 0 97 97"><defs><clipPath id="clip-path"><rect id="Rectangle_2860" data-name="Rectangle 2860" width="97" height="97" transform="translate(633 651)" fill="none" stroke="#707070" stroke-width="1"></rect></clipPath></defs><g id="Mask_Group_57" data-name="Mask Group 57" transform="translate(-633 -651)" clip-path="url(#clip-path)"><g id="Group_7408" data-name="Group 7408"><path id="Path_3432" data-name="Path 3432" d="M-.988-19.114H1.026v8.55h8.55V-8.55H1.026V0H-.988V-8.55h-8.55v-2.014h8.55Z" transform="translate(715.123 683.416)" fill="#5830c5"></path><g id="Group_7363" data-name="Group 7363" transform="translate(-380.941 -955.412)"><path id="Path_5" data-name="Path 5" d="M1084.5,1671.864h-44.882a6.289,6.289,0,0,1-6.282-6.281v-23.5a6.289,6.289,0,0,1,6.282-6.281H1084.5a6.288,6.288,0,0,1,6.282,6.281v23.5A6.288,6.288,0,0,1,1084.5,1671.864Zm-44.882-34.053a4.277,4.277,0,0,0-4.273,4.272v23.5a4.277,4.277,0,0,0,4.273,4.273H1084.5a4.277,4.277,0,0,0,4.273-4.273v-23.5a4.277,4.277,0,0,0-4.273-4.272Z" transform="translate(0 0)" fill="#5830c5"></path><path id="Path_6" data-name="Path 6" d="M1085.218,1666.689h-46.359v-24.976h46.359Zm-44.35-2.009h42.34v-20.958h-42.34Z" transform="translate(0.025 0.027)" fill="#5830c5"></path><path id="Path_7" data-name="Path 7" d="M1074.4,1690.633h-24.785a4.854,4.854,0,0,1-4.848-4.848v-2.61a4.854,4.854,0,0,1,4.848-4.847H1074.4a4.853,4.853,0,0,1,4.848,4.847v2.61A4.854,4.854,0,0,1,1074.4,1690.633Zm-24.785-10.3a2.842,2.842,0,0,0-2.839,2.838v2.61a2.843,2.843,0,0,0,2.839,2.839H1074.4a2.842,2.842,0,0,0,2.838-2.839v-2.61a2.841,2.841,0,0,0-2.838-2.838Z" transform="translate(0.052 0.195)" fill="#5830c5"></path><g id="Group_2" data-name="Group 2" transform="translate(1049.576 1670.86)"><rect id="Rectangle_3" data-name="Rectangle 3" width="2.009" height="8.668" fill="#5830c5"></rect><rect id="Rectangle_4" data-name="Rectangle 4" width="2.009" height="8.668" transform="translate(22.966)" fill="#5830c5"></rect></g></g></g></g></svg>