<svg xmlns="http://www.w3.org/2000/svg" id="Layer_1" data-name="Layer 1" viewBox="0 0 200 200"><defs><style>.cls-1{fill:#6024c6;}.cls-2{fill:#fff;}</style></defs><circle class="cls-1" cx="100" cy="100" r="89.33"></circle><g id="v4ZMul"><path class="cls-2" d="M69.65,160.75a11.62,11.62,0,0,1-4.49-3.23c-6.59-6.63-13.22-13.23-19.82-19.84-2.94-2.94-2.94-6.21,0-9.15,1.92-1.93,3.85-3.84,5.76-5.78a5.91,5.91,0,0,1,6.73-1.52,1.66,1.66,0,0,0,1.36-.31c4.09-3.36,8.23-6.65,12.17-10.17,6.15-5.51,13.3-6.69,21.11-5.27,1.88.34,3.67,1.06,5.54,1.47a30.71,30.71,0,0,0,5.51.89c4.45.12,8.89.1,13.34,0a11.09,11.09,0,0,1,9.51,4.35l1.13-1c4.33-3.94,8.62-7.94,13-11.81a11,11,0,0,1,13.06-1c3.89,2.39,4.39,6.4,1.17,9.62-7,7-14.13,13.94-21,21.09a24.86,24.86,0,0,1-12.4,7,91,91,0,0,1-24.29,2.21,40.44,40.44,0,0,0-6.42.08,14.13,14.13,0,0,0-9.15,5.45,22.7,22.7,0,0,1,1.5,3.51,5.26,5.26,0,0,1-1.58,5.14c-2.14,2.19-4.26,4.41-6.52,6.48a15.34,15.34,0,0,1-3.16,1.75Zm9.24-19.38c.48-.54,1-1.22,1.66-1.83a15.88,15.88,0,0,1,8.6-4.56,46.82,46.82,0,0,1,7.77-.32,93.55,93.55,0,0,0,22.28-1.77c3.68-.81,7.32-1.85,10.1-4.61q11.55-11.44,23-23c1.27-1.27,1.13-2.5-.36-3.53a7.48,7.48,0,0,0-9.33.67c-4.66,4.21-9.29,8.47-14,12.69a1.38,1.38,0,0,0-.47,1.48c.83,4.59-1.74,7.63-6.4,7.63H90.53c-.34,0-.69,0-1,0a1.7,1.7,0,0,1-1.65-1.62,1.67,1.67,0,0,1,1.3-1.91,5.59,5.59,0,0,1,1.48-.13h31.5c1.88,0,2.64-.83,2.51-2.71a6.79,6.79,0,0,0-6.86-6.25q-7-.06-14,0a25.72,25.72,0,0,1-7.33-1.19,42.69,42.69,0,0,0-7.94-1.68c-4.9-.43-9.54.55-13.45,3.82q-6.5,5.4-13,10.83c-.25.21-.47.45-.81.78ZM55.53,124.23a8.88,8.88,0,0,0-1.64,1c-2.12,2-4.2,4.14-6.27,6.24a2.1,2.1,0,0,0,0,3.33Q58.4,145.54,69.18,156.3a2.06,2.06,0,0,0,3.23,0q3.16-3.09,6.26-6.25a2.11,2.11,0,0,0,0-3.33Q67.95,136,57.2,125.27A8.84,8.84,0,0,0,55.53,124.23Z"></path><path class="cls-2" d="M124.74,96.08a28,28,0,0,1-3-1c-1.49-.7-2.94-1.48-4.37-2.3a3.35,3.35,0,0,0-3.67,0c-1.43.83-2.9,1.56-4.37,2.31a6.11,6.11,0,0,1-6.73-.41,6,6,0,0,1-2.61-6.1c.24-1.71.53-3.41.87-5.09a3.52,3.52,0,0,0-1.16-3.62c-1.26-1.11-2.45-2.31-3.63-3.51a6.38,6.38,0,0,1,3.77-10.86c1.67-.23,3.33-.5,5-.72a3.25,3.25,0,0,0,2.71-2c.72-1.56,1.5-3.1,2.28-4.63a6.37,6.37,0,0,1,11.45,0c.79,1.53,1.58,3.06,2.28,4.63a3.32,3.32,0,0,0,2.91,2.08c1.67.2,3.34.44,5,.72a6.11,6.11,0,0,1,5.16,4.34,6.05,6.05,0,0,1-1.55,6.46c-1.27,1.32-2.6,2.59-3.93,3.86a3,3,0,0,0-.93,2.91c.33,1.81.63,3.62.92,5.44A6.6,6.6,0,0,1,124.74,96.08ZM103.6,89.14a2.69,2.69,0,0,0,3.87,2.78c1.55-.74,3.07-1.56,4.57-2.4a6.71,6.71,0,0,1,7,0c1.5.83,3,1.62,4.57,2.41a2.51,2.51,0,0,0,2.81-.2A2.64,2.64,0,0,0,127.49,89c-.3-1.73-.55-3.48-.88-5.21a6.49,6.49,0,0,1,2-6.25c1.24-1.2,2.48-2.4,3.7-3.61a2.7,2.7,0,0,0-1.51-4.73c-1.82-.26-3.64-.55-5.45-.82a6.33,6.33,0,0,1-5-3.67c-.72-1.44-1.46-2.87-2.13-4.32-.55-1.2-1.3-2.12-2.71-2.13s-2.18.87-2.74,2.08c-.71,1.53-1.47,3-2.24,4.52a6.26,6.26,0,0,1-4.82,3.51c-1.81.28-3.62.57-5.44.82A2.62,2.62,0,0,0,98,71.05,2.69,2.69,0,0,0,98.82,74c1.26,1.18,2.46,2.42,3.71,3.61a6.61,6.61,0,0,1,2,6.39C104.16,85.76,103.87,87.58,103.6,89.14Z"></path><path class="cls-2" d="M139.31,63.45c-.51-.53-1.26-1-1.43-1.56a2.21,2.21,0,0,1,.57-1.88,8.08,8.08,0,0,1,2.85-1.62,2.1,2.1,0,0,1,1.87.54,2.07,2.07,0,0,1,.24,1.93C142.54,62.23,141,62.67,139.31,63.45Z"></path><path class="cls-2" d="M129.66,53.06a1.82,1.82,0,0,1-2-2.34,14.94,14.94,0,0,1,1.79-3.06,1.56,1.56,0,0,1,2.09-.33,1.51,1.51,0,0,1,.92,1.89,20.82,20.82,0,0,1-1.91,3.37C130.39,52.88,129.87,53,129.66,53.06Z"></path><path class="cls-2" d="M113.76,46.16a14.79,14.79,0,0,1,0-1.49,1.65,1.65,0,0,1,1.64-1.61,1.57,1.57,0,0,1,1.86,1.34,15.43,15.43,0,0,1,0,3.53,1.56,1.56,0,0,1-1.81,1.39,1.66,1.66,0,0,1-1.71-1.67c0-.49,0-1,0-1.49Z"></path><path class="cls-2" d="M93.35,61c0,1.68-1.26,2.61-2.5,2a16.46,16.46,0,0,1-2.67-1.53,1.67,1.67,0,0,1-.52-2.32A1.74,1.74,0,0,1,90,58.41a16.29,16.29,0,0,1,2.56,1.49A3.5,3.5,0,0,1,93.35,61Z"></path><path class="cls-2" d="M86.55,77.05a14.79,14.79,0,0,1-1.49,0,1.7,1.7,0,0,1-1.67-1.72,1.64,1.64,0,0,1,1.49-1.87,14.88,14.88,0,0,1,3.2,0,1.71,1.71,0,0,1,1.56,1.93,1.73,1.73,0,0,1-1.72,1.68C87.47,77.09,87,77.05,86.55,77.05Z"></path><path class="cls-2" d="M144.59,77.05c-.46,0-.93,0-1.38,0a1.8,1.8,0,0,1-1.77-1.77A1.71,1.71,0,0,1,143,73.45a14.36,14.36,0,0,1,3.21,0,1.71,1.71,0,0,1,1.54,1.85A1.8,1.8,0,0,1,146,77.05C145.51,77.08,145,77.06,144.59,77.05Z"></path><path class="cls-2" d="M103.86,51.2c-.55.69-.85,1.4-1.34,1.59s-1.59.2-1.86-.15a13.28,13.28,0,0,1-2-3.53c-.16-.41.35-1.34.81-1.66a1.84,1.84,0,0,1,1.76,0A38.16,38.16,0,0,1,103.86,51.2Z"></path></g></svg>