<svg xmlns="http://www.w3.org/2000/svg" id="Layer_1" data-name="Layer 1" viewBox="0 0 200 200"><defs><style>.cls-1{fill:#6124ca;}.cls-2{fill:#fff;}</style></defs><rect class="cls-1" x="17.3" y="17.3" width="165.39" height="165.39" rx="21.84"></rect><g id="xHxled"><path class="cls-2" d="M48.62,104.23V97.38c.07-.38.15-.77.2-1.15.26-1.87.4-3.76.77-5.61a53.87,53.87,0,0,1,22.88-35,52.92,52.92,0,0,1,40-8.9,53.11,53.11,0,0,1,34.58,20.89,53.29,53.29,0,0,1,10.74,40.58,53,53,0,0,1-13.37,29A54,54,0,0,1,113,154.79c-2,.36-4.08.57-6.12.85H100c-1.34-.16-2.68-.31-4-.5a55.09,55.09,0,0,1-46.55-44.78C49.11,108.33,48.91,106.27,48.62,104.23Zm54.85,44.56a48,48,0,1,0-48-48A48.08,48.08,0,0,0,103.47,148.79Z"></path><path class="cls-2" d="M100,66.55h6.86V67.8q0,15.3,0,30.62a2.15,2.15,0,0,0,.7,1.67q9,9,18,17.93a9.43,9.43,0,0,0,.81.68l-4.89,4.88c-.08-.07-.32-.27-.53-.48q-10.11-10.11-20.2-20.23a2.29,2.29,0,0,1-.66-1.45c0-11.35,0-22.7,0-34Z"></path></g></svg>