<svg xmlns="http://www.w3.org/2000/svg" id="Layer_1" data-name="Layer 1" viewBox="0 0 200 200"><defs><style>.cls-1{fill:#6124ca;}.cls-2{fill:#fff;}</style></defs><rect class="cls-1" x="17.3" y="17.3" width="165.39" height="165.39" rx="21.84"></rect><g id="LSa4O6"><path class="cls-2" d="M97.18,107.41H57.24c-2.86,0-4.12-1.28-4.08-4.14a47.46,47.46,0,0,1,38-45.74c25.53-5.26,51,11.69,55.91,37.24A47.37,47.37,0,0,1,110,150.47a64.76,64.76,0,0,1-9,.95c-2.35.15-3.77-1.34-3.77-3.69V107.41ZM104,144.59c18.77-1.24,36.73-17.31,37.05-39.71A40.49,40.49,0,0,0,99.82,63.56C77.37,63.9,61.24,81.84,60,100.64H99.89c2.8,0,4.06,1.26,4.06,4.06v39.89Z"></path><path class="cls-2" d="M72.68,114.19H86.43a3.4,3.4,0,0,1,3.76,3.71q0,13.86,0,27.71A3.35,3.35,0,0,1,85.47,149q-22.18-7.83-30-30c-.94-2.65.61-4.77,3.41-4.78Zm10.88,26.73V121H63.68A40.86,40.86,0,0,0,83.56,140.92Z"></path></g></svg>