<svg xmlns="http://www.w3.org/2000/svg" id="Layer_1" data-name="Layer 1" viewBox="0 0 200 200"><defs><style>.cls-1{fill:#6124ca;}.cls-2{fill:#fff;}</style></defs><rect class="cls-1" x="17.3" y="17.3" width="165.39" height="165.39" rx="21.84"></rect><path class="cls-2" d="M140,49.12l-1-.35H57.52l-.62.13c-3.6,1-5.34,3.32-5.34,7v48c0,4.31,2.77,7.11,7,7.12h9.83v7c0,3.3,0,6.59,0,9.89,0,7.83,3.38,13.43,10.22,17.12a2.79,2.79,0,0,1,1.3,2.25c0,2.58,0,5.16,0,7.73v3.37c0,1.78.81,2.57,2.6,2.57h30.9c1.83,0,2.61-.77,2.61-2.57v-.91c0-3.35,0-6.69,0-10a2.56,2.56,0,0,1,1.51-2.53c6.26-3.38,9.61-8.51,10-15.26.18-3.68.15-7.43.13-11.06v-.5c0-1.5,0-3,0-4.51v-2.6H135c1,0,2,0,3,0a6.56,6.56,0,0,0,6.6-6.44q.06-24.69,0-49.37A6.51,6.51,0,0,0,140,49.12Zm-12.46,45a11.05,11.05,0,0,0-22,0c-.13,2.25-.12,4.56-.11,6.78,0,1,0,2.09,0,3.13v2.71H59.13c-2.51,0-3.28-.76-3.28-3.25V67.28h84.42v36.34c0,2.34-.81,3.13-3.17,3.14h-9.32l-.07-1.66c0-.33,0-.63,0-.94,0-1.07,0-2.15,0-3.22C127.68,98.71,127.69,96.4,127.56,94.15Zm-15.83,52.19v10.38H84.38V146.34ZM83.52,142A6.18,6.18,0,0,1,81,141.4a13.45,13.45,0,0,1-8.18-12.34c-.11-3.76-.08-7.58-.06-11.42,0-1.58,0-3.16,0-4.74a3.05,3.05,0,0,1,.08-.66L73,111.1H101.5L100,113.3c-.14.2-.26.38-.4.55a20.33,20.33,0,0,0-4.79,13.57,2.12,2.12,0,0,0,2.11,2.28A2.17,2.17,0,0,0,99,127.5l.08-1a18.21,18.21,0,0,1,.35-2.9,16.18,16.18,0,0,1,8.57-11.2,2.71,2.71,0,0,0,1.68-2.76q-.06-7.12,0-14.24a6.89,6.89,0,0,1,5.65-7,6.77,6.77,0,0,1,7.87,5.5,10.16,10.16,0,0,1,.14,1.75v7.28q0,12.7,0,25.42A13.76,13.76,0,0,1,115,141.48a5.61,5.61,0,0,1-2.34.49Q98.08,142,83.52,142Zm53.39-88.91c2.67,0,3.36.69,3.36,3.38v6.4H55.85V60c0-1.56,0-3.1.06-4.63.06-1,1.08-1.72,1.64-2.08a1.74,1.74,0,0,1,1-.28l.65,0Z"></path><path class="cls-2" d="M84.56,77.74H68.34c-1.86,0-2.65.81-2.66,2.67v13c0,2,.75,2.79,2.75,2.8h16.1c1.89,0,2.66-.78,2.66-2.66q0-6.56,0-13.1C87.19,78.55,86.4,77.75,84.56,77.74Zm-1.71,4.38v9.69H70V82.12Z"></path></svg>