<svg xmlns="http://www.w3.org/2000/svg" id="Layer_1" data-name="Layer 1" viewBox="0 0 200 200"><defs><style>.cls-1{fill:#6124ca;}.cls-2{fill:#fff;}</style></defs><rect class="cls-1" x="17.3" y="17.3" width="165.39" height="165.39" rx="21.84"></rect><g id="r0GxYI"><path class="cls-2" d="M64.14,133.21c.75-4.51,1.61-10.21,2.69-15.86a4.1,4.1,0,0,0-1.47-4.28c-3.48-3.22-6.81-6.59-10.21-9.88C50.83,99,49.33,94,51.24,88.27s6.24-8.68,12.18-9.44c4.59-.6,9.16-1.38,13.75-1.94a4.43,4.43,0,0,0,3.85-3c2-4.31,4.12-8.52,6.23-12.75C89.87,55.94,94.08,53,100,53s10.11,3,12.71,8.26c2.09,4.24,4.33,8.42,6.24,12.74a4.61,4.61,0,0,0,4.17,3c4.49.56,9,1.3,13.44,1.88,5.95.76,10.25,3.75,12.2,9.46,2,5.88.24,10.91-4.16,15.13-3.5,3.36-7,6.69-10.34,10.2a4.79,4.79,0,0,0-1.11,3.46c.68,5,1.65,9.94,2.5,14.91.94,5.57-.75,10.25-5.22,13.66a13.19,13.19,0,0,1-14.81,1.3c-4.59-2.32-9.07-4.85-13.71-7.06a5,5,0,0,0-3.85,0c-4.64,2.21-9.08,4.82-13.71,7C74.58,151.61,64,145,64.14,133.21Zm9.31.2c-.18,4.82,3.13,7,7,5.11,5.25-2.6,10.46-5.29,15.55-8.2a7.36,7.36,0,0,1,8.07.05c4.92,2.78,10,5.29,15,7.95,2,1.05,3.88,1.42,5.76-.06s2-3.38,1.6-5.57c-1-5.76-1.86-11.58-3-17.32a6.28,6.28,0,0,1,2.11-6.33c4.31-4.12,8.7-8.19,12.75-12.56,1.13-1.22,2-3.68,1.53-5.1s-2.61-2.87-4.25-3.21a159.68,159.68,0,0,0-16.15-2.44c-3.63-.38-6-1.72-7.56-5.22a149.77,149.77,0,0,0-7.28-14.63,8.08,8.08,0,0,0-4.48-3.53c-2.4-.62-3.8,1.43-4.81,3.49-2.47,5.09-5.12,10.09-7.44,15.24a7.23,7.23,0,0,1-6.36,4.54c-5.61.7-11.19,1.66-16.79,2.4-2.23.29-4,1.06-4.7,3.32s.3,4,1.9,5.48c4,3.85,7.84,7.9,12,11.59,2.67,2.38,3.18,4.94,2.5,8.28C75.19,122.42,74.34,128.23,73.45,133.41Z"></path></g></svg>