<svg xmlns="http://www.w3.org/2000/svg" id="Layer_1" data-name="Layer 1" viewBox="0 0 200 200"><defs><style>.cls-1{fill:#6124ca;}.cls-2{fill:#fff;}</style></defs><rect class="cls-1" x="17.3" y="17.3" width="165.39" height="165.39" rx="21.84"></rect><g id="heO7fs"><path class="cls-2" d="M99.9,157c-11.08,0-22.16,0-33.24,0-7.48,0-13.2-4.67-14.48-11.78a19.57,19.57,0,0,1-.2-3.43q0-20.6,0-41.19a3.51,3.51,0,0,0-1-2.69c-3.91-4-5-9-4.64-14.39A8.58,8.58,0,0,1,47,81.36q3.95-11,7.9-22a14.07,14.07,0,0,1,13.95-9.77q31.19,0,62.37,0c6.71,0,11.73,3.58,14,9.89,2.51,7,5,14,7.5,20.91a16.81,16.81,0,0,1-1,13.69,38.77,38.77,0,0,1-2.88,4.09,4.17,4.17,0,0,0-.81,2.07c-.05,14,0,28.08-.05,42.12,0,6.5-3.48,11.74-9.27,13.72a18.35,18.35,0,0,1-5.7.89C122,157,110.93,157,99.9,157Zm19.88-5.78c.36,0,.49.08.62.08,4.37,0,8.74,0,13.11,0,5.32,0,8.84-3.59,8.85-8.93q0-19.41,0-38.82c0-.37-.05-.74-.08-1.22-3.8,1.35-7.63.94-11.4.93a16.57,16.57,0,0,1-10.81-4c-1.18-1-2.44-1.88-3.66-2.81.17-.2-.1.14-.37.47A15.93,15.93,0,0,1,105.29,103a70.06,70.06,0,0,1-8.33.24,16.69,16.69,0,0,1-10.8-4c-1.18-1-2.44-1.88-3.66-2.81.31-.36.16-.2,0,0a16,16,0,0,1-11.42,6.71c-4.47.44-9,.6-13.52-.71v1.39q0,19.28,0,38.55c0,5.42,3.51,9,8.92,9,4.15,0,8.3,0,12.45,0,.38,0,.75-.05,1.21-.09V149.5q0-11.38,0-22.78c0-5.82,3.51-9.34,9.31-9.34h20.92c5.88,0,9.36,3.5,9.37,9.41V151.2Zm-5.76,0c0-.45.06-.91.06-1.38q0-11.58,0-23.17c0-2.74-.88-3.61-3.67-3.61H89.49c-2.75,0-3.61.89-3.61,3.67q0,11.52,0,23v1.45ZM85.26,55.32c-.56,0-.94-.07-1.33-.07H68.84a8.41,8.41,0,0,0-8.55,6q-3.32,9-6.61,18c-.15.43-.26.88-.42,1.4H80.68C82.21,72.2,83.73,63.81,85.26,55.32Zm29.42-.07,4.58,25.31h27.47c-2.57-7-4.95-13.84-7.64-20.57-1.2-3-3.82-4.55-7.1-4.71-1.76-.09-3.53,0-5.29,0ZM86.43,80.57h27.09c-1.53-8.49-3-16.85-4.57-25.24H91C89.48,63.76,88,72.12,86.43,80.57ZM52.1,86.38a10.49,10.49,0,0,0,8.13,10.7,36.62,36.62,0,0,0,10,.35c4.81-.4,8-3.3,9.47-7.86a19.82,19.82,0,0,0,.56-3.19Zm33.86,0a10.84,10.84,0,0,0,8,10.72,25.1,25.1,0,0,0,12.06,0c4.84-1.19,8.45-6.25,8-10.74Zm33.91,0c-.2,4.84,3.23,9.74,8.09,10.7,3.24.64,6.65.39,10,.41a8,8,0,0,0,2.82-.64c4.38-1.64,7.54-6.32,7.07-10.47Z"></path></g></svg>