<svg xmlns="http://www.w3.org/2000/svg" id="Layer_1" data-name="Layer 1" viewBox="0 0 200 200"><defs><style>.cls-1{fill:#6124ca;}.cls-2{fill:#fff;}</style></defs><rect class="cls-1" x="17.3" y="17.3" width="165.39" height="165.39" rx="21.84"></rect><g id="KoIaKS"><path class="cls-2" d="M134.9,47.64a27.67,27.67,0,0,1,4.64,2,9.42,9.42,0,0,1,4.08,7.71c0,.3,0,.6,0,.9v93.24c0,4.55-1.95,7.91-6.14,9.76a10.16,10.16,0,0,1-4,.83q-33.48.08-67,0A10,10,0,0,1,56.38,152q0-47.07,0-94.14a10,10,0,0,1,8.09-10,4.61,4.61,0,0,0,.63-.2Zm2,57.34V58.36c0-2.76-1.27-4-4-4H67.12c-2.77,0-4,1.25-4,4v93c0,2.83,1.24,4.06,4.09,4.06h65.64c2.85,0,4.1-1.23,4.1-4.07Z"></path><path class="cls-2" d="M110,142.11v6.58H90v-6.58Z"></path></g></svg>