<svg xmlns="http://www.w3.org/2000/svg" id="Layer_1" data-name="Layer 1" viewBox="0 0 200 200"><defs><style>.cls-1{fill:#6124ca;}.cls-2{fill:#fff;}</style></defs><rect class="cls-1" x="17.3" y="17.3" width="165.39" height="165.39" rx="21.84"></rect><g id="_7BGzkN" data-name="7BGzkN"><path class="cls-2" d="M59.94,61.81c.17-.58.32-1.17.51-1.75a10.44,10.44,0,0,1,10.18-7.24h49.58a10.13,10.13,0,0,1,1.56.09,10.44,10.44,0,0,1,9.12,10.74c0,8.76,0,17.53,0,26.3,0,4.72,0,9.45,0,14.18a6.79,6.79,0,0,1-.13,1.35,2,2,0,0,1-3.92,0,7.27,7.27,0,0,1-.14-1.55q0-20,0-40.09c0-2.79-1-5-3.56-6.2a7.78,7.78,0,0,0-3.2-.67q-24.56-.06-49.1,0c-4.1,0-6.73,2.63-6.74,6.74q0,33.73,0,67.46c0,.26,0,.51.06.89h42.75a7.81,7.81,0,0,1,1.45.12,2,2,0,0,1,0,4,7.81,7.81,0,0,1-1.45.12H64.27a61.89,61.89,0,0,0,.06,7.6c.39,3,3.2,4.91,6.7,4.91h31.69c.36,0,.72,0,1.07,0a2,2,0,0,1,1.95,1.6,2,2,0,0,1-1.15,2.33c-.15.08-.3.14-.44.2H68.94c-.21-.06-.41-.15-.62-.2a10.48,10.48,0,0,1-7.87-7.05c-.2-.57-.34-1.16-.51-1.74Z"></path><path class="cls-2" d="M111.58,152.94a2.67,2.67,0,0,1-1.53-3.13,10.5,10.5,0,0,1,10.51-9.38c1,0,2,0,3.16,0l-.82-.87q-7.4-7.4-14.79-14.79a6.51,6.51,0,1,1,9-9.34c1.18,1.12,2.29,2.31,3.53,3.56a6.76,6.76,0,0,1,6.81-3.79c2.13-4.6,4.29-5.85,8.61-5a15.56,15.56,0,0,1,.81-1.5c2.3-3.36,6.7-4.09,9.68-1.3a78.89,78.89,0,0,1,9,9.43c8.48,11.08,4.35,27.61-8.19,33.69a23.07,23.07,0,0,1-7.35,2.21,6.14,6.14,0,0,0-.74.18Zm3-4.21c.4,0,.62.05.84.05,7.23,0,14.47,0,21.7,0a21.54,21.54,0,0,0,3.3-.3c13.46-2.1,20.15-18.3,11.88-29.11-2.43-3.19-5.51-5.89-8.37-8.73A2.69,2.69,0,0,0,142,110a2.33,2.33,0,0,0-1.3,3.92,2,2,0,0,1-.16,3c-.92.75-2,.62-3.05-.38-.56-.55-1.09-1.13-1.66-1.66a2.34,2.34,0,1,0-3.28,3.32c.55.59,1.16,1.14,1.72,1.74a2.1,2.1,0,0,1,.15,3.13,2.14,2.14,0,0,1-3.13-.22c-.91-.88-1.78-1.81-2.7-2.69a2.35,2.35,0,1,0-3.27,3.34c1.49,1.51,3,3,4.49,4.5a4.93,4.93,0,0,1,.74.9,2.06,2.06,0,0,1-.3,2.51,2,2,0,0,1-2.51.26,5.78,5.78,0,0,1-1-.82l-12.11-12.09a5.78,5.78,0,0,0-1.12-.92,2.24,2.24,0,0,0-3.4,1.95,3.94,3.94,0,0,0,1.14,2.16q9.24,9.35,18.58,18.6a2.33,2.33,0,0,1,.84,2.69,2.29,2.29,0,0,1-2.5,1.29c-2.35,0-4.7,0-7,0a10.16,10.16,0,0,0-1.75.13A6.12,6.12,0,0,0,114.59,148.73Z"></path><path class="cls-2" d="M95.41,144.58c-1.31,0-2.61,0-3.91,0a2.09,2.09,0,1,1,0-4.15c2.57,0,5.15,0,7.72,0a2.11,2.11,0,0,1,2.36,2.06c0,1.25-.86,2-2.31,2.09H95.41Z"></path><path class="cls-2" d="M68.32,63.28a2,2,0,0,1,2-2.08,2.08,2.08,0,0,1,2.13,2,2.15,2.15,0,0,1-2,2.07A2.1,2.1,0,0,1,68.32,63.28Z"></path></g></svg>