<svg xmlns="http://www.w3.org/2000/svg" id="Layer_1" data-name="Layer 1" viewBox="0 0 200 200"><defs><style>.cls-1{fill:#6124ca;}.cls-2{fill:#fff;}</style></defs><rect class="cls-1" x="17.3" y="17.3" width="165.39" height="165.39" rx="21.84"></rect><g id="_95Z0BO" data-name="95Z0BO"><path class="cls-2" d="M101.49,164.24c-1.81-1.48-3.59-3-5.44-4.41a3,3,0,0,0-1.68-.62c-4.89-.05-9.77,0-14.65,0-6.63,0-11.75-4.25-12.89-10.6a15.82,15.82,0,0,1-.17-2.84q0-45,0-90C66.65,47.64,72,42.3,80.1,42.3h44.65A12.62,12.62,0,0,1,137.58,53a17.52,17.52,0,0,1,.17,3.08q0,34.23,0,68.46V126c.73.14,1.36.22,2,.37a7.36,7.36,0,0,1,5.6,6.89c.07,9.44,0,18.89,0,28.33a3.06,3.06,0,0,1-1.73,2.62h-1.43a3.15,3.15,0,0,1-1.92-3.33c0-8.81,0-17.62,0-26.44,0-2-.92-3.22-2.5-3.26s-2.56,1.18-2.56,3.3c0,1.35,0,2.7,0,4A2.64,2.64,0,0,1,134,141c-1.77,1.08-3.82-.13-3.87-2.37-.06-2.46,0-4.92,0-7.38a2.44,2.44,0,0,0-2.92-2.49,2.51,2.51,0,0,0-2.11,2.63c0,2.5,0,5,0,7.5a2.51,2.51,0,0,1-5,0c0-.91,0-1.83,0-2.74,0-2.46,0-4.93,0-7.38a2.53,2.53,0,0,0-2.53-2.63,2.57,2.57,0,0,0-2.56,2.59c0,.4,0,.8,0,1.2,0,3,0,5.95,0,8.93a2.46,2.46,0,0,1-2.24,2.5,2.56,2.56,0,0,1-2.73-2,7,7,0,0,1-.06-1.3q0-13.11,0-26.2c0-2.33-.91-3.56-2.59-3.52s-2.47,1.22-2.47,3.51q0,15.78,0,31.56c0,2.59-1.53,3.67-4,2.82L91.35,143c-1.52-.53-2.6-.22-3.21.87s-.31,2.16.92,3.22q7.09,6.09,14.18,12.19c2.14,1.84,2,3.52-.32,5Zm3.27-81.35c13.71,3,20.38,11.47,20.43,25.35a7.39,7.39,0,0,1,1.33.6,2.37,2.37,0,0,1,1,2.72,2.54,2.54,0,0,1-2.7,1.88c-2.86,0-5.72,0-8.57,0-.42,0-.84,0-1.24.07v7.77c.16,0,.24.08.31.06a7.77,7.77,0,0,1,8.3,2.78c.16.19.77.18,1.09.06a7.31,7.31,0,0,1,5.57-.1,25.87,25.87,0,0,1,2.44,1.26V55.63c0-.36,0-.72,0-1.07a7.41,7.41,0,0,0-4.85-6.63c-2.51-1-5.14-.47-7.82-.54v2c0,4.91-3.25,8.09-8.17,8.1H92.43a7.64,7.64,0,0,1-8-8c0-.7,0-1.4,0-2.19H79.7a7.65,7.65,0,0,0-8,8v90.72a7.57,7.57,0,0,0,7.93,7.94c2.86,0,5.72,0,8.58,0,.29,0,.59-.05,1.13-.09-1.46-1.25-2.75-2.34-4-3.46a7.37,7.37,0,0,1,7.17-12.61c2.07.69,4.12,1.43,6.18,2.13a8.07,8.07,0,0,0,.88.21V113.45H80c-1.85,0-2.93-.8-3.13-2.26s.6-2.3,2.28-2.86c.07,0,.12-.09.24-.19,0-.9,0-1.86,0-2.81A22.91,22.91,0,0,1,97.15,83.52c.77-.17,1.85-.07,2.23-.55s.21-1.56.26-2.38a2.56,2.56,0,1,1,5.11,0C104.79,81.4,104.76,82.19,104.76,82.89ZM120,108.33c.43-7.62-2-13.74-8.54-17.67S98.35,87,92.14,91.2c-6,4-8.15,10-7.69,17a1.42,1.42,0,0,0,.41.13c4.88,0,9.76,0,14.64,0a1.21,1.21,0,0,0,.86-.59,7.63,7.63,0,0,1,13.85,0,1.12,1.12,0,0,0,.75.57C116.58,108.35,118.2,108.33,120,108.33ZM89.52,47.43V49c0,2.69.78,3.47,3.48,3.47h11.43c2.54,0,5.08,0,7.61,0,1.5,0,2.59-.75,2.75-2a24.22,24.22,0,0,0,0-3.08Z"></path></g></svg>