<svg xmlns="http://www.w3.org/2000/svg" id="Layer_1" data-name="Layer 1" viewBox="0 0 200 200"><defs><style>.cls-1{fill:#6124ca;}.cls-2{fill:#fff;}</style></defs><rect class="cls-1" x="17.3" y="17.3" width="165.39" height="165.39" rx="21.84"></rect><g id="sefGSh"><path class="cls-2" d="M150.39,65.77c-.71,2.82-1.43,5.64-2.13,8.46-1.48,6-2.73,12.16-4.48,18.12s-6,9.05-12,9.73c-11.39,1.3-22.8,2.43-34.2,3.62-5.78.6-11.55,1.24-17.33,1.74a2.51,2.51,0,0,0-2.37,1.91A6.93,6.93,0,0,0,80.2,118a7.11,7.11,0,0,0,4.27,1.09h47.35a9.66,9.66,0,0,1,1.7.13,2.4,2.4,0,0,1,2,2.34,2.43,2.43,0,0,1-1.81,2.47,6.09,6.09,0,0,1-1.48.13H84.3a11.9,11.9,0,0,1-11.07-17,5.89,5.89,0,0,0,.23-4.64C68.34,87.34,63.32,72.1,58.27,56.88c-1.15-3.48-3.35-5.07-7-5.08-2.46,0-4.92,0-7.37,0-2.15,0-3.35-1.5-2.8-3.29A2.08,2.08,0,0,1,43,46.83c3.84,0,7.73-.26,11.5.31,4.29.64,7.05,3.61,8.5,7.71.65,1.85,1.28,3.7,1.82,5.58a1.35,1.35,0,0,0,1.53,1.16q20,.24,40,.55l40.83.57a3.52,3.52,0,0,1,3.27,1.78Zm-83.49.88c.07.32.09.49.14.66q5.67,17.18,11.32,34.35c.21.65.54.77,1.16.7,4.07-.44,8.15-.85,12.22-1.27L131.06,97c4.45-.46,7.17-2.8,8.23-7.12q2.13-8.7,4.24-17.42c.38-1.53.73-3.07,1.11-4.69Z"></path><path class="cls-2" d="M75.84,153.23a11.43,11.43,0,0,1,0-22.85,11.43,11.43,0,1,1,0,22.85Zm0-5.09a6.33,6.33,0,1,0-6.31-6.3A6.34,6.34,0,0,0,75.84,148.14Z"></path><path class="cls-2" d="M135.51,141.86a11.41,11.41,0,1,1-11.38-11.48A11.41,11.41,0,0,1,135.51,141.86ZM124,148.13a6.33,6.33,0,1,0-6.22-6.41A6.36,6.36,0,0,0,124,148.13Z"></path></g></svg>