<svg xmlns="http://www.w3.org/2000/svg" id="Layer_1" data-name="Layer 1" viewBox="0 0 200 200"><defs><style>.cls-1{fill:#6124ca;}.cls-2{fill:#fff;}</style></defs><rect class="cls-1" x="17.3" y="17.3" width="165.39" height="165.39" rx="21.84"></rect><g id="lBwHoI"><path class="cls-2" d="M151.14,130a38.5,38.5,0,0,1-1.88,6.27c-3.4,7-9.14,10.5-16.9,10.53-14.44.06-28.89,0-43.34,0H67.29c-5.84,0-10.8-2.07-14.45-6.68-4.62-5.84-5.7-12.4-2.43-19.13,2.73-5.62,6.1-10.93,9.23-16.36Q71.7,83.76,83.79,62.85a18.46,18.46,0,0,1,13-9.43c6.59-1.29,14.38,1.72,17.91,7.43,3.8,6.11,7.32,12.4,10.93,18.63,7.41,12.81,14.78,25.65,22.22,38.44a24.53,24.53,0,0,1,3.32,9.11Zm-51.43,8.55h32.42a10.41,10.41,0,0,0,7.05-2.34,10,10,0,0,0,2.1-13.11q-12.65-21.9-25.3-43.81c-2.62-4.53-5.14-9.11-7.92-13.54a9.17,9.17,0,0,0-9.18-4.31A9.79,9.79,0,0,0,91,66.82Q78.25,89,65.43,111.15c-2.51,4.36-5.12,8.67-7.47,13.11a9.27,9.27,0,0,0,.64,9.87c2.08,3.19,5.16,4.47,8.88,4.47Z"></path><path class="cls-2" d="M105.08,88.44c-.4,6.93-.81,13.92-1.21,20.91a24.58,24.58,0,0,1-.2,3,3.84,3.84,0,0,1-3.81,3.07,3.69,3.69,0,0,1-3.79-3.17c-.3-2.68-.4-5.38-.57-8.07-.33-5.29-.62-10.58-1-15.87-.26-3.83,2.52-6.78,6-6.35a5.21,5.21,0,0,1,4.52,4.75C105.12,87.25,105.08,87.82,105.08,88.44Z"></path><path class="cls-2" d="M94.64,124.23A5.28,5.28,0,0,1,100,119a5.25,5.25,0,0,1-.08,10.49A5.27,5.27,0,0,1,94.64,124.23Z"></path></g></svg>