<svg xmlns="http://www.w3.org/2000/svg" id="Layer_1" data-name="Layer 1" viewBox="0 0 200 200"><defs><style>.cls-1{fill:#6124ca;}.cls-2{fill:#fff;}</style></defs><rect class="cls-1" x="17.3" y="17.3" width="165.39" height="165.39" rx="21.84"></rect><g id="_2S6zAM" data-name="2S6zAM"><path class="cls-2" d="M96.94,112.77a15.12,15.12,0,0,1-4.15,12.89c-1.09,1.19-1.94,1.21-3.07.08q-6.91-6.92-13.83-13.84c-1.07-1.07-1.07-1.87,0-2.91a15.1,15.1,0,0,1,12.94-4.27,22.13,22.13,0,0,1,.27-10.14,28.2,28.2,0,0,0-8.47-2,30.38,30.38,0,0,0-14.85,2.4c-.81.34-1.6.55-2.31-.16s-.51-1.56-.1-2.38c5.48-11.07,14.34-17.55,26.5-19.57a29.52,29.52,0,0,1,9.88,0,1.76,1.76,0,0,0,1.83-.76,75.82,75.82,0,0,1,26.72-20.46,28.05,28.05,0,0,1,11.57-2.79c8.15,0,13.53,6,12.78,14.12a39.26,39.26,0,0,1-4.75,14.65,70.38,70.38,0,0,1-8.68,12.83l-.19.24a1.7,1.7,0,0,1-2.39.36,1.64,1.64,0,0,1-.14-2.47l5-6.57c.2-.27.37-.57.63-1-11.46-2.89-18.63-10-21.56-21.6-1.5,1.09-2.92,2-4.26,3.09-8.74,6.81-16,14.87-21,24.83-2.08,4.16-3.67,8.49-3.66,13.23,0,6.33,3.78,9.84,10.12,9.48A31.91,31.91,0,0,0,114,106.48a66,66,0,0,0,14.83-10.11c.26-.22.5-.47.78-.68a1.63,1.63,0,1,1,2.18,2.43c-.8.76-1.63,1.49-2.5,2.17a1.39,1.39,0,0,0-.53,1.43c1.68,14.22-3.25,25.56-14.88,33.92a47.07,47.07,0,0,1-4.87,2.72,1.66,1.66,0,0,1-2.18-.2,1.73,1.73,0,0,1-.22-2.1,29.19,29.19,0,0,0,2.4-15.35,65.72,65.72,0,0,0-1.72-7.54,1,1,0,0,0-.76-.54A22.16,22.16,0,0,1,96.94,112.77ZM144.23,78c1.06-2.39,2.24-4.8,3.21-7.29A23.21,23.21,0,0,0,149.28,60a7.92,7.92,0,0,0-6.19-7.38,12.73,12.73,0,0,0-3.48-.32c-5.81.21-10.93,2.54-15.9,5.23C125.9,69.45,133.92,76,144.23,78ZM125.6,103.27a59.56,59.56,0,0,1-15.31,8.29,33.8,33.8,0,0,1,.85,21.84C120.12,129.55,128.38,112.34,125.6,103.27ZM68.24,90.53a33.8,33.8,0,0,1,21.86.83A58.62,58.62,0,0,1,98.44,76C88.28,74.39,74.9,79.39,68.24,90.53Zm11.1,19.86,11.93,11.93a11.83,11.83,0,0,0,2.45-5.5c.83-4.67-2-8.65-6.44-9A11.67,11.67,0,0,0,79.34,110.39Z"></path><path class="cls-2" d="M116.13,93.35A7.83,7.83,0,1,1,124,85.54,7.86,7.86,0,0,1,116.13,93.35Zm0-3.3a4.52,4.52,0,0,0,4.57-4.5,4.55,4.55,0,1,0-9.09,0A4.54,4.54,0,0,0,116.12,90.05Z"></path><path class="cls-2" d="M80.3,123.11a7.26,7.26,0,0,1-.87,1.44q-11,11-22,22a1.66,1.66,0,0,1-2.47.15,1.62,1.62,0,0,1,.15-2.47l22-22a1.56,1.56,0,0,1,1.95-.47A6.45,6.45,0,0,1,80.3,123.11Z"></path><path class="cls-2" d="M83,134.88a8.24,8.24,0,0,1-.87,1.45q-8.72,8.76-17.48,17.48a1.65,1.65,0,1,1-2.3-2.34q8.73-8.76,17.48-17.49a1.51,1.51,0,0,1,2-.44A7,7,0,0,1,83,134.88Z"></path><path class="cls-2" d="M68.53,120.49a7.62,7.62,0,0,1-.84,1.35Q59,130.6,50.22,139.32a1.66,1.66,0,0,1-2.47.18,1.62,1.62,0,0,1,.13-2.47l17.54-17.55a1.51,1.51,0,0,1,2-.37A6.17,6.17,0,0,1,68.53,120.49Z"></path></g></svg>