<svg xmlns="http://www.w3.org/2000/svg" id="Layer_1" data-name="Layer 1" viewBox="0 0 200 200"><defs><style>.cls-1{fill:#6124ca;}.cls-2{fill:#fff;}</style></defs><rect class="cls-1" x="17.3" y="17.3" width="165.39" height="165.39" rx="21.84"></rect><g id="u54ocM"><path class="cls-2" d="M99.09,48.36c1.73.67,3,1.74,3.09,3.75a3.77,3.77,0,0,1-3.37,4.06c-2.24.25-4.5.26-6.73.56A44.49,44.49,0,0,0,55.25,89.47c-3.74,15.32-.5,29.08,9.94,41a42.26,42.26,0,0,0,26,14.26c13.61,2.06,25.78-1.37,36.24-10.39a42.47,42.47,0,0,0,13.83-22.23,93.29,93.29,0,0,0,1.45-9.78c.08-.57,0-1.16.1-1.74A3.87,3.87,0,0,1,147,96.87a3.91,3.91,0,0,1,3.67,4.13,46.9,46.9,0,0,1-1.88,13.64c-5.87,19.29-18.48,32-38,37-26,6.62-52.23-7.53-61.66-32.62A49.64,49.64,0,0,1,46,104.84c0-.34-.12-.66-.18-1V97.71c.08-.74.16-1.48.25-2.21A52.57,52.57,0,0,1,89.24,49.17c2-.35,4-.55,6-.81Z"></path><path class="cls-2" d="M94.78,110.23a10.33,10.33,0,0,1,.85-1.18l46-45.85a4.33,4.33,0,0,1,4-1.59A3.92,3.92,0,0,1,148,68a10.14,10.14,0,0,1-.84.89L98,117.87c-2.38,2.38-4.56,2.34-6.83-.12Q81.59,107.4,72.06,97c-1.82-2-1.7-4.63.25-6.1a3.87,3.87,0,0,1,4.91.12,11.91,11.91,0,0,1,.94.94L94,109.25C94.24,109.47,94.41,109.73,94.78,110.23Z"></path></g></svg>