<svg xmlns="http://www.w3.org/2000/svg" id="Layer_1" data-name="Layer 1" viewBox="0 0 200 200"><defs><style>.cls-1{fill:#6024c6;}.cls-2{fill:#fff;}</style></defs><circle class="cls-1" cx="100" cy="100" r="89.33"></circle><g id="JxtbT0"><path class="cls-2" d="M72,155.83c-.61-.17-1.23-.34-1.84-.53A10.9,10.9,0,0,1,62.53,145c-.05-5.2,0-10.4,0-15.6V62.13a11,11,0,0,1,8.46-11,12.29,12.29,0,0,1,2.84-.3q25.91,0,51.81,0A10.93,10.93,0,0,1,136.93,62c0,14.3,0,28.59,0,42.89a2.52,2.52,0,0,1-1.06,2.4,2.11,2.11,0,0,1-3.19-1.23,6.74,6.74,0,0,1-.15-1.62q0-21,0-42.06c0-2.93-1-5.25-3.73-6.52a8,8,0,0,0-3.36-.71q-25.75-.06-51.5,0c-4.31,0-7.08,2.76-7.08,7.06q0,35.39,0,70.79c0,.26,0,.53.06.93h44.83a8,8,0,0,1,1.63.14,2.12,2.12,0,0,1,0,4.11,8,8,0,0,1-1.62.14H67.08a56.92,56.92,0,0,0,.08,8.07c.45,3.19,3.34,5.06,7,5.06h33.24c.34,0,.68,0,1,0a2.11,2.11,0,0,1,2.14,1.7,2.08,2.08,0,0,1-1.3,2.47c-.12.07-.24.12-.37.18Z"></path><path class="cls-2" d="M116.68,155.83a2.8,2.8,0,0,1-1.6-3.29,11,11,0,0,1,11-9.84h3.31l-.88-.91L113,126.26a6.83,6.83,0,1,1,9.54-9.77c1.23,1.19,2.4,2.44,3.67,3.73a7.12,7.12,0,0,1,7.2-4c1.11-4.12,4.68-6.33,8.73-5.29a25.6,25.6,0,0,1,2.83-3.27,6.32,6.32,0,0,1,8.06.11c3.4,3.22,6.72,6.54,9.78,10.07a20.7,20.7,0,0,1,4.53,11c0,.3.14.59.21.89v4.3c-.08.37-.17.73-.23,1.1-1.6,9.37-6.77,15.85-15.69,19.22a47.24,47.24,0,0,1-5.83,1.43Zm3.15-4.42c.42,0,.65.06.89.06,7.58,0,15.17,0,22.76,0a23.81,23.81,0,0,0,3.47-.32c14.12-2.21,21.13-19.2,12.46-30.54-2.56-3.35-5.79-6.18-8.79-9.17a2.77,2.77,0,0,0-2-.61,2.45,2.45,0,0,0-1.37,4.11,2.08,2.08,0,0,1-.16,3.17c-1,.79-2.1.65-3.19-.4-.59-.57-1.15-1.18-1.75-1.73a2.46,2.46,0,1,0-3.45,3.47c.59.63,1.22,1.2,1.81,1.83a2.2,2.2,0,0,1,.16,3.28,2.23,2.23,0,0,1-3.28-.23c-1-.92-1.87-1.9-2.84-2.82a2.47,2.47,0,1,0-3.42,3.5c1.55,1.59,3.14,3.14,4.7,4.72a4.62,4.62,0,0,1,.73.86,2.13,2.13,0,0,1-3,2.95,7,7,0,0,1-.92-.81L119.92,120a5.7,5.7,0,0,0-1.18-1,2.35,2.35,0,0,0-3.57,2.05,4.05,4.05,0,0,0,1.2,2.25q9.69,9.81,19.48,19.53c.81.8,1.36,1.66.88,2.82s-1.48,1.37-2.62,1.35c-2.46,0-4.92,0-7.38,0a11.39,11.39,0,0,0-1.84.13A6.49,6.49,0,0,0,119.83,151.41Z"></path><path class="cls-2" d="M99.65,147.06c-1.37,0-2.74,0-4.1,0a2.18,2.18,0,1,1,0-4.34c2.8,0,5.61,0,8.41,0a2.15,2.15,0,0,1,2.3,2.22,2.12,2.12,0,0,1-2.28,2.12C102.52,147.09,101.09,147.06,99.65,147.06Z"></path><path class="cls-2" d="M73.41,59.57a2.18,2.18,0,0,1,2.21,2.08,2.24,2.24,0,0,1-2.17,2.25,2.2,2.2,0,0,1-2.15-2.16A2.14,2.14,0,0,1,73.41,59.57Z"></path></g></svg>