<svg xmlns="http://www.w3.org/2000/svg" id="Layer_1" data-name="Layer 1" viewBox="0 0 200 200"><defs><style>.cls-1{fill:#6124ca;}.cls-2{fill:#fff;}</style></defs><rect class="cls-1" x="17.3" y="17.3" width="165.39" height="165.39" rx="21.84"></rect><g id="TiHTzm"><path class="cls-2" d="M124.9,53.14h1.47a3.45,3.45,0,0,1,2.21,3.78c-.09,1.17,0,2.35,0,3.55,2.93,0,5.7,0,8.48,0a12,12,0,0,1,12,12q0,31.2,0,62.4a12,12,0,0,1-12,12q-34.86,0-69.73,0a12,12,0,0,1-11.53-8.76c-.18-.61-.32-1.23-.47-1.85V71.08a3.05,3.05,0,0,0,.17-.51,11.84,11.84,0,0,1,10.17-9.92,65.62,65.62,0,0,1,7-.18c1,0,2,0,3.14,0,0-1.26.07-2.42,0-3.56A3.42,3.42,0,0,1,78,53.14H79.5a3.45,3.45,0,0,1,2.21,3.78c-.09,1.17,0,2.35,0,3.5h41c0-1.2.07-2.36,0-3.5A3.43,3.43,0,0,1,124.9,53.14Zm18.31,32.29h-82v48.66c0,4.41,2.51,6.93,6.91,6.93h68.2c4.39,0,6.91-2.52,6.91-6.92V85.43ZM128.56,66.36c0,1,0,1.81,0,2.66a2.94,2.94,0,1,1-5.85,0c0-.87,0-1.74,0-2.58h-41c0,.89,0,1.71,0,2.54a2.94,2.94,0,1,1-5.85,0c0-.87,0-1.74,0-2.64-2.88,0-5.62,0-8.37,0a6,6,0,0,0-6.12,5.19,74.82,74.82,0,0,0-.06,7.93h81.86a1.51,1.51,0,0,0,.06-.31c0-2.22,0-4.45,0-6.68a6,6,0,0,0-5.5-6.06C134.71,66.2,131.68,66.36,128.56,66.36Z"></path></g></svg>