<svg xmlns="http://www.w3.org/2000/svg" id="Layer_1" data-name="Layer 1" viewBox="0 0 200 200"><defs><style>.cls-1{fill:#6024c6;}.cls-2{fill:#fff;}</style></defs><circle class="cls-1" cx="100" cy="100" r="89.33"></circle><g id="V4F8Jd"><path class="cls-2" d="M64.56,157.23a24.24,24.24,0,0,1-3.19-1,11,11,0,0,1-6.62-10.29c-.08-4.28,0-8.56,0-12.84,0-1.63,1-2.67,2.31-2.62s2.16,1,2.17,2.62c0,4.06,0,8.12,0,12.17,0,4.75,2.74,7.49,7.48,7.49h61.53c4.74,0,7.49-2.75,7.5-7.48V133.82h-1.38c-7.55,0-15.11.07-22.66,0-6.48-.1-11.56-6.43-10.48-12.83,1-5.84,5.49-9.57,11.67-9.6,7.13,0,14.27,0,21.41,0h1.37c0-.47.07-.8.07-1.13,0-3.53,0-7.06,0-10.59a6.73,6.73,0,0,0-7.15-7.13q-31.1,0-62.21,0c-4.32,0-7.11,2.8-7.14,7.13,0,4,0,8,0,11.94a8.66,8.66,0,0,1-.06,1.35,2.12,2.12,0,0,1-2,1.78,2.16,2.16,0,0,1-2.25-1.5,2.54,2.54,0,0,1-.13-.77c0-4.7-.14-9.4.1-14.08A10.92,10.92,0,0,1,65.66,88c3.08-.08,6.16,0,9.24,0,.36,0,.72,0,1.27-.06a13.09,13.09,0,0,1-2.79-11.31,12.51,12.51,0,0,1,4.56-7.31,13,13,0,0,1,21.08,9c.3,3-.21,4.54-3,9.72h42.5a11.12,11.12,0,0,1,11.29,8.93,15.93,15.93,0,0,1,.26,3.24q0,22.38,0,44.74c0,6.69-3.12,10.63-9.64,12.22a.52.52,0,0,0-.19.11Zm81-28c0-.41,0-.7,0-1,0-3.72,0-7.43,0-11.15,0-1-.26-1.32-1.3-1.32-10.47,0-20.95,0-31.42,0a12.07,12.07,0,0,0-1.9.15,6.76,6.76,0,0,0-5.35,7.78,6.69,6.69,0,0,0,6.8,5.55c10.74,0,21.47,0,32.2,0C144.94,129.32,145.2,129.29,145.59,129.27Zm-68-49.81a8.49,8.49,0,1,0,8.48-8.54A8.49,8.49,0,0,0,77.58,79.46ZM138,152.67c4.47.23,7.55-2.58,7.63-6.83.07-3.75,0-7.5,0-11.25a4.05,4.05,0,0,0-.13-.71h-5.25v1.26c0,2.74-.05,5.48,0,8.21C140.31,146.62,140.16,149.81,138,152.67Zm.14-60a12,12,0,0,1,2.12,7c0,3.45,0,6.91,0,10.36v1.27h5.39c0-1.48,0-2.9,0-4.32,0-2.92.1-5.87-.16-8.77A6.35,6.35,0,0,0,138.12,92.64Z"></path><path class="cls-2" d="M118.78,72.78a13,13,0,1,1,13-12.92A13,13,0,0,1,118.78,72.78Zm8.49-13a8.49,8.49,0,1,0-8.54,8.45A8.46,8.46,0,0,0,127.27,59.83Z"></path><path class="cls-2" d="M99.06,52.9c0,2.82,0,5.63,0,8.44,0,1.68-.84,2.64-2.25,2.64s-2.24-1-2.25-2.65q0-8.38,0-16.77c0-1.64.87-2.68,2.21-2.71s2.28,1,2.29,2.73C99.07,47.35,99.06,50.13,99.06,52.9Z"></path><path class="cls-2" d="M88.26,49.08c0,1.57,0,3.15,0,4.72a2.24,2.24,0,1,1-4.47.09c0-3.22,0-6.45,0-9.67a2.26,2.26,0,0,1,2.32-2.37,2.22,2.22,0,0,1,2.16,2.39C88.27,45.85,88.25,47.46,88.26,49.08Z"></path><path class="cls-2" d="M57,124.81a2.2,2.2,0,0,1-2.21-2.21A2.25,2.25,0,0,1,57,120.35a2.23,2.23,0,0,1,2.26,2.29A2.18,2.18,0,0,1,57,124.81Z"></path><path class="cls-2" d="M114,122.56a2.17,2.17,0,0,1-2.15,2.25,2.22,2.22,0,0,1-2.3-2.24,2.26,2.26,0,0,1,2.23-2.22A2.21,2.21,0,0,1,114,122.56Z"></path></g></svg>