<svg xmlns="http://www.w3.org/2000/svg" id="Layer_1" data-name="Layer 1" viewBox="0 0 200 200"><defs><style>.cls-1{fill:#6024c6;}.cls-2{fill:#fff;}</style></defs><circle class="cls-1" cx="100" cy="100" r="89.33"></circle><g id="XLrDyJ"><path class="cls-2" d="M95.5,165.59c-1.8-1.47-3.57-3-5.41-4.39a3,3,0,0,0-1.68-.62c-4.85-.05-9.71,0-14.57,0A12.63,12.63,0,0,1,61,150a16.74,16.74,0,0,1-.17-2.83q0-44.77,0-89.54c0-8,5.34-13.34,13.38-13.35q22.22,0,44.42,0A12.56,12.56,0,0,1,131.4,54.88a17.51,17.51,0,0,1,.17,3.07q0,34.05,0,68.11v1.52c.72.13,1.35.21,1.95.36a7.33,7.33,0,0,1,5.58,6.85c.07,9.4,0,18.8,0,28.19a3.05,3.05,0,0,1-1.72,2.61H136a3.15,3.15,0,0,1-1.92-3.32c.05-8.76,0-17.53,0-26.3,0-2-.91-3.2-2.48-3.24s-2.55,1.18-2.55,3.28c0,1.34,0,2.68,0,4a2.63,2.63,0,0,1-1.23,2.42c-1.75,1.08-3.79-.14-3.84-2.36-.06-2.44,0-4.89,0-7.34a2.43,2.43,0,0,0-2.91-2.48,2.5,2.5,0,0,0-2.1,2.61c0,2.49,0,5,0,7.47a2.5,2.5,0,0,1-5,0c0-.9,0-1.81,0-2.72,0-2.45,0-4.9,0-7.34a2.5,2.5,0,0,0-2.51-2.61,2.54,2.54,0,0,0-2.55,2.58c0,.39,0,.79,0,1.18,0,3,0,5.92,0,8.88a2.44,2.44,0,0,1-2.23,2.49,2.52,2.52,0,0,1-2.71-2,6.27,6.27,0,0,1-.07-1.3V113.49c0-2.32-.91-3.54-2.58-3.5s-2.45,1.21-2.45,3.49q0,15.69,0,31.39c0,2.58-1.52,3.65-4,2.81l-9.39-3.26c-1.51-.53-2.59-.22-3.19.87s-.3,2.14.92,3.19l14.1,12.13c2.12,1.83,2,3.5-.32,5Zm3.25-80.93c13.64,3,20.27,11.42,20.32,25.22a6.43,6.43,0,0,1,1.32.6,2.35,2.35,0,0,1,1,2.7,2.51,2.51,0,0,1-2.68,1.87c-2.85,0-5.69,0-8.53,0-.42,0-.83,0-1.24.07v7.74c.17,0,.25.07.32.05a7.72,7.72,0,0,1,8.26,2.77c.16.19.76.18,1.08,0a7.28,7.28,0,0,1,5.54-.09,25.58,25.58,0,0,1,2.43,1.25V57.54a9.38,9.38,0,0,0,0-1.06,7.36,7.36,0,0,0-4.82-6.6c-2.49-1-5.11-.46-7.78-.53,0,.78,0,1.41,0,2,0,4.89-3.23,8.06-8.12,8.07-6.44,0-12.87,0-19.31,0a7.6,7.6,0,0,1-8-7.95c0-.69,0-1.38,0-2.17H73.83a7.6,7.6,0,0,0-8,8q0,45.12,0,90.25a7.53,7.53,0,0,0,7.89,7.9c2.84,0,5.68,0,8.52,0,.3,0,.59-.05,1.13-.09-1.45-1.25-2.74-2.33-4-3.44a7.32,7.32,0,0,1,7.13-12.54c2.06.68,4.1,1.41,6.15,2.12.27.09.57.13.87.2V115.06H74.07c-1.84,0-2.91-.79-3.11-2.25s.59-2.28,2.27-2.84c.07,0,.12-.09.23-.19,0-.9,0-1.85,0-2.79a22.77,22.77,0,0,1,17.71-21.7c.76-.17,1.84-.07,2.22-.55s.21-1.55.26-2.36a2.55,2.55,0,1,1,5.09,0C98.78,83.18,98.75,84,98.75,84.66ZM113.88,110c.42-7.58-2-13.67-8.5-17.58s-13-3.64-19.18.54c-5.92,4-8.11,9.9-7.65,16.89A1.42,1.42,0,0,0,79,110c4.85,0,9.71,0,14.56,0a1.19,1.19,0,0,0,.85-.59,7.6,7.6,0,0,1,13.78,0,1.12,1.12,0,0,0,.75.57C110.51,110,112.12,110,113.88,110ZM83.59,49.39V51c0,2.67.78,3.45,3.46,3.45H98.42c2.53,0,5,0,7.58,0,1.48,0,2.57-.75,2.73-1.95a23.92,23.92,0,0,0,0-3.06Z"></path></g></svg>