<svg xmlns="http://www.w3.org/2000/svg" width="100" height="32.39" viewBox="0 0 100 32.39"><defs><style>.a{fill:#fff;}</style></defs><title>one2</title><path class="a" d="M0,16.2A15.63,15.63,0,0,1,1.32,9.75,15.82,15.82,0,0,1,5,4.64a17.17,17.17,0,0,1,5.39-3.41A17.6,17.6,0,0,1,17,0a17.7,17.7,0,0,1,6.59,1.23A17.2,17.2,0,0,1,29,4.64,15.58,15.58,0,0,1,34,16.2a15.63,15.63,0,0,1-1.33,6.44A15.79,15.79,0,0,1,29,27.75a17.2,17.2,0,0,1-5.42,3.41A17.7,17.7,0,0,1,17,32.39a17.6,17.6,0,0,1-6.62-1.23A17.17,17.17,0,0,1,5,27.75a15.82,15.82,0,0,1-3.65-5.11A15.62,15.62,0,0,1,0,16.2m17,7.52a6.91,6.91,0,0,0,2.8-.57A7.12,7.12,0,0,0,22,21.58a6.69,6.69,0,0,0,1.47-2.37,8.69,8.69,0,0,0,.51-3,8.61,8.61,0,0,0-.51-3A6.64,6.64,0,0,0,22,10.81a7.12,7.12,0,0,0-2.26-1.57A6.91,6.91,0,0,0,17,8.67a6.78,6.78,0,0,0-2.83.57,7.1,7.1,0,0,0-2.23,1.57,6.64,6.64,0,0,0-1.47,2.38,8.38,8.38,0,0,0-.52,3,8.46,8.46,0,0,0,.52,3,6.69,6.69,0,0,0,1.47,2.37,7.1,7.1,0,0,0,2.23,1.57,6.78,6.78,0,0,0,2.83.57"></path><path class="a" d="M36.06,12.94a12.29,12.29,0,0,1,1.21-5.56,11.42,11.42,0,0,1,3.31-4.07A15.32,15.32,0,0,1,45.45.84a21.49,21.49,0,0,1,11.9,0,14.91,14.91,0,0,1,4.87,2.47A11.56,11.56,0,0,1,65.5,7.38a12.29,12.29,0,0,1,1.21,5.56V31.55H57V15.17a6.68,6.68,0,0,0-1.44-4.72,5.41,5.41,0,0,0-4.16-1.54q-5.65,0-5.65,6.26V31.55h-9.7Z"></path><path class="a" d="M80,20.23a3.28,3.28,0,0,0,.63,1.41,5.31,5.31,0,0,0,1.45,1.3,7.87,7.87,0,0,0,2.38,1,14.57,14.57,0,0,0,3.49.36,15.41,15.41,0,0,0,3-.27c.92-.18,1.72-.37,2.41-.57a13,13,0,0,0,1.68-.6,4.16,4.16,0,0,0,.79-.42l3.37,6.74c-.32.2-.86.48-1.6.84a22.6,22.6,0,0,1-2.8,1.09,29.5,29.5,0,0,1-3.94.93,29.31,29.31,0,0,1-5,.39,18.24,18.24,0,0,1-6.32-1.08,15.07,15.07,0,0,1-5.15-3.16,14.82,14.82,0,0,1-3.46-5.09,17.66,17.66,0,0,1-1.26-6.86,17,17,0,0,1,1.26-6.63,14.88,14.88,0,0,1,3.49-5.11,16.07,16.07,0,0,1,5.24-3.29A17.79,17.79,0,0,1,86.15,0,18.24,18.24,0,0,1,92,.87a13.44,13.44,0,0,1,4.37,2.38,10.63,10.63,0,0,1,2.71,3.43,9.07,9.07,0,0,1,.93,4,9.84,9.84,0,0,1-.78,4,6.8,6.8,0,0,1-2.8,3,16.61,16.61,0,0,1-5.48,1.9,48.52,48.52,0,0,1-8.82.66ZM79.53,14a49.81,49.81,0,0,0,6.26-.3,12.39,12.39,0,0,0,3.31-.79,2.34,2.34,0,0,0,1.33-1.08,3.21,3.21,0,0,0,.24-1.2,2.75,2.75,0,0,0-1.15-2.2,5.34,5.34,0,0,0-3.43-.93A6.59,6.59,0,0,0,83.26,8a6.3,6.3,0,0,0-2,1.47A6.09,6.09,0,0,0,80,11.59,8.26,8.26,0,0,0,79.53,14"></path></svg>