<svg xmlns="http://www.w3.org/2000/svg" id="Layer_1" data-name="Layer 1" viewBox="0 0 347.42 212.9"><defs><style>.cls-1{fill:#342f8b;}</style></defs><path class="cls-1" d="M35,140A20.94,20.94,0,0,1,36,133.45a19.35,19.35,0,0,1,3.11-6,16.93,16.93,0,0,1,4.92-4.31,12.72,12.72,0,0,1,6.55-1.68,14.91,14.91,0,0,1,6.19,1.28,14.39,14.39,0,0,1,4.92,3.63,17.44,17.44,0,0,1,3.27,5.8A23.39,23.39,0,0,1,66.2,140a16.92,16.92,0,0,1-.88,5.43,12.56,12.56,0,0,1-2.79,4.68,14.34,14.34,0,0,1-4.92,3.31,18.26,18.26,0,0,1-7.23,1.28,21,21,0,0,1-6.27-.88,13,13,0,0,1-4.88-2.67,11.8,11.8,0,0,1-3.15-4.6A17.48,17.48,0,0,1,35,140Zm3.83-31.25a5.65,5.65,0,0,1,9.67-4,5.65,5.65,0,1,1-9.67,4Zm11.83,22.22a4.58,4.58,0,0,0-2.68.75,6.11,6.11,0,0,0-1.76,1.95,9.42,9.42,0,0,0-1,2.7,13.77,13.77,0,0,0-.32,2.94,7.11,7.11,0,0,0,1.31,4.49q1.32,1.71,4.6,1.71a5.34,5.34,0,0,0,4.15-1.55,6.1,6.1,0,0,0,1.44-4.33,12,12,0,0,0-1.48-6.12A4.68,4.68,0,0,0,50.62,130.93Zm1.2-22.22a5.74,5.74,0,1,1,1.68,4A5.45,5.45,0,0,1,51.82,108.71Z"></path><path class="cls-1" d="M80.51,126.05H90.89v23.82a46.71,46.71,0,0,1-.87,9.75,14.53,14.53,0,0,1-3.08,6.51,12.43,12.43,0,0,1-6.07,3.64A38.43,38.43,0,0,1,71,171v-9.74a18.37,18.37,0,0,0,5.15-.72,5.48,5.48,0,0,0,2.84-2,8,8,0,0,0,1.24-3.52,40.58,40.58,0,0,0,.28-5.07Z"></path><path class="cls-1" d="M129.33,154.34q-1.11,8.72-7.15,12.67t-18.1,4H101.6v-9.74h1.84a42,42,0,0,0,7-.48,16.28,16.28,0,0,0,4.6-1.4,7.17,7.17,0,0,0,2.67-2.16,6.46,6.46,0,0,0,1.12-2.84h-5a24.4,24.4,0,0,1-6.47-.8,13.19,13.19,0,0,1-5.12-2.59,12,12,0,0,1-3.36-4.64,17.69,17.69,0,0,1-1.19-6.83,19.1,19.1,0,0,1,1.07-6.31,17.65,17.65,0,0,1,3.15-5.6,15.22,15.22,0,0,1,5.1-3.95,15.56,15.56,0,0,1,6.94-1.48,16.18,16.18,0,0,1,7.37,1.52,12.42,12.42,0,0,1,4.82,4.27,18.72,18.72,0,0,1,2.63,6.55,40.91,40.91,0,0,1,.8,8.36v2.31h5.83a5.68,5.68,0,0,1,1.2.12,2,2,0,0,1,1,.56,3,3,0,0,1,.68,1.32,9.54,9.54,0,0,1,.24,2.4,6.64,6.64,0,0,1-.76,3.75,2.71,2.71,0,0,1-2.36,1Zm-21.42-15.82q0,3.84,1.64,5.23a6.45,6.45,0,0,0,4.36,1.4h5.27v-4.79A14.71,14.71,0,0,0,118,134a4.49,4.49,0,0,0-4.47-2.52,4.76,4.76,0,0,0-4.28,2A8.94,8.94,0,0,0,107.91,138.52Z"></path><path class="cls-1" d="M169,145.15V97.29H179.4v33.32a26,26,0,0,1,7.71-6.51,19.58,19.58,0,0,1,9.79-2.6q8.31,0,12.58,5T213.76,140v5.11H220a5.68,5.68,0,0,1,1.2.12,2,2,0,0,1,1,.56,3,3,0,0,1,.68,1.32,9.54,9.54,0,0,1,.24,2.4,6.73,6.73,0,0,1-.76,3.75,2.71,2.71,0,0,1-2.36,1H135.48a5.81,5.81,0,0,1-1.2-.12,1.91,1.91,0,0,1-1-.56,2.84,2.84,0,0,1-.68-1.31,9.54,9.54,0,0,1-.24-2.4,6.71,6.71,0,0,1,.76-3.76,2.72,2.72,0,0,1,2.35-1Zm34.36,0V140.6a12.2,12.2,0,0,0-1.71-6.63c-1.14-1.81-3.18-2.72-6.1-2.72a10.59,10.59,0,0,0-4.69,1.12,17.28,17.28,0,0,0-4.34,3,26.49,26.49,0,0,0-3.75,4.44,27.61,27.61,0,0,0-2.82,5.31Z"></path><path class="cls-1" d="M226.26,145.15c.64,0,1.43-.53,2.36-1.59a15,15,0,0,0,2.52-4.64,37.29,37.29,0,0,1,3.79-7.55,21.94,21.94,0,0,1,4.28-4.8,14,14,0,0,1,4.47-2.51,14.34,14.34,0,0,1,10.23.48,13.63,13.63,0,0,1,4.68,3.35,15.67,15.67,0,0,1,3.07,5.2,18.91,18.91,0,0,1,1.12,6.63c0,.37,0,.72,0,1s0,.64,0,1a5.57,5.57,0,0,0,3.2,2.67,12.22,12.22,0,0,0,4.07.76,5.68,5.68,0,0,1,1.2.12,2,2,0,0,1,1,.56,3,3,0,0,1,.68,1.32,9.54,9.54,0,0,1,.24,2.4,6.64,6.64,0,0,1-.76,3.75,2.71,2.71,0,0,1-2.36,1,12.23,12.23,0,0,1-5.43-1.16,10.8,10.8,0,0,1-4.16-3.71,11.27,11.27,0,0,1-4.63,4.31,15.5,15.5,0,0,1-7.19,1.52,23,23,0,0,1-6.48-1,25.75,25.75,0,0,1-6.79-3.27,8.27,8.27,0,0,1-4.23,2.79,21.74,21.74,0,0,1-4.72.48h-8.15c-.43,0,3.09,0,2.72-.12a1.94,1.94,0,0,1-1-.56,2.93,2.93,0,0,1-.68-1.31A9.54,9.54,0,0,1,219,150a6.71,6.71,0,0,1,.76-3.76c.51-.69-1.82-1-.76-1Zm26.37-5.67a10.35,10.35,0,0,0-.28-2.4,6.5,6.5,0,0,0-.88-2.12,4.8,4.8,0,0,0-1.59-1.51,4.67,4.67,0,0,0-2.44-.6,6.32,6.32,0,0,0-4.32,2.23c-1.49,1.5-2.66,4.13-3.51,7.92A30.5,30.5,0,0,0,243.4,145a9.8,9.8,0,0,0,3.88.76,4.79,4.79,0,0,0,3.95-1.72A6.85,6.85,0,0,0,252.63,139.48Z"></path><path class="cls-1" d="M279.16,145.15V97.29h10.39v57.05H270a5.65,5.65,0,0,1-1.19-.12,1.9,1.9,0,0,1-1-.56,2.84,2.84,0,0,1-.68-1.31,9.54,9.54,0,0,1-.24-2.4,6.71,6.71,0,0,1,.76-3.76,2.72,2.72,0,0,1,2.35-1Z"></path><path class="cls-1" d="M309.61,97.29v57.05H299.22v-57Z"></path><path class="cls-1" d="M117.89,110.47a6.53,6.53,0,0,1-2.17-.41,4.2,4.2,0,0,1-2-1.66,3.92,3.92,0,0,1-2.25,1.73,8.48,8.48,0,0,1-2.1.34c-3.54,0-5.3-2-5.3-6.12V99.27h3.68v4.64c0,2,.64,3,1.91,3a2.31,2.31,0,0,0,1.48-.52c.44-.34.66-1.13.66-2.36V100.6h3.68v3.31c0,1.18.24,1.94.7,2.28a2.28,2.28,0,0,0,1.37.52c.78,0,1.29-.22,1.51-.66a4.45,4.45,0,0,0,.33-1.92V99.27h3.68v5.08Q123.05,110.47,117.89,110.47Z"></path><path class="cls-1" d="M242.44,108.85a7.5,7.5,0,0,0,3.76-.78,4.31,4.31,0,0,0,1.84-1.88,7.14,7.14,0,0,1-2.43.37,5.41,5.41,0,0,1-3.83-1.36,4.83,4.83,0,0,1-1.47-3.72,5.93,5.93,0,0,1,1.62-4.27,5.37,5.37,0,0,1,4-1.7A5.61,5.61,0,0,1,250,97.17q1.69,1.67,1.69,5.34A12.53,12.53,0,0,1,251,107a7.43,7.43,0,0,1-1.91,2.91,7,7,0,0,1-3,1.58,13.83,13.83,0,0,1-3.72.48c-.59,0-1.2,0-1.84-.07a7.87,7.87,0,0,1-1.69-.3v-3.16a14,14,0,0,0,2,.29C241.64,108.82,242.15,108.85,242.44,108.85Zm3.83-5.38a5.47,5.47,0,0,0,1.33-.15,8.21,8.21,0,0,0,1-.29v-.52a4.68,4.68,0,0,0-.74-2.83,2.21,2.21,0,0,0-1.84-1,2.17,2.17,0,0,0-1.88.88,3,3,0,0,0-.63,1.77,1.66,1.66,0,0,0,1,1.73A5,5,0,0,0,246.27,103.47Z"></path><path class="cls-1" d="M102.94,67.14a11.27,11.27,0,0,1-2.33-.29,7.76,7.76,0,0,1-2.52-1.07,6.6,6.6,0,0,1-2-2.18,7.1,7.1,0,0,1-.84-3.67,8.22,8.22,0,0,1,.79-3.8,7.44,7.44,0,0,1,2.06-2.49,8.23,8.23,0,0,1,2.8-1.38,11.5,11.5,0,0,1,3-.42h5.84v12a6.48,6.48,0,0,0,.57,2.9,2.46,2.46,0,0,0,2.46,1.15h1a2,2,0,0,1,1.15.24,1.3,1.3,0,0,1,.32,1.05,1.18,1.18,0,0,1-1.47,1.41h-1.43a5.69,5.69,0,0,1-3.58-1.12,3.93,3.93,0,0,1-1.51-3.09,12.31,12.31,0,0,1-2.08.55A12.57,12.57,0,0,1,102.94,67.14Zm-5.21-7.5a4.66,4.66,0,0,0,1.32,3.54,5.86,5.86,0,0,0,4.18,1.27,10.39,10.39,0,0,0,2-.21,10.87,10.87,0,0,0,1.91-.55V54.53h-3.53a9,9,0,0,0-2.33.29,5.25,5.25,0,0,0-1.85.91,4.43,4.43,0,0,0-1.24,1.58A5.38,5.38,0,0,0,97.73,59.64Zm1.39-16.08a1.74,1.74,0,0,1,.54-1.29,1.9,1.9,0,0,1,2.61,0,1.74,1.74,0,0,1,.54,1.29,1.78,1.78,0,0,1-.54,1.3,1.82,1.82,0,0,1-2.61,0A1.78,1.78,0,0,1,99.12,43.56Zm5.71,0a1.72,1.72,0,0,1,.55-1.29,1.88,1.88,0,0,1,2.6,0,1.72,1.72,0,0,1,.55,1.29,1.75,1.75,0,0,1-.55,1.3,1.81,1.81,0,0,1-2.6,0A1.75,1.75,0,0,1,104.83,43.56Z"></path><path class="cls-1" d="M113.78,70.59a1.86,1.86,0,0,1-1.09-.28,1.19,1.19,0,0,1-.38-1c0-.59.13-1,.38-1.13a2,2,0,0,1,1.09-.26H120a1.86,1.86,0,0,1,1.09.28,1.19,1.19,0,0,1,.38,1c0,.59-.13,1-.38,1.13a2,2,0,0,1-1.09.26Z"></path><path class="cls-1" d="M120,70.59a1.9,1.9,0,0,1-1.1-.28,1.19,1.19,0,0,1-.38-1c0-.59.13-1,.38-1.13a2,2,0,0,1,1.1-.26h6.22a1.86,1.86,0,0,1,1.09.28,1.19,1.19,0,0,1,.38,1c0,.59-.13,1-.38,1.13a2,2,0,0,1-1.09.26Z"></path><path class="cls-1" d="M126.23,70.59a1.9,1.9,0,0,1-1.1-.28,1.19,1.19,0,0,1-.37-1c0-.59.12-1,.37-1.13a2,2,0,0,1,1.1-.26h6.22a1.86,1.86,0,0,1,1.09.28,1.19,1.19,0,0,1,.38,1c0,.59-.13,1-.38,1.13a2,2,0,0,1-1.09.26Z"></path><path class="cls-1" d="M132.45,70.59a1.9,1.9,0,0,1-1.1-.28,1.19,1.19,0,0,1-.37-1c0-.59.12-1,.37-1.13a2,2,0,0,1,1.1-.26h6.22a1.86,1.86,0,0,1,1.09.28,1.19,1.19,0,0,1,.38,1c0,.59-.13,1-.38,1.13a2,2,0,0,1-1.09.26Z"></path><path class="cls-1" d="M138.67,70.59a1.84,1.84,0,0,1-1.09-.28,1.17,1.17,0,0,1-.38-1c0-.59.12-1,.38-1.13a1.93,1.93,0,0,1,1.09-.26h6.22a1.84,1.84,0,0,1,1.09.28,1.17,1.17,0,0,1,.38,1c0,.59-.12,1-.38,1.13a1.93,1.93,0,0,1-1.09.26Z"></path><path class="cls-1" d="M144.89,70.59a1.84,1.84,0,0,1-1.09-.28,1.17,1.17,0,0,1-.38-1c0-.59.12-1,.38-1.13a1.93,1.93,0,0,1,1.09-.26h6.22a1.84,1.84,0,0,1,1.09.28,1.17,1.17,0,0,1,.38,1c0,.59-.12,1-.38,1.13a1.93,1.93,0,0,1-1.09.26Z"></path><path class="cls-1" d="M151.11,70.59a1.84,1.84,0,0,1-1.09-.28,1.19,1.19,0,0,1-.38-1c0-.59.13-1,.38-1.13a1.93,1.93,0,0,1,1.09-.26h6.22a1.9,1.9,0,0,1,1.1.28,1.19,1.19,0,0,1,.37,1c0,.59-.12,1-.37,1.13a2,2,0,0,1-1.1.26Z"></path><path class="cls-1" d="M157.33,70.59a1.86,1.86,0,0,1-1.09-.28,1.19,1.19,0,0,1-.38-1c0-.59.13-1,.38-1.13a2,2,0,0,1,1.09-.26h6.22a1.9,1.9,0,0,1,1.1.28,1.19,1.19,0,0,1,.37,1c0,.59-.12,1-.37,1.13a2,2,0,0,1-1.1.26Z"></path><path class="cls-1" d="M164.06,70.59a1.9,1.9,0,0,1-1.1-.28,1.19,1.19,0,0,1-.37-1c0-.59.12-1,.37-1.13a2,2,0,0,1,1.1-.26h6a6,6,0,0,1-1.47-2.37,8.36,8.36,0,0,1-.47-2.71,10.15,10.15,0,0,1,.53-3.22,8.66,8.66,0,0,1,1.58-2.83,7.66,7.66,0,0,1,2.58-2,7.74,7.74,0,0,1,3.51-.76,7.37,7.37,0,0,1,3.72.84A6.63,6.63,0,0,1,182.34,57a8,8,0,0,1,1.16,2.85,15.72,15.72,0,0,1,.31,3.09v7.7Zm6.55-8.37a6.33,6.33,0,0,0,.47,2.54,4.78,4.78,0,0,0,1.24,1.77,5.07,5.07,0,0,0,1.87,1,8.09,8.09,0,0,0,2.35.33h4.71V63a11.94,11.94,0,0,0-.23-2.29,6.35,6.35,0,0,0-.8-2.08,4.44,4.44,0,0,0-1.58-1.52,5,5,0,0,0-2.56-.58,5.64,5.64,0,0,0-2.29.44,4.8,4.8,0,0,0-1.73,1.22A5.7,5.7,0,0,0,171,60,6.45,6.45,0,0,0,170.61,62.22Zm1.06-15.47a1.72,1.72,0,0,1,.54-1.28,1.87,1.87,0,0,1,2.61,0,1.72,1.72,0,0,1,.54,1.28,1.85,1.85,0,0,1-3.69,0Zm5.71,0a1.7,1.7,0,0,1,.55-1.28,1.86,1.86,0,0,1,2.6,0,1.7,1.7,0,0,1,.55,1.28,1.85,1.85,0,0,1-3.7,0Z"></path><path class="cls-1" d="M197.14,69.2c0,.59-.13,1-.38,1.13a2,2,0,0,1-1.09.26h-.84a9.77,9.77,0,0,1-2.38-.28,4.52,4.52,0,0,1-1.83-.92,4.34,4.34,0,0,1-1.17-1.73A7.33,7.33,0,0,1,189,65V40.57h2.6V64a9,9,0,0,0,.15,1.78,2.52,2.52,0,0,0,.55,1.2,2.2,2.2,0,0,0,1.11.67,6.36,6.36,0,0,0,1.85.21h.38a1.86,1.86,0,0,1,1.09.28A1.19,1.19,0,0,1,197.14,69.2Z"></path><path class="cls-1" d="M195.67,70.59a1.9,1.9,0,0,1-1.1-.28,1.19,1.19,0,0,1-.37-1c0-.59.12-1,.37-1.13a2,2,0,0,1,1.1-.26h6.22a1.86,1.86,0,0,1,1.09.28,1.19,1.19,0,0,1,.38,1c0,.59-.13,1-.38,1.13a2,2,0,0,1-1.09.26Z"></path><path class="cls-1" d="M201.89,70.59a1.84,1.84,0,0,1-1.09-.28,1.17,1.17,0,0,1-.38-1c0-.59.12-1,.38-1.13a1.93,1.93,0,0,1,1.09-.26h6.22a1.84,1.84,0,0,1,1.09.28,1.19,1.19,0,0,1,.38,1c0,.59-.13,1-.38,1.13a1.93,1.93,0,0,1-1.09.26Z"></path><path class="cls-1" d="M208.11,70.59a1.84,1.84,0,0,1-1.09-.28,1.17,1.17,0,0,1-.38-1c0-.59.12-1,.38-1.13a1.93,1.93,0,0,1,1.09-.26h2.77q.88,0,1.71-.06a3.87,3.87,0,0,0,1.45-.38,2.27,2.27,0,0,0,1-1,4,4,0,0,0,.38-2V54.61h2.65v8a8.11,8.11,0,0,0,.8,3.91,3.2,3.2,0,0,0,3.07,1.42,1.86,1.86,0,0,1,1.09.28,1.19,1.19,0,0,1,.38,1c0,.59-.13,1-.38,1.13a2,2,0,0,1-1.09.26,6.57,6.57,0,0,1-2.69-.55,3.51,3.51,0,0,1-1.81-1.93,6.08,6.08,0,0,1-1.09,1.24,4.57,4.57,0,0,1-1.33.75,7.11,7.11,0,0,1-1.66.38,18.53,18.53,0,0,1-2.1.11Zm6.72,5.59a1.88,1.88,0,1,1,.55,1.3A1.81,1.81,0,0,1,214.83,76.18Z"></path><path class="cls-1" d="M221.85,70.59a1.86,1.86,0,0,1-1.09-.28,1.19,1.19,0,0,1-.38-1c0-.59.13-1,.38-1.13a2,2,0,0,1,1.09-.26h7.23V40.57h2.65v30Z"></path><path class="cls-1" d="M240.27,40.57v30h-2.65v-30Z"></path><path class="cls-1" d="M316.43,212.9H31a31,31,0,0,1-31-31V31A31,31,0,0,1,31,0H316.43a31,31,0,0,1,31,31V181.92A31,31,0,0,1,316.43,212.9ZM31,8A23,23,0,0,0,8,31V181.92a23,23,0,0,0,23,23H316.43a23,23,0,0,0,23-23V31a23,23,0,0,0-23-23Z"></path></svg>