<svg xmlns="http://www.w3.org/2000/svg" id="Layer_1" data-name="Layer 1" viewBox="0 0 347.42 212.9"><defs><style>.cls-1{fill:#594b9f;}</style></defs><path class="cls-1" d="M60.67,154.34a23.54,23.54,0,0,1-3.71-.28,11.78,11.78,0,0,1-3.32-1A8.88,8.88,0,0,1,51,151.11a8.56,8.56,0,0,1-1.8-3.24c-.9.21-1.83.39-2.79.52a21.45,21.45,0,0,1-2.88.2,21.3,21.3,0,0,1-4.64-.6,14.58,14.58,0,0,1-5-2.2,13.27,13.27,0,0,1-4-4.43,14.52,14.52,0,0,1-1.63-7.31,16.31,16.31,0,0,1,1.55-7.44,14.78,14.78,0,0,1,4-5,15.43,15.43,0,0,1,5.43-2.76,21.75,21.75,0,0,1,5.88-.84H58.67V142a4.64,4.64,0,0,0,.48,2.51c.32.46,1.07.68,2.24.68h1.92a5.81,5.81,0,0,1,1.2.12,2.05,2.05,0,0,1,1,.56,2.93,2.93,0,0,1,.67,1.32,9.54,9.54,0,0,1,.24,2.4,6.75,6.75,0,0,1-.75,3.75,2.72,2.72,0,0,1-2.36,1ZM33.58,104.72a5.65,5.65,0,0,1,9.67-4,5.65,5.65,0,1,1-8,8A5.45,5.45,0,0,1,33.58,104.72Zm4.8,28.81a9.25,9.25,0,0,0,.24,2,4.83,4.83,0,0,0,.87,1.91,5.09,5.09,0,0,0,1.72,1.38,6,6,0,0,0,2.76.56c.69,0,1.4,0,2.12-.08a8,8,0,0,0,2.19-.48v-11h-4a5.89,5.89,0,0,0-4.44,1.55A5.68,5.68,0,0,0,38.38,133.53Zm8.23-28.81a5.72,5.72,0,1,1,1.67,4A5.49,5.49,0,0,1,46.61,104.72Z"></path><path class="cls-1" d="M91.92,154.34a18.7,18.7,0,0,1-2.4-.16,10.57,10.57,0,0,1-2.48-.6,9,9,0,0,1-2.28-1.23A6.6,6.6,0,0,1,83,150.27a8.08,8.08,0,0,1-2.32,2.2,10.74,10.74,0,0,1-2.88,1.23,17,17,0,0,1-3.15.52q-1.65.12-3.24.12H63.31a5.68,5.68,0,0,1-1.2-.12,1.94,1.94,0,0,1-1-.56,2.93,2.93,0,0,1-.68-1.31,9.54,9.54,0,0,1-.24-2.4,6.71,6.71,0,0,1,.76-3.76,2.74,2.74,0,0,1,2.36-1H69.7a6.4,6.4,0,0,0,3.8-.84c.72-.56,1.08-1.82,1.08-3.79v-18H85v17.1q0,3,1.56,4.23c1,.86,2.84,1.28,5.4,1.28a5.65,5.65,0,0,1,1.19.12,2,2,0,0,1,1,.56,2.93,2.93,0,0,1,.68,1.32,9.54,9.54,0,0,1,.24,2.4,6.64,6.64,0,0,1-.76,3.75A2.69,2.69,0,0,1,91.92,154.34ZM65.39,167.77a5.72,5.72,0,1,1,1.67,4A5.45,5.45,0,0,1,65.39,167.77Zm13,0a5.74,5.74,0,1,1,1.68,4A5.46,5.46,0,0,1,78.41,167.77Z"></path><path class="cls-1" d="M95.19,145.15c1.17,0,2.15,0,2.92-.08a4.43,4.43,0,0,0,1.88-.48,2.31,2.31,0,0,0,1-1.16,5.66,5.66,0,0,0,.31-2.11V126.05h10.23v13.59a5.61,5.61,0,0,0,1.4,4,5.74,5.74,0,0,0,4.36,1.48,9.78,9.78,0,0,0,4-.72c1.09-.48,1.64-1.51,1.64-3.11V126.05h10.39v13.59c0,3.68,1.57,5.51,4.71,5.51h5V122.54h10.39v31.8H141.14a15.76,15.76,0,0,1-6.39-1,9.12,9.12,0,0,1-3.68-3.15,10.16,10.16,0,0,1-2.55,2.36,11,11,0,0,1-2.8,1.23,13.08,13.08,0,0,1-2.84.48c-.93.06-1.82.08-2.68.08a15.78,15.78,0,0,1-6.83-1.32,10.93,10.93,0,0,1-4-2.83,9.1,9.1,0,0,1-5.6,3.47,46.07,46.07,0,0,1-8.79.68H91.92a5.68,5.68,0,0,1-1.2-.12,1.9,1.9,0,0,1-1-.56,2.93,2.93,0,0,1-.68-1.31,9.54,9.54,0,0,1-.24-2.4,6.71,6.71,0,0,1,.76-3.76,2.72,2.72,0,0,1,2.36-1Z"></path><path class="cls-1" d="M181.82,149.55a6.73,6.73,0,0,1-.76,3.75,2.72,2.72,0,0,1-2.36,1h-3.36a19.56,19.56,0,0,1-5-.6,9.77,9.77,0,0,1-3.92-2,9.28,9.28,0,0,1-2.55-3.72,15.5,15.5,0,0,1-.92-5.75v-45h10.39v43.55c0,1.86.33,3,1,3.55a4.61,4.61,0,0,0,2.84.76h1.52a5.74,5.74,0,0,1,1.2.12,2.05,2.05,0,0,1,1,.56,3,3,0,0,1,.68,1.32A9.54,9.54,0,0,1,181.82,149.55Z"></path><path class="cls-1" d="M181.9,145.15c1.17,0,2.14,0,2.91-.08a4.43,4.43,0,0,0,1.88-.48,2.27,2.27,0,0,0,1-1.16,5.63,5.63,0,0,0,.32-2.11V126.05h10.23v13.59a5.57,5.57,0,0,0,1.4,4,5.71,5.71,0,0,0,4.35,1.48,9.83,9.83,0,0,0,4-.72c1.09-.48,1.64-1.51,1.64-3.11V126.05H220v13.59c0,3.68,1.57,5.51,4.72,5.51h5V122.54h10.39v31.8H227.85a15.78,15.78,0,0,1-6.4-1,9.1,9.1,0,0,1-3.67-3.15,10.19,10.19,0,0,1-2.56,2.36,11,11,0,0,1-2.8,1.23,13,13,0,0,1-2.83.48c-.94.06-1.83.08-2.68.08a15.72,15.72,0,0,1-6.83-1.32,11,11,0,0,1-4-2.83,9.07,9.07,0,0,1-5.59,3.47,46.15,46.15,0,0,1-8.79.68h-3.12a5.68,5.68,0,0,1-1.2-.12,2,2,0,0,1-1-.56,2.93,2.93,0,0,1-.68-1.31,9.54,9.54,0,0,1-.24-2.4,6.79,6.79,0,0,1,.76-3.76,2.74,2.74,0,0,1,2.36-1Z"></path><path class="cls-1" d="M293.69,97.29v57.05H247.26v-9.19h15.35V116.94H273v28.21h10.3V97.29Zm-18.54,12.54H259.57v-5.59h3.28a3.61,3.61,0,0,1-.56-1.6,11,11,0,0,1-.16-1.68,8.13,8.13,0,0,1,.6-3.23,6.35,6.35,0,0,1,1.63-2.32,7.42,7.42,0,0,1,2.36-1.4,7.77,7.77,0,0,1,2.68-.48,10.4,10.4,0,0,1,2.32.24,12.88,12.88,0,0,1,1.83.56V99.6a15.22,15.22,0,0,0-2.95-.48,2.91,2.91,0,0,0-2.2.72,2.49,2.49,0,0,0-.68,1.76,2.72,2.72,0,0,0,.67,1.88,3.37,3.37,0,0,0,2.57.76h4.19Z"></path><path class="cls-1" d="M313.75,97.29v57.05H303.36v-57Z"></path><path class="cls-1" d="M107.08,67.14a11.27,11.27,0,0,1-2.33-.29,7.76,7.76,0,0,1-2.52-1.07,6.6,6.6,0,0,1-2-2.18,7.1,7.1,0,0,1-.84-3.67,8.22,8.22,0,0,1,.79-3.8,7.44,7.44,0,0,1,2.06-2.49,8.15,8.15,0,0,1,2.8-1.38,11.5,11.5,0,0,1,3-.42h5.84v12a6.48,6.48,0,0,0,.57,2.9,2.46,2.46,0,0,0,2.46,1.15h1a2,2,0,0,1,1.15.24,1.3,1.3,0,0,1,.32,1.05,1.18,1.18,0,0,1-1.47,1.41H116.5a5.69,5.69,0,0,1-3.58-1.12,3.93,3.93,0,0,1-1.51-3.09,12.31,12.31,0,0,1-2.08.55A12.57,12.57,0,0,1,107.08,67.14Zm-5.21-7.5a4.66,4.66,0,0,0,1.32,3.54,5.86,5.86,0,0,0,4.18,1.27,10.39,10.39,0,0,0,2-.21,10.87,10.87,0,0,0,1.91-.55V54.53h-3.53a9,9,0,0,0-2.33.29,5.25,5.25,0,0,0-1.85.91,4.43,4.43,0,0,0-1.24,1.58A5.38,5.38,0,0,0,101.87,59.64Zm1.39-16.08a1.74,1.74,0,0,1,.54-1.29,1.9,1.9,0,0,1,2.61,0,1.74,1.74,0,0,1,.54,1.29,1.78,1.78,0,0,1-.54,1.3,1.82,1.82,0,0,1-2.61,0A1.78,1.78,0,0,1,103.26,43.56Zm5.71,0a1.72,1.72,0,0,1,.55-1.29,1.89,1.89,0,0,1,2.6,0,1.72,1.72,0,0,1,.55,1.29,1.75,1.75,0,0,1-.55,1.3,1.81,1.81,0,0,1-2.6,0A1.75,1.75,0,0,1,109,43.56Z"></path><path class="cls-1" d="M117.92,70.59a1.86,1.86,0,0,1-1.09-.28,1.19,1.19,0,0,1-.38-1c0-.59.13-1,.38-1.13a2,2,0,0,1,1.09-.26h6.23a1.86,1.86,0,0,1,1.09.28,1.19,1.19,0,0,1,.38,1c0,.59-.13,1-.38,1.13a2,2,0,0,1-1.09.26Z"></path><path class="cls-1" d="M124.15,70.59a1.88,1.88,0,0,1-1.1-.28,1.19,1.19,0,0,1-.38-1c0-.59.13-1,.38-1.13a2,2,0,0,1,1.1-.26h6.22a1.86,1.86,0,0,1,1.09.28,1.19,1.19,0,0,1,.38,1c0,.59-.13,1-.38,1.13a2,2,0,0,1-1.09.26Z"></path><path class="cls-1" d="M130.37,70.59a1.9,1.9,0,0,1-1.1-.28,1.19,1.19,0,0,1-.37-1c0-.59.12-1,.37-1.13a2,2,0,0,1,1.1-.26h6.22a1.86,1.86,0,0,1,1.09.28,1.19,1.19,0,0,1,.38,1c0,.59-.13,1-.38,1.13a2,2,0,0,1-1.09.26Z"></path><path class="cls-1" d="M136.59,70.59a1.9,1.9,0,0,1-1.1-.28,1.19,1.19,0,0,1-.37-1c0-.59.12-1,.37-1.13a2,2,0,0,1,1.1-.26h6.22a1.86,1.86,0,0,1,1.09.28,1.19,1.19,0,0,1,.38,1c0,.59-.13,1-.38,1.13a2,2,0,0,1-1.09.26Z"></path><path class="cls-1" d="M142.81,70.59a1.84,1.84,0,0,1-1.09-.28,1.17,1.17,0,0,1-.38-1c0-.59.12-1,.38-1.13a1.93,1.93,0,0,1,1.09-.26H149a1.84,1.84,0,0,1,1.09.28,1.19,1.19,0,0,1,.38,1c0,.59-.13,1-.38,1.13a1.93,1.93,0,0,1-1.09.26Z"></path><path class="cls-1" d="M149,70.59a1.84,1.84,0,0,1-1.09-.28,1.17,1.17,0,0,1-.38-1c0-.59.12-1,.38-1.13a1.93,1.93,0,0,1,1.09-.26h6.22a1.84,1.84,0,0,1,1.09.28,1.17,1.17,0,0,1,.38,1c0,.59-.12,1-.38,1.13a1.93,1.93,0,0,1-1.09.26Z"></path><path class="cls-1" d="M155.25,70.59a1.84,1.84,0,0,1-1.09-.28,1.19,1.19,0,0,1-.38-1c0-.59.13-1,.38-1.13a1.93,1.93,0,0,1,1.09-.26h6.22a1.84,1.84,0,0,1,1.09.28,1.17,1.17,0,0,1,.38,1c0,.59-.12,1-.38,1.13a1.93,1.93,0,0,1-1.09.26Z"></path><path class="cls-1" d="M161.47,70.59a1.86,1.86,0,0,1-1.09-.28,1.19,1.19,0,0,1-.38-1c0-.59.13-1,.38-1.13a2,2,0,0,1,1.09-.26h6.22a1.9,1.9,0,0,1,1.1.28,1.19,1.19,0,0,1,.37,1c0,.59-.12,1-.37,1.13a2,2,0,0,1-1.1.26Z"></path><path class="cls-1" d="M168.2,70.59a1.9,1.9,0,0,1-1.1-.28,1.19,1.19,0,0,1-.37-1c0-.59.12-1,.37-1.13a2,2,0,0,1,1.1-.26h6a6,6,0,0,1-1.47-2.37,8.36,8.36,0,0,1-.47-2.71,10.15,10.15,0,0,1,.53-3.22,8.66,8.66,0,0,1,1.58-2.83,7.66,7.66,0,0,1,2.58-2,7.74,7.74,0,0,1,3.51-.76,7.37,7.37,0,0,1,3.72.84A6.63,6.63,0,0,1,186.48,57a8,8,0,0,1,1.16,2.85,15.72,15.72,0,0,1,.31,3.09v7.7Zm6.55-8.37a6.33,6.33,0,0,0,.47,2.54,4.78,4.78,0,0,0,1.24,1.77,5.07,5.07,0,0,0,1.87,1,8.09,8.09,0,0,0,2.35.33h4.71V63a11.94,11.94,0,0,0-.23-2.29,6.35,6.35,0,0,0-.8-2.08,4.44,4.44,0,0,0-1.58-1.52,5,5,0,0,0-2.56-.58,5.64,5.64,0,0,0-2.29.44,4.8,4.8,0,0,0-1.73,1.22,5.52,5.52,0,0,0-1.07,1.8A6.45,6.45,0,0,0,174.75,62.22Zm1.06-15.47a1.72,1.72,0,0,1,.54-1.28,1.87,1.87,0,0,1,2.61,0,1.72,1.72,0,0,1,.54,1.28,1.85,1.85,0,0,1-3.69,0Zm5.71,0a1.7,1.7,0,0,1,.55-1.28,1.86,1.86,0,0,1,2.6,0,1.7,1.7,0,0,1,.55,1.28,1.85,1.85,0,0,1-3.7,0Z"></path><path class="cls-1" d="M201.28,69.2c0,.59-.13,1-.38,1.13a2,2,0,0,1-1.09.26H199a9.77,9.77,0,0,1-2.38-.28,4.52,4.52,0,0,1-1.83-.92,4.34,4.34,0,0,1-1.17-1.73,7.33,7.33,0,0,1-.42-2.67V40.57h2.6V64a9,9,0,0,0,.15,1.78,2.52,2.52,0,0,0,.55,1.2,2.2,2.2,0,0,0,1.11.67,6.36,6.36,0,0,0,1.85.21h.38a1.86,1.86,0,0,1,1.09.28A1.19,1.19,0,0,1,201.28,69.2Z"></path><path class="cls-1" d="M199.81,70.59a1.9,1.9,0,0,1-1.1-.28,1.19,1.19,0,0,1-.37-1c0-.59.12-1,.37-1.13a2,2,0,0,1,1.1-.26H206a1.86,1.86,0,0,1,1.09.28,1.19,1.19,0,0,1,.38,1c0,.59-.13,1-.38,1.13a2,2,0,0,1-1.09.26Z"></path><path class="cls-1" d="M206,70.59a1.9,1.9,0,0,1-1.1-.28,1.19,1.19,0,0,1-.37-1c0-.59.12-1,.37-1.13a2,2,0,0,1,1.1-.26h6.22a1.84,1.84,0,0,1,1.09.28,1.19,1.19,0,0,1,.38,1c0,.59-.13,1-.38,1.13a1.93,1.93,0,0,1-1.09.26Z"></path><path class="cls-1" d="M212.25,70.59a1.84,1.84,0,0,1-1.09-.28,1.17,1.17,0,0,1-.38-1c0-.59.12-1,.38-1.13a1.93,1.93,0,0,1,1.09-.26H215q.89,0,1.71-.06a3.87,3.87,0,0,0,1.45-.38,2.27,2.27,0,0,0,1-1,4,4,0,0,0,.38-2V54.61h2.65v8a8.11,8.11,0,0,0,.8,3.91,3.2,3.2,0,0,0,3.07,1.42,1.86,1.86,0,0,1,1.09.28,1.19,1.19,0,0,1,.38,1c0,.59-.13,1-.38,1.13a2,2,0,0,1-1.09.26,6.57,6.57,0,0,1-2.69-.55,3.51,3.51,0,0,1-1.81-1.93,6.08,6.08,0,0,1-1.09,1.24,4.57,4.57,0,0,1-1.33.75,7.11,7.11,0,0,1-1.66.38,18.53,18.53,0,0,1-2.1.11ZM219,76.18a1.81,1.81,0,0,1,.55-1.31,1.78,1.78,0,0,1,1.3-.54A1.84,1.84,0,1,1,219,76.18Z"></path><path class="cls-1" d="M226,70.59a1.86,1.86,0,0,1-1.09-.28,1.19,1.19,0,0,1-.38-1c0-.59.13-1,.38-1.13a2,2,0,0,1,1.09-.26h7.23V40.57h2.65v30Z"></path><path class="cls-1" d="M244.41,40.57v30h-2.65v-30Z"></path><path class="cls-1" d="M316.43,212.9H31a31,31,0,0,1-31-31V31A31,31,0,0,1,31,0H316.43a31,31,0,0,1,31,31V181.92A31,31,0,0,1,316.43,212.9ZM31,8A23,23,0,0,0,8,31V181.92a23,23,0,0,0,23,23H316.43a23,23,0,0,0,23-23V31a23,23,0,0,0-23-23Z"></path></svg>