<svg xmlns="http://www.w3.org/2000/svg" id="Layer_1" data-name="Layer 1" viewBox="0 0 347.42 212.9"><defs><style>.cls-1{fill:#7ac5dd;}</style></defs><path class="cls-1" d="M90.49,154.34a23.76,23.76,0,0,1-3.72-.28,11.71,11.71,0,0,1-3.31-1,8.76,8.76,0,0,1-2.68-1.95,8.56,8.56,0,0,1-1.8-3.24c-.91.21-1.84.39-2.8.52a19.1,19.1,0,0,1-7.51-.4,14.5,14.5,0,0,1-5-2.2,13.17,13.17,0,0,1-4-4.43A14.52,14.52,0,0,1,58,134.05a16.18,16.18,0,0,1,1.56-7.44,14.78,14.78,0,0,1,4-5A15.35,15.35,0,0,1,69,118.9a21.75,21.75,0,0,1,5.88-.84H88.49V142a4.64,4.64,0,0,0,.48,2.51c.32.46,1.07.68,2.24.68h1.92a5.65,5.65,0,0,1,1.19.12,2,2,0,0,1,1,.56,2.93,2.93,0,0,1,.68,1.32,9.54,9.54,0,0,1,.24,2.4,6.64,6.64,0,0,1-.76,3.75,2.69,2.69,0,0,1-2.35,1ZM63.4,104.72a5.74,5.74,0,1,1,1.68,4A5.46,5.46,0,0,1,63.4,104.72Zm4.79,28.81a9.25,9.25,0,0,0,.24,2,4.84,4.84,0,0,0,.88,1.91A5.09,5.09,0,0,0,71,138.84a6,6,0,0,0,2.76.56c.69,0,1.4,0,2.11-.08a8.06,8.06,0,0,0,2.2-.48v-11h-4a5.87,5.87,0,0,0-4.44,1.55A5.65,5.65,0,0,0,68.19,133.53Zm8.23-28.81a5.74,5.74,0,1,1,1.68,4A5.46,5.46,0,0,1,76.42,104.72Z"></path><path class="cls-1" d="M93.13,154.34a5.68,5.68,0,0,1-1.2-.12,1.9,1.9,0,0,1-1-.56,2.93,2.93,0,0,1-.68-1.31A9.54,9.54,0,0,1,90,150a6.71,6.71,0,0,1,.76-3.76,2.72,2.72,0,0,1,2.36-1H105a5.68,5.68,0,0,1,1.2.12,2,2,0,0,1,1,.56,3,3,0,0,1,.68,1.32,9.54,9.54,0,0,1,.24,2.4,6.64,6.64,0,0,1-.76,3.75,2.71,2.71,0,0,1-2.36,1Z"></path><path class="cls-1" d="M105,154.34a5.81,5.81,0,0,1-1.2-.12,2,2,0,0,1-1-.56,2.93,2.93,0,0,1-.68-1.31,10,10,0,0,1-.24-2.4,6.79,6.79,0,0,1,.76-3.76,2.75,2.75,0,0,1,2.36-1h11.83a5.81,5.81,0,0,1,1.2.12,2.05,2.05,0,0,1,1,.56,3,3,0,0,1,.68,1.32,9.54,9.54,0,0,1,.24,2.4,6.73,6.73,0,0,1-.76,3.75,2.72,2.72,0,0,1-2.36,1Z"></path><path class="cls-1" d="M116.78,154.34a4.2,4.2,0,0,1-1.2-.16,2.24,2.24,0,0,1-1-.59,2.93,2.93,0,0,1-.68-1.31,9.28,9.28,0,0,1-.24-2.37,6.67,6.67,0,0,1,.76-3.73,2.76,2.76,0,0,1,2.36-1H129.4V122.54h10.47v31.8Zm.88,13.43a5.74,5.74,0,1,1,1.68,4A5.46,5.46,0,0,1,117.66,167.77Zm13,0a5.74,5.74,0,1,1,1.68,4A5.46,5.46,0,0,1,130.68,167.77Z"></path><path class="cls-1" d="M159.77,97.29v57.05H149.38v-57Z"></path><path class="cls-1" d="M201.88,154.34a27.76,27.76,0,0,1-3.95-.24,12.63,12.63,0,0,1-2.84-.72,10.61,10.61,0,0,1-2.24-1.23,24.72,24.72,0,0,1-2.15-1.8,10,10,0,0,1-5,3.31,23.1,23.1,0,0,1-5.79.68H166v-9.19h15.83a5.27,5.27,0,0,0,2.83-.6,1.69,1.69,0,0,0,.92-1.39,4.42,4.42,0,0,0-.76-2.16c-.5-.85-1.45-2.27-2.83-4.24L174.71,126l9.51-6.07,9.59,16.22q1.51,2.56,2.64,4.32a23.11,23.11,0,0,0,2,2.8,6.58,6.58,0,0,0,1.72,1.47,3.34,3.34,0,0,0,1.67.44,5.68,5.68,0,0,1,1.2.12,2,2,0,0,1,1,.56,3,3,0,0,1,.68,1.32,9.54,9.54,0,0,1,.24,2.4,6.64,6.64,0,0,1-.76,3.75A2.71,2.71,0,0,1,201.88,154.34Z"></path><path class="cls-1" d="M201.88,154.34a5.81,5.81,0,0,1-1.2-.12,1.91,1.91,0,0,1-1-.56,2.84,2.84,0,0,1-.68-1.31,9.54,9.54,0,0,1-.24-2.4,6.71,6.71,0,0,1,.76-3.76,2.72,2.72,0,0,1,2.35-1h11.83a5.74,5.74,0,0,1,1.2.12,2.05,2.05,0,0,1,1,.56,3,3,0,0,1,.68,1.32,9.54,9.54,0,0,1,.24,2.4,6.73,6.73,0,0,1-.76,3.75,2.72,2.72,0,0,1-2.36,1Z"></path><path class="cls-1" d="M218.58,145.15a6.4,6.4,0,0,0,3.8-.84c.72-.56,1.08-1.82,1.08-3.79v-18h10.39v17.1a6.36,6.36,0,0,0,1.12,4.23c.74.86,2.39,1.28,4.95,1.28a5.68,5.68,0,0,1,1.2.12,2.05,2.05,0,0,1,1,.56,3,3,0,0,1,.68,1.32,9.54,9.54,0,0,1,.24,2.4,6.73,6.73,0,0,1-.76,3.75,2.71,2.71,0,0,1-2.36,1,13.2,13.2,0,0,1-4.47-.76,6.79,6.79,0,0,1-3.6-3.31,8,8,0,0,1-2.32,2.2,10.55,10.55,0,0,1-2.87,1.23,17.23,17.23,0,0,1-3.16.52q-1.63.12-3.24.12h-6.55a5.68,5.68,0,0,1-1.2-.12,2,2,0,0,1-1-.56,2.93,2.93,0,0,1-.68-1.31,9.54,9.54,0,0,1-.24-2.4,6.79,6.79,0,0,1,.76-3.76,2.74,2.74,0,0,1,2.36-1Zm4.4,22.38a5.74,5.74,0,1,1,1.68,4A5.46,5.46,0,0,1,223,167.53Z"></path><path class="cls-1" d="M249.11,145.15V97.29H259.5v57.05H239.92a5.68,5.68,0,0,1-1.2-.12,2,2,0,0,1-1-.56,2.93,2.93,0,0,1-.68-1.31,9.54,9.54,0,0,1-.24-2.4,6.79,6.79,0,0,1,.76-3.76,2.74,2.74,0,0,1,2.36-1Z"></path><path class="cls-1" d="M279.56,97.29v57.05H269.17v-57Z"></path><path class="cls-1" d="M109.75,67.14a11.36,11.36,0,0,1-2.34-.29,8,8,0,0,1-2.52-1.07,6.6,6.6,0,0,1-2-2.18,7.1,7.1,0,0,1-.84-3.67,8.22,8.22,0,0,1,.8-3.8,7.32,7.32,0,0,1,2.06-2.49,8.06,8.06,0,0,1,2.8-1.38,11.42,11.42,0,0,1,3-.42h5.85v12a6.63,6.63,0,0,0,.56,2.9,2.46,2.46,0,0,0,2.46,1.15h1a2,2,0,0,1,1.16.24c.21.16.31.51.31,1.05a1.65,1.65,0,0,1-.29,1.09,1.63,1.63,0,0,1-1.18.32h-1.43a5.64,5.64,0,0,1-3.57-1.12,3.9,3.9,0,0,1-1.51-3.09,12.31,12.31,0,0,1-2.08.55A12.74,12.74,0,0,1,109.75,67.14Zm-5.22-7.5a4.67,4.67,0,0,0,1.33,3.54A5.84,5.84,0,0,0,110,64.45a10.47,10.47,0,0,0,2-.21,11.12,11.12,0,0,0,1.91-.55V54.53h-3.53a9,9,0,0,0-2.33.29,5.09,5.09,0,0,0-1.85.91A4.33,4.33,0,0,0,105,57.31,5.38,5.38,0,0,0,104.53,59.64Zm1.39-16.08a1.72,1.72,0,0,1,.55-1.29,1.88,1.88,0,0,1,2.6,0,1.72,1.72,0,0,1,.55,1.29,1.75,1.75,0,0,1-.55,1.3,1.81,1.81,0,0,1-2.6,0A1.75,1.75,0,0,1,105.92,43.56Zm5.72,0a1.74,1.74,0,0,1,.54-1.29,1.83,1.83,0,0,1,1.31-.52,1.8,1.8,0,0,1,1.3.52,1.75,1.75,0,0,1,.55,1.29,1.88,1.88,0,0,1-1.85,1.85,1.81,1.81,0,0,1-1.31-.55A1.78,1.78,0,0,1,111.64,43.56Z"></path><path class="cls-1" d="M120.59,70.59a1.84,1.84,0,0,1-1.09-.28,1.19,1.19,0,0,1-.38-1c0-.59.13-1,.38-1.13a1.93,1.93,0,0,1,1.09-.26h6.22a1.84,1.84,0,0,1,1.09.28,1.17,1.17,0,0,1,.38,1c0,.59-.12,1-.38,1.13a1.93,1.93,0,0,1-1.09.26Z"></path><path class="cls-1" d="M126.81,70.59a1.86,1.86,0,0,1-1.09-.28,1.19,1.19,0,0,1-.38-1c0-.59.13-1,.38-1.13a2,2,0,0,1,1.09-.26H133a1.9,1.9,0,0,1,1.1.28,1.19,1.19,0,0,1,.37,1c0,.59-.12,1-.37,1.13a2,2,0,0,1-1.1.26Z"></path><path class="cls-1" d="M133,70.59a1.86,1.86,0,0,1-1.09-.28,1.19,1.19,0,0,1-.38-1c0-.59.13-1,.38-1.13a2,2,0,0,1,1.09-.26h6.22a1.9,1.9,0,0,1,1.1.28,1.19,1.19,0,0,1,.37,1c0,.59-.12,1-.37,1.13a2,2,0,0,1-1.1.26Z"></path><path class="cls-1" d="M139.25,70.59a1.86,1.86,0,0,1-1.09-.28,1.19,1.19,0,0,1-.38-1c0-.59.13-1,.38-1.13a2,2,0,0,1,1.09-.26h6.22a1.88,1.88,0,0,1,1.1.28,1.19,1.19,0,0,1,.38,1c0,.59-.13,1-.38,1.13a2,2,0,0,1-1.1.26Z"></path><path class="cls-1" d="M145.47,70.59a1.86,1.86,0,0,1-1.09-.28,1.19,1.19,0,0,1-.38-1c0-.59.13-1,.38-1.13a2,2,0,0,1,1.09-.26h6.23a1.86,1.86,0,0,1,1.09.28,1.19,1.19,0,0,1,.38,1c0,.59-.13,1-.38,1.13a2,2,0,0,1-1.09.26Z"></path><path class="cls-1" d="M151.7,70.59a1.88,1.88,0,0,1-1.1-.28,1.19,1.19,0,0,1-.38-1c0-.59.13-1,.38-1.13a2,2,0,0,1,1.1-.26h6.22a1.86,1.86,0,0,1,1.09.28,1.19,1.19,0,0,1,.38,1c0,.59-.13,1-.38,1.13a2,2,0,0,1-1.09.26Z"></path><path class="cls-1" d="M157.92,70.59a1.9,1.9,0,0,1-1.1-.28,1.19,1.19,0,0,1-.37-1c0-.59.12-1,.37-1.13a2,2,0,0,1,1.1-.26h6.22a1.86,1.86,0,0,1,1.09.28,1.19,1.19,0,0,1,.38,1c0,.59-.13,1-.38,1.13a2,2,0,0,1-1.09.26Z"></path><path class="cls-1" d="M164.14,70.59a1.9,1.9,0,0,1-1.1-.28,1.19,1.19,0,0,1-.37-1c0-.59.12-1,.37-1.13a2,2,0,0,1,1.1-.26h6.22a1.86,1.86,0,0,1,1.09.28,1.19,1.19,0,0,1,.38,1c0,.59-.13,1-.38,1.13a2,2,0,0,1-1.09.26Z"></path><path class="cls-1" d="M170.86,70.59a1.86,1.86,0,0,1-1.09-.28,1.19,1.19,0,0,1-.38-1c0-.59.13-1,.38-1.13a2,2,0,0,1,1.09-.26h6a6.08,6.08,0,0,1-1.47-2.37,8.34,8.34,0,0,1-.46-2.71,9.88,9.88,0,0,1,.53-3.22A8.63,8.63,0,0,1,177,56.76a7.6,7.6,0,0,1,2.59-2,7.74,7.74,0,0,1,3.51-.76,7.37,7.37,0,0,1,3.72.84A6.71,6.71,0,0,1,189.15,57a8,8,0,0,1,1.15,2.85,15.75,15.75,0,0,1,.32,3.09v7.7Zm6.56-8.37a6.33,6.33,0,0,0,.46,2.54,4.9,4.9,0,0,0,1.24,1.77,5.07,5.07,0,0,0,1.87,1,8.16,8.16,0,0,0,2.36.33h4.71V63a11.21,11.21,0,0,0-.24-2.29,6.33,6.33,0,0,0-.79-2.08,4.52,4.52,0,0,0-1.58-1.52,5.07,5.07,0,0,0-2.57-.58,5.67,5.67,0,0,0-2.29.44,4.77,4.77,0,0,0-1.72,1.22A5.52,5.52,0,0,0,177.8,60,6.45,6.45,0,0,0,177.42,62.22Zm1.05-15.47a1.7,1.7,0,0,1,.55-1.28,1.86,1.86,0,0,1,2.6,0,1.7,1.7,0,0,1,.55,1.28,1.85,1.85,0,0,1-3.7,0Zm5.72,0a1.72,1.72,0,0,1,.54-1.28,1.84,1.84,0,0,1,1.31-.53,1.81,1.81,0,0,1,1.3.53,1.73,1.73,0,0,1,.55,1.28,1.78,1.78,0,0,1-.55,1.3,1.75,1.75,0,0,1-1.3.55,1.86,1.86,0,0,1-1.85-1.85Z"></path><path class="cls-1" d="M203.94,69.2c0,.59-.12,1-.37,1.13a2,2,0,0,1-1.1.26h-.84a9.63,9.63,0,0,1-2.37-.28,4.4,4.4,0,0,1-1.83-.92,4.26,4.26,0,0,1-1.18-1.73,7.33,7.33,0,0,1-.42-2.67V40.57h2.61V64a10,10,0,0,0,.14,1.78,2.52,2.52,0,0,0,.55,1.2,2.28,2.28,0,0,0,1.12.67,6.29,6.29,0,0,0,1.84.21h.38a1.9,1.9,0,0,1,1.1.28A1.19,1.19,0,0,1,203.94,69.2Z"></path><path class="cls-1" d="M202.47,70.59a1.86,1.86,0,0,1-1.09-.28,1.19,1.19,0,0,1-.38-1c0-.59.13-1,.38-1.13a2,2,0,0,1,1.09-.26h6.22a1.9,1.9,0,0,1,1.1.28,1.19,1.19,0,0,1,.38,1c0,.59-.13,1-.38,1.13a2,2,0,0,1-1.1.26Z"></path><path class="cls-1" d="M208.69,70.59a1.86,1.86,0,0,1-1.09-.28,1.19,1.19,0,0,1-.38-1c0-.59.13-1,.38-1.13a2,2,0,0,1,1.09-.26h6.23a1.86,1.86,0,0,1,1.09.28,1.19,1.19,0,0,1,.38,1c0,.59-.13,1-.38,1.13a2,2,0,0,1-1.09.26Z"></path><path class="cls-1" d="M214.91,70.59a1.86,1.86,0,0,1-1.09-.28,1.19,1.19,0,0,1-.38-1c0-.59.13-1,.38-1.13a2,2,0,0,1,1.09-.26h6.23a1.86,1.86,0,0,1,1.09.28,1.19,1.19,0,0,1,.38,1c0,.59-.13,1-.38,1.13a2,2,0,0,1-1.09.26Z"></path><path class="cls-1" d="M221.14,70.59a1.88,1.88,0,0,1-1.1-.28,1.19,1.19,0,0,1-.38-1c0-.59.13-1,.38-1.13a2,2,0,0,1,1.1-.26h6.22a1.86,1.86,0,0,1,1.09.28,1.19,1.19,0,0,1,.38,1c0,.59-.13,1-.38,1.13a2,2,0,0,1-1.09.26Z"></path><path class="cls-1" d="M227.36,70.59a1.9,1.9,0,0,1-1.1-.28,1.19,1.19,0,0,1-.37-1c0-.59.12-1,.37-1.13a2,2,0,0,1,1.1-.26h7.23V54.61h2.64v16Zm6.55,5.59a1.81,1.81,0,0,1,.55-1.31,1.78,1.78,0,0,1,1.3-.54,1.84,1.84,0,1,1-1.85,1.85Z"></path><path class="cls-1" d="M316.43,212.9H31a31,31,0,0,1-31-31V31A31,31,0,0,1,31,0H316.43a31,31,0,0,1,31,31V181.92A31,31,0,0,1,316.43,212.9ZM31,8A23,23,0,0,0,8,31V181.92a23,23,0,0,0,23,23H316.43a23,23,0,0,0,23-23V31a23,23,0,0,0-23-23Z"></path></svg>