<svg id="Layer_1" data-name="Layer 1" xmlns="http://www.w3.org/2000/svg" viewBox="0 0 178.66 178.66"><defs><style>.cls-1{fill:#6024c6;}.cls-2{fill:#fff;}</style></defs><title>Foodics-one-feature-icon-3</title><circle class="cls-1" cx="89.33" cy="89.33" r="89.33"/><path class="cls-2" d="M82.7,123.54c-.39,0-.66,0-.92.07a8,8,0,0,1-6.88-2.43L68.72,115c-3.6-3.6-7.16-7.24-10.81-10.79A8.86,8.86,0,0,1,55,97.13c0-.38,0-.76,0-1.21-1.08-.17-2.07-.3-3.06-.48-3.36-.6-6.72-1.22-10.08-1.84a5,5,0,0,1-4-5.48,3.14,3.14,0,0,1,.37-1.32c1.59-2.62,3.18-5.25,4.83-7.83,1.82-2.85,3.73-5.64,5.57-8.47a8.89,8.89,0,0,1,7.46-4.25c4.27-.22,8.53-.64,12.79-1a3.14,3.14,0,0,0,2.27-1.24A81.43,81.43,0,0,1,86.24,50.23a66.6,66.6,0,0,1,25.83-10.76,84.81,84.81,0,0,1,18.19-1.62c1.21,0,2.41.1,3.61.22a7.64,7.64,0,0,1,6.76,7.06,86,86,0,0,1-.31,14.44,74.05,74.05,0,0,1-4.27,18.33,68,68,0,0,1-14.91,23.44c-2,2.12-4.28,4.06-6.45,6.06a3.43,3.43,0,0,0-1.23,2.18c-.14,1.19-.24,2.39-.34,3.59-.26,3.41-.53,6.82-.78,10.23a7.48,7.48,0,0,1-3.31,6c-5.27,3.52-10.56,7-15.85,10.48a5.5,5.5,0,0,1-7.18-1,6.13,6.13,0,0,1-1.36-3.29q-.7-4.55-1.42-9.1C83.07,125.58,82.89,124.62,82.7,123.54Zm52.07-71.66c0-.72,0-1.42,0-2.12,0-1.36-.09-2.72-.19-4.07a1.66,1.66,0,0,0-1.58-1.6,7,7,0,0,0-.92-.12c-2.21,0-4.44-.16-6.64,0-3.44.25-6.88.6-10.3,1.12a57.47,57.47,0,0,0-18.72,6.13c-13.12,7-22.84,17.36-29.85,30.38-.57,1.06-.56,1.12.32,2L95,111.7c1,1,1.08,1,2.31.34a75,75,0,0,0,19.92-15.38,63.32,63.32,0,0,0,11-15.82C132.61,71.69,134.4,61.93,134.77,51.88ZM89.88,115.46C81,106.57,72.27,97.83,63.44,89c-.14.32-.22.45-.26.59-.62,2.37-1.19,4.75-1.85,7.1a2.94,2.94,0,0,0,.88,3.15c3.21,3.16,6.36,6.38,9.55,9.57,2.33,2.33,4.71,4.62,7,7a2.89,2.89,0,0,0,3.12.93c1.76-.47,3.55-.84,5.33-1.26ZM65.29,71.71c-.35,0-.5,0-.65,0l-8.59.71a2.79,2.79,0,0,0-2,1.08c-.31.4-.61.8-.89,1.23Q49.06,80.91,45,87.14c-.18.28-.31.59-.46.88a2.8,2.8,0,0,0,.29.15c3.57.56,7.13,1.13,10.7,1.67,1.13.18,1.16.14,1.53-1a65.88,65.88,0,0,1,6.77-14.66ZM90.58,134.2a4.19,4.19,0,0,0,.6-.26l13.88-9.19a2.73,2.73,0,0,0,1.22-1.9,15,15,0,0,0,.19-1.5l.48-6.62c0-.36,0-.73,0-1.24-.43.22-.74.35-1,.53a67.57,67.57,0,0,1-15.8,7.57c-1.22.4-1.39.67-1.2,2,.37,2.5.74,5,1.13,7.48C90.2,132.07,90.39,133.08,90.58,134.2Z"/><path class="cls-2" d="M37.87,140.79c0-1.27,0-2.35,0-3.43a1.83,1.83,0,0,1,.48-1c1.32-1.47,2.63-3,4-4.36,4.82-4.85,9.66-9.66,14.5-14.49a5.06,5.06,0,0,1,2.52-1.57,2.88,2.88,0,0,1,3.35,3.53,4.24,4.24,0,0,1-1,1.77q-9,9-18,18c-.16.17-.35.31-.52.47a3.53,3.53,0,0,1-3,1.06A22.93,22.93,0,0,0,37.87,140.79Z"/><path class="cls-2" d="M53.85,109.85a2.69,2.69,0,0,1-.82,2c-3.34,3.35-6.67,6.71-10,10a2.68,2.68,0,0,1-2.89.71,3.11,3.11,0,0,1-2.18-2.5,1.91,1.91,0,0,1,.27-1.3A20.39,20.39,0,0,1,40.33,116c2.65-2.72,5.35-5.39,8.05-8.07a3.07,3.07,0,0,1,4.19-.59A2.92,2.92,0,0,1,53.85,109.85Z"/><path class="cls-2" d="M71.88,128a3.31,3.31,0,0,1-1,2.15q-3.75,3.74-7.48,7.49c-.57.58-1.15,1.16-1.74,1.72a7.48,7.48,0,0,1-1.08.87,2.85,2.85,0,0,1-3.93-.68,2.88,2.88,0,0,1,.22-3.92c2-2,4-4,6-6,1.34-1.35,2.69-2.7,4.07-4a3,3,0,0,1,3.36-.45A3.07,3.07,0,0,1,71.88,128Z"/><path class="cls-2" d="M123.52,70.24a15.11,15.11,0,1,1-15.21-15.07A15.11,15.11,0,0,1,123.52,70.24Zm-15.18-8.95a9,9,0,0,0,.12,18,9,9,0,1,0-.12-18Z"/></svg>