<svg version="1.2" xmlns="http://www.w3.org/2000/svg" viewBox="0 0 960 295" width="960" height="295"><style>.a{fill:#020304}</style><path class="a" d="m551.3 0.2h42.5l-75.2 294.9h-47.5z"/><path fill-rule="evenodd" class="a" d="m739.4 272.1v6q0 3.6-0.4 5.5-0.3 1.9-1.4 2.8-1.1 0.9-3.2 0.9h-0.8q-5.8 0-11.6-2.2-5.8-2.1-10.8-6.1-7.2 8.3-20.8 8.3h-65.5q-16.7 0-27.5-3.4-10.8-3.4-16.2-10.7-5.4-7.4-5.4-19.1 0-3.5 0.8-10.1 0.9-6.7 1.8-10.7l25.7 2.3q-1.4 7.8-1.4 14.3 0 4.6 1.8 7.7 1.8 3.1 7.7 5.1 5.9 1.9 17.5 1.9h49.5q4.7 0 7-2.4 2.4-2.4 2.4-6.8v-82.7h28.8v86.9q0 1.5-0.1 1.9 4.1 1.7 8.3 2.4 4.1 0.7 7.6 0.7h0.8q2.3 0 3.4 0.6 1.1 0.7 1.5 2.3 0.5 1.6 0.5 4.6zm-73.7-41.4v12.6h-33.8v-12.6h5.4q-1.8-3.3-1.8-6 0-4.8 2.5-8.2 2.4-3.4 6.5-5.2 4.1-1.7 8.8-1.7 2.9 0 5.3 0.2 2.4 0.3 6.5 0.8l-1.1 12.5q-3.1-1-7.5-1-2.9 0-4.6 1-1.6 1-1.6 2.6 0 2.3 2.5 3.7 2.4 1.3 6.2 1.3z"/><path fill-rule="evenodd" class="a" d="m918.3 272.1v6q0 3.6-0.4 5.5-0.3 1.9-1.4 2.8-1.1 0.9-3.2 0.9h-111.2q-7.6-0.1-15.2-1.9-7.6-1.8-14.4-5.4-7.3 7.3-19.4 7.3h-19.5q-2.2 0-3.3-0.9-1-0.9-1.4-2.8-0.4-1.9-0.4-5.5v-6q0.1-3 0.5-4.6 0.4-1.6 1.5-2.3 1.2-0.6 3.4-0.6h11.4q5.9 0 5.8-8.3v-23.9h28.9v26.5l-0.2 3q6.2 2 12.1 2.4 6.4-14.2 15.4-26.1 9-11.8 21.4-19.3 12.3-7.4 27.2-7.4 12.9 0 22 5.3 9 5.3 13.7 15.1 4.6 9.8 4.6 23v9.7h16.8q2.2 0 3.3 0.6 1.1 0.7 1.6 2.3 0.4 1.6 0.4 4.6zm-50.9-16.2q0-11.1-4.6-16-4.6-4.9-13.4-4.9-5.6 0-11.8 3.4-6.2 3.3-12 10-5.8 6.7-10 16.2h51.8z"/><path class="a" d="m958.9 181.6q0 3.5-1.8 6.7-1.7 3.1-4.8 5-3 1.9-6.9 1.9-3.6 0-6.7-1.8-3.1-1.8-5-5-1.8-3.1-1.8-6.8 0-3.5 1.8-6.7 1.8-3.2 4.9-5.1 3.2-1.9 6.8-1.9 3.7 0 6.8 1.9 3.1 1.9 4.9 5 1.8 3.2 1.8 6.8zm0.3 35.6v70.1h-46.7q-2.2 0-3.2-0.9-1.1-0.9-1.5-2.8-0.3-1.9-0.3-5.5v-6q0-3 0.4-4.6 0.5-1.6 1.6-2.3 1.1-0.6 3.3-0.6h17.6v-47.4z"/><path class="a" d="m91.6 234.9q0 3.5-1.7 6.7-1.8 3.1-4.9 5-3 1.9-6.8 1.9-3.7 0-6.8-1.8-3.1-1.8-4.9-5-1.9-3.1-1.9-6.8 0-3.6 1.8-6.7 1.8-3.2 5-5.1 3.1-1.9 6.8-1.9 3.6 0 6.7 1.9 3.1 1.9 4.9 5 1.8 3.2 1.8 6.8zm-32.6 0q0 3.5-1.8 6.7-1.7 3.1-4.8 5-3.1 1.9-6.9 1.9-3.6 0-6.7-1.8-3.1-1.8-5-5-1.8-3.1-1.8-6.8 0-3.6 1.8-6.7 1.8-3.2 4.9-5.1 3.2-1.9 6.8-1.9 3.7 0 6.8 1.9 3.1 1.9 4.9 5 1.8 3.2 1.8 6.8zm126.9-78.8v6q0 3.6-0.3 5.5-0.4 1.9-1.5 2.8-1 0.9-3.2 0.9h-17.5q-13.5 0-21-7.2-7.4-7.2-7.4-20.1v-19.5h-3.7q-6.8 0-9.3 4.1-2.5 4-2.5 11.1v22.5q0 10.5-6.7 20.4-6.7 9.9-19.7 16.2-13 6.3-30.6 6.3-22.9 0-36.7-7.7-13.8-7.6-19.4-18.2-5.6-10.6-5.6-20.4 0-9.2 3.9-18.4 3.8-9.3 10.6-17.9l23.2 12.1q-3.6 4.7-6.2 11.1-2.7 6.5-2.7 12 0 7.5 4.1 12.7 4.1 5.2 11.5 7.9 7.4 2.6 17.3 2.6 7.8 0 14.2-2.3 6.5-2.3 10.3-6.7 3.8-4.4 3.8-10.5v-24.4q0-17.6 10.6-26.7 10.5-9.2 31.2-9.2h31v38.6q0 8.9 9.4 8.9h7.6q2.2 0 3.3 0.6 1.2 0.7 1.6 2.3 0.4 1.6 0.4 4.6z"/><path class="a" d="m226.6 65.6q0 3.5-1.8 6.7-1.7 3.1-4.8 5-3 1.9-6.9 1.9-3.6 0-6.7-1.8-3.1-1.8-5-5-1.8-3.1-1.8-6.8 0-3.5 1.8-6.7 1.8-3.2 4.9-5.1 3.2-1.9 6.8-1.9 3.7 0 6.8 1.9 3.1 1.9 4.9 5 1.8 3.2 1.8 6.8zm0.3 35.6v70.1h-46.7q-2.2 0-3.2-0.9-1.1-0.9-1.5-2.8-0.3-1.9-0.3-5.5v-6q0-3 0.4-4.6 0.5-1.6 1.6-2.3 1.1-0.6 3.3-0.6h17.6v-47.4z"/><path class="a" d="m302.6 156.1v6q0 3.6-0.3 5.5-0.4 1.9-1.5 2.8-1.1 0.9-3.2 0.9h-17.8q-14.3 0-21.6-7.1-7.4-7.1-7.4-21.6v-86h28.7v81.5q0 5.5 2.1 8 2 2.5 6.5 2.5h9.2q2.2 0 3.3 0.6 1.1 0.7 1.6 2.3 0.4 1.6 0.4 4.6z"/><path class="a" d="m358.7 65.6q0 3.5-1.7 6.7-1.8 3.1-4.8 5-3.1 1.9-6.9 1.9-3.7 0-6.8-1.8-3.1-1.8-4.9-5-1.9-3.1-1.9-6.8 0-3.5 1.8-6.7 1.8-3.2 5-5.1 3.1-1.9 6.8-1.9 3.6 0 6.7 1.9 3.1 1.9 4.9 5 1.8 3.2 1.8 6.8zm-16.5-30.7q0 3.5-1.7 6.7-1.8 3.1-4.8 5-3.1 1.9-6.9 1.9-3.7 0-6.8-1.8-3.1-1.8-4.9-5-1.8-3.1-1.8-6.8 0-3.6 1.8-6.8 1.8-3.1 4.9-5 3.1-1.9 6.8-1.9 3.7 0 6.8 1.9 3.1 1.9 4.9 5 1.7 3.2 1.7 6.8zm-16.1 30.7q0 3.5-1.8 6.7-1.7 3.1-4.8 5-3 1.9-6.9 1.9-3.6 0-6.7-1.8-3.1-1.8-5-5-1.8-3.1-1.8-6.8 0-3.5 1.8-6.7 1.8-3.2 4.9-5.1 3.2-1.9 6.8-1.9 3.7 0 6.8 1.9 3.1 1.9 4.9 5 1.8 3.2 1.8 6.8zm41.5 90.5v6q0 3.6-0.3 5.5-0.4 1.9-1.5 2.8-1 0.9-3.2 0.9h-0.9q-6.2 0-12.5-2.7-6.3-2.6-11.4-7.1-7.3 9.8-21.6 9.8h-19.4q-2.1 0-3.2-0.9-1.1-0.9-1.5-2.8-0.3-1.9-0.3-5.5v-6q0-3 0.4-4.6 0.5-1.6 1.6-2.3 1.1-0.6 3.3-0.6h11.2q3.4 0 4.7-1.6 1.4-1.6 1.4-5.8v-40h28.8v43q8 4.4 17.9 4.4h1.2q2.2 0 3.3 0.6 1.2 0.7 1.6 2.3 0.4 1.6 0.4 4.6z"/><path class="a" d="m407 56.6v114.7h-45.3q-2-0.1-3.1-0.9-1.1-0.9-1.4-2.8-0.4-1.9-0.4-5.5v-6q0-3 0.5-4.6 0.4-1.6 1.5-2.3 1.1-0.6 3.3-0.6h16.1v-92z"/><path class="a" d="m459.6 56.6v114.7h-28.7v-114.7z"/></svg>