<svg version="1.2" xmlns="http://www.w3.org/2000/svg" viewBox="0 0 772 350" width="772" height="350"><style></style><path  d="m264.6 113.6c21.3-0.2 41.2 3.8 58.2 17.1 14.7 11.6 22.3 27 24.3 45.7 3.7 35.2-12.9 62-35.8 85.8-12 12.4-25.3 23.4-38 35-2.2 2-4.4 3.9-8.6 7.6 30.4 0 58.1 0 86.5 0 0 15.2 0 29.5 0 44.5-54 0-107.9 0-162.7 0 0.2-10.3 0-20.5 0.1-31.3l84.5-83.3c8-8.3 13.9-19.7 18-30.8 8.7-23.8-3.9-49-39.2-46.6-16.8 1.1-31.3 8.4-45.9 18.5-4.9-12.4-9.9-24.1-14-36.1 0 0 19.4-24.3 72.6-26.1z"/><path  d="m420.4 349.9v-349.8h102.8l73 262.5 72.3-262.5h103.4v349.8h-70.6v-198.2l-52.3 198.2h-106.3l-51.1-197.6v197.6z"/><path  d="m160.3 0.1h50.4l-89.1 349.8h-56.5z"/><path  d="m27.2 47.9l-27.1 11.2v-42.2l33.6-16.8h44.4v231.3h-50.5z"/></svg>